<svg width="56" height="320" viewBox="0 0 56 320" fill="none" xmlns="http://www.w3.org/2000/svg">
<path d="M28.5 0.5V285.5" stroke="white" stroke-opacity="0.5" stroke-width="2.43177"/>
<g filter="url(#filter0_f_157_16)">
<path d="M28.0265 273.122L31.5579 286.891L45.1098 279.354L36.5521 291.29L52.1859 294.4L36.5521 297.51L45.1098 309.446L31.5579 301.909L28.0265 315.678L24.4951 301.909L10.9433 309.446L19.5009 297.51L3.86719 294.4L19.5009 291.29L10.9433 279.354L24.4951 286.891L28.0265 273.122Z" fill="#FF6F00"/>
</g>
<g filter="url(#filter1_f_157_16)">
<path d="M28.0262 279.201L30.5486 289.036L40.2285 283.653L34.1159 292.178L45.2829 294.4L34.1159 296.621L40.2285 305.147L30.5486 299.763L28.0262 309.598L25.5038 299.763L15.8239 305.147L21.9365 296.621L10.7695 294.4L21.9365 292.178L15.8239 283.653L25.5038 289.036L28.0262 279.201Z" fill="white"/>
</g>
<defs>
<filter id="filter0_f_157_16" x="0.219539" y="269.474" width="55.6156" height="49.851" filterUnits="userSpaceOnUse" color-interpolation-filters="sRGB">
<feFlood flood-opacity="0" result="BackgroundImageFix"/>
<feBlend mode="normal" in="SourceGraphic" in2="BackgroundImageFix" result="shape"/>
<feGaussianBlur stdDeviation="1.82382" result="effect1_foregroundBlur_157_16"/>
</filter>
<filter id="filter1_f_157_16" x="9.55365" y="277.985" width="36.9435" height="32.8287" filterUnits="userSpaceOnUse" color-interpolation-filters="sRGB">
<feFlood flood-opacity="0" result="BackgroundImageFix"/>
<feBlend mode="normal" in="SourceGraphic" in2="BackgroundImageFix" result="shape"/>
<feGaussianBlur stdDeviation="0.607941" result="effect1_foregroundBlur_157_16"/>
</filter>
</defs>
</svg>
