<svg width="90" height="393" viewBox="0 0 90 393" fill="none" xmlns="http://www.w3.org/2000/svg">
<path d="M48 0.5L41.9757 372.5" stroke="white" stroke-opacity="0.5" stroke-width="2.43177"/>
<g filter="url(#filter0_f_157_17)">
<path d="M44.6549 87L50.3052 109.031L71.9881 96.9715L58.2959 116.068L83.3099 121.045L58.2959 126.021L71.9881 145.118L50.3052 133.059L44.6549 155.089L39.0047 133.059L17.3218 145.118L31.014 126.021L6 121.045L31.014 116.068L17.3218 96.9715L39.0047 109.031L44.6549 87Z" fill="#FF6F00"/>
</g>
<g filter="url(#filter1_f_157_17)">
<path d="M44.6575 96.7266L48.6935 112.463L64.1812 103.849L54.4011 117.49L72.2682 121.044L54.4011 124.599L64.1812 138.239L48.6935 129.626L44.6575 145.362L40.6216 129.626L25.1339 138.239L34.914 124.599L17.0469 121.044L34.914 117.49L25.1339 103.849L40.6216 112.463L44.6575 96.7266Z" fill="white"/>
</g>
<g filter="url(#filter2_f_157_17)">
<ellipse cx="42.6637" cy="378.011" rx="9.66373" ry="8.51118" fill="#FF6200"/>
</g>
<g filter="url(#filter3_f_157_17)">
<ellipse cx="42.6605" cy="378.011" rx="6.90267" ry="6.07941" fill="white"/>
</g>
<g filter="url(#filter4_f_157_17)">
<ellipse cx="42.6637" cy="279.011" rx="9.66373" ry="8.51118" fill="#FF6200"/>
</g>
<g filter="url(#filter5_f_157_17)">
<ellipse cx="42.6605" cy="279.011" rx="6.90267" ry="6.07941" fill="white"/>
</g>
<defs>
<filter id="filter0_f_157_17" x="0.163763" y="81.1638" width="88.9811" height="79.7618" filterUnits="userSpaceOnUse" color-interpolation-filters="sRGB">
<feFlood flood-opacity="0" result="BackgroundImageFix"/>
<feBlend mode="normal" in="SourceGraphic" in2="BackgroundImageFix" result="shape"/>
<feGaussianBlur stdDeviation="2.91812" result="effect1_foregroundBlur_157_17"/>
</filter>
<filter id="filter1_f_157_17" x="15.1015" y="94.7812" width="59.1135" height="52.5261" filterUnits="userSpaceOnUse" color-interpolation-filters="sRGB">
<feFlood flood-opacity="0" result="BackgroundImageFix"/>
<feBlend mode="normal" in="SourceGraphic" in2="BackgroundImageFix" result="shape"/>
<feGaussianBlur stdDeviation="0.972706" result="effect1_foregroundBlur_157_17"/>
</filter>
<filter id="filter2_f_157_17" x="26.6774" y="363.177" width="31.9733" height="29.6676" filterUnits="userSpaceOnUse" color-interpolation-filters="sRGB">
<feFlood flood-opacity="0" result="BackgroundImageFix"/>
<feBlend mode="normal" in="SourceGraphic" in2="BackgroundImageFix" result="shape"/>
<feGaussianBlur stdDeviation="3.1613" result="effect1_foregroundBlur_157_17"/>
</filter>
<filter id="filter3_f_157_17" x="34.5419" y="370.716" width="16.2365" height="14.5905" filterUnits="userSpaceOnUse" color-interpolation-filters="sRGB">
<feFlood flood-opacity="0" result="BackgroundImageFix"/>
<feBlend mode="normal" in="SourceGraphic" in2="BackgroundImageFix" result="shape"/>
<feGaussianBlur stdDeviation="0.607941" result="effect1_foregroundBlur_157_17"/>
</filter>
<filter id="filter4_f_157_17" x="26.799" y="264.299" width="31.7301" height="29.4245" filterUnits="userSpaceOnUse" color-interpolation-filters="sRGB">
<feFlood flood-opacity="0" result="BackgroundImageFix"/>
<feBlend mode="normal" in="SourceGraphic" in2="BackgroundImageFix" result="shape"/>
<feGaussianBlur stdDeviation="3.1005" result="effect1_foregroundBlur_157_17"/>
</filter>
<filter id="filter5_f_157_17" x="34.5419" y="271.716" width="16.2365" height="14.5905" filterUnits="userSpaceOnUse" color-interpolation-filters="sRGB">
<feFlood flood-opacity="0" result="BackgroundImageFix"/>
<feBlend mode="normal" in="SourceGraphic" in2="BackgroundImageFix" result="shape"/>
<feGaussianBlur stdDeviation="0.607941" result="effect1_foregroundBlur_157_17"/>
</filter>
</defs>
</svg>
