<svg width="80" height="438" viewBox="0 0 80 438" fill="none" xmlns="http://www.w3.org/2000/svg">
<path d="M40.5 0V385.5" stroke="white" stroke-opacity="0.5" stroke-width="2.43177"/>
<g filter="url(#filter0_f_157_18)">
<path d="M39.9157 371.858L44.9606 391.528L64.3203 380.761L52.0951 397.812L74.429 402.255L52.0951 406.698L64.3203 423.749L44.9606 412.982L39.9157 432.652L34.8708 412.982L15.5111 423.749L27.7363 406.698L5.40234 402.255L27.7363 397.812L15.5111 380.761L34.8708 391.528L39.9157 371.858Z" fill="#FF6F00"/>
</g>
<g filter="url(#filter1_f_157_18)">
<path d="M39.918 380.543L43.5215 394.593L57.3499 386.902L48.6176 399.081L64.5704 402.255L48.6176 405.429L57.3499 417.608L43.5215 409.917L39.918 423.967L36.3145 409.917L22.4861 417.608L31.2184 405.429L15.2656 402.255L31.2184 399.081L22.4861 386.902L36.3145 394.593L39.918 380.543Z" fill="white"/>
</g>
<g filter="url(#filter2_f_157_18)">
<ellipse cx="39.9215" cy="314.71" rx="9.66373" ry="8.51118" fill="#FF6200"/>
</g>
<g filter="url(#filter3_f_157_18)">
<ellipse cx="39.9183" cy="314.71" rx="6.90267" ry="6.07941" fill="white"/>
</g>
<g filter="url(#filter4_f_157_18)">
<ellipse cx="39.9215" cy="264.859" rx="9.66373" ry="8.51118" fill="#FF6200"/>
</g>
<g filter="url(#filter5_f_157_18)">
<ellipse cx="39.9183" cy="264.859" rx="6.90267" ry="6.07941" fill="white"/>
</g>
<defs>
<filter id="filter0_f_157_18" x="0.191418" y="366.647" width="79.4492" height="71.2158" filterUnits="userSpaceOnUse" color-interpolation-filters="sRGB">
<feFlood flood-opacity="0" result="BackgroundImageFix"/>
<feBlend mode="normal" in="SourceGraphic" in2="BackgroundImageFix" result="shape"/>
<feGaussianBlur stdDeviation="2.60546" result="effect1_foregroundBlur_157_18"/>
</filter>
<filter id="filter1_f_157_18" x="13.5286" y="378.806" width="52.7786" height="46.8983" filterUnits="userSpaceOnUse" color-interpolation-filters="sRGB">
<feFlood flood-opacity="0" result="BackgroundImageFix"/>
<feBlend mode="normal" in="SourceGraphic" in2="BackgroundImageFix" result="shape"/>
<feGaussianBlur stdDeviation="0.868488" result="effect1_foregroundBlur_157_18"/>
</filter>
<filter id="filter2_f_157_18" x="21.7466" y="297.688" width="36.3505" height="34.0448" filterUnits="userSpaceOnUse" color-interpolation-filters="sRGB">
<feFlood flood-opacity="0" result="BackgroundImageFix"/>
<feBlend mode="normal" in="SourceGraphic" in2="BackgroundImageFix" result="shape"/>
<feGaussianBlur stdDeviation="4.25559" result="effect1_foregroundBlur_157_18"/>
</filter>
<filter id="filter3_f_157_18" x="31.7997" y="307.415" width="16.2365" height="14.5905" filterUnits="userSpaceOnUse" color-interpolation-filters="sRGB">
<feFlood flood-opacity="0" result="BackgroundImageFix"/>
<feBlend mode="normal" in="SourceGraphic" in2="BackgroundImageFix" result="shape"/>
<feGaussianBlur stdDeviation="0.607941" result="effect1_foregroundBlur_157_18"/>
</filter>
<filter id="filter4_f_157_18" x="21.7466" y="247.836" width="36.3505" height="34.0448" filterUnits="userSpaceOnUse" color-interpolation-filters="sRGB">
<feFlood flood-opacity="0" result="BackgroundImageFix"/>
<feBlend mode="normal" in="SourceGraphic" in2="BackgroundImageFix" result="shape"/>
<feGaussianBlur stdDeviation="4.25559" result="effect1_foregroundBlur_157_18"/>
</filter>
<filter id="filter5_f_157_18" x="31.7997" y="257.563" width="16.2365" height="14.5905" filterUnits="userSpaceOnUse" color-interpolation-filters="sRGB">
<feFlood flood-opacity="0" result="BackgroundImageFix"/>
<feBlend mode="normal" in="SourceGraphic" in2="BackgroundImageFix" result="shape"/>
<feGaussianBlur stdDeviation="0.607941" result="effect1_foregroundBlur_157_18"/>
</filter>
</defs>
</svg>
