<svg width="60" height="263" viewBox="0 0 60 263" fill="none" xmlns="http://www.w3.org/2000/svg">
<path d="M31.0156 1L26.9994 249" stroke="white" stroke-opacity="0.5" stroke-width="1.62118"/>
<g filter="url(#filter0_f_126_373)">
<path d="M29.77 58L33.5368 72.6871L47.9921 64.6476L38.8639 77.3789L55.5399 80.6965L38.8639 84.0141L47.9921 96.7453L33.5368 88.7059L29.77 103.393L26.0031 88.7059L11.5478 96.7453L20.676 84.0141L4 80.6965L20.676 77.3789L11.5478 64.6476L26.0031 72.6871L29.77 58Z" fill="#FF6F00"/>
</g>
<g filter="url(#filter1_f_126_373)">
<path d="M29.7704 64.4844L32.461 74.9752L42.7862 69.2327L36.2661 78.3264L48.1775 80.6961L36.2661 83.0659L42.7862 92.1596L32.461 86.4171L29.7704 96.9079L27.0798 86.4171L16.7546 92.1596L23.2747 83.0659L11.3633 80.6961L23.2747 78.3264L16.7546 69.2327L27.0798 74.9752L29.7704 64.4844Z" fill="white"/>
</g>
<g filter="url(#filter2_f_126_373)">
<ellipse cx="27.4425" cy="252.674" rx="6.44249" ry="5.67412" fill="#FF6200"/>
</g>
<g filter="url(#filter3_f_126_373)">
<ellipse cx="27.4416" cy="252.674" rx="4.60178" ry="4.05294" fill="white"/>
</g>
<g filter="url(#filter4_f_126_373)">
<ellipse cx="28.4425" cy="185.674" rx="6.44249" ry="5.67412" fill="#FF6200"/>
</g>
<g filter="url(#filter5_f_126_373)">
<ellipse cx="28.4416" cy="185.674" rx="4.60178" ry="4.05294" fill="white"/>
</g>
<defs>
<filter id="filter0_f_126_373" x="0.109175" y="54.1092" width="59.3207" height="53.1747" filterUnits="userSpaceOnUse" color-interpolation-filters="sRGB">
<feFlood flood-opacity="0" result="BackgroundImageFix"/>
<feBlend mode="normal" in="SourceGraphic" in2="BackgroundImageFix" result="shape"/>
<feGaussianBlur stdDeviation="1.94541" result="effect1_foregroundBlur_126_373"/>
</filter>
<filter id="filter1_f_126_373" x="10.0663" y="63.1874" width="39.4064" height="35.0172" filterUnits="userSpaceOnUse" color-interpolation-filters="sRGB">
<feFlood flood-opacity="0" result="BackgroundImageFix"/>
<feBlend mode="normal" in="SourceGraphic" in2="BackgroundImageFix" result="shape"/>
<feGaussianBlur stdDeviation="0.648471" result="effect1_foregroundBlur_126_373"/>
</filter>
<filter id="filter2_f_126_373" x="16.7849" y="242.785" width="21.3168" height="19.7783" filterUnits="userSpaceOnUse" color-interpolation-filters="sRGB">
<feFlood flood-opacity="0" result="BackgroundImageFix"/>
<feBlend mode="normal" in="SourceGraphic" in2="BackgroundImageFix" result="shape"/>
<feGaussianBlur stdDeviation="2.10753" result="effect1_foregroundBlur_126_373"/>
</filter>
<filter id="filter3_f_126_373" x="22.0293" y="247.811" width="10.8243" height="9.72713" filterUnits="userSpaceOnUse" color-interpolation-filters="sRGB">
<feFlood flood-opacity="0" result="BackgroundImageFix"/>
<feBlend mode="normal" in="SourceGraphic" in2="BackgroundImageFix" result="shape"/>
<feGaussianBlur stdDeviation="0.405294" result="effect1_foregroundBlur_126_373"/>
</filter>
<filter id="filter4_f_126_373" x="17.866" y="175.866" width="21.1547" height="19.6161" filterUnits="userSpaceOnUse" color-interpolation-filters="sRGB">
<feFlood flood-opacity="0" result="BackgroundImageFix"/>
<feBlend mode="normal" in="SourceGraphic" in2="BackgroundImageFix" result="shape"/>
<feGaussianBlur stdDeviation="2.067" result="effect1_foregroundBlur_126_373"/>
</filter>
<filter id="filter5_f_126_373" x="23.0293" y="180.811" width="10.8243" height="9.72713" filterUnits="userSpaceOnUse" color-interpolation-filters="sRGB">
<feFlood flood-opacity="0" result="BackgroundImageFix"/>
<feBlend mode="normal" in="SourceGraphic" in2="BackgroundImageFix" result="shape"/>
<feGaussianBlur stdDeviation="0.405294" result="effect1_foregroundBlur_126_373"/>
</filter>
</defs>
</svg>
