<svg width="125" height="121" viewBox="0 0 125 121" fill="none" xmlns="http://www.w3.org/2000/svg">
<g filter="url(#filter0_f_239_6)">
<path d="M99.2639 35.1424C110.688 51.8808 104.248 77.1427 83.4266 91.3537C62.6053 105.565 36.7335 102.357 25.3092 85.6184C13.8848 68.88 20.3252 43.6181 41.1465 29.4071C61.9677 15.196 87.8396 18.404 99.2639 35.1424Z" stroke="#214986" stroke-width="6"/>
<path d="M66.9879 37.4374C66.1548 34.591 69.4507 32.3414 71.7978 34.1545C73.876 35.7599 76.7515 35.8445 78.9205 34.3641C81.3701 32.6922 84.5281 35.1316 83.529 37.9241C82.6444 40.3967 83.4525 43.1576 85.5307 44.763C87.8778 46.576 86.5336 50.3333 83.5691 50.246C80.9442 50.1688 78.5681 51.7905 77.6835 54.2631C76.6844 57.0556 72.6957 56.9382 71.8626 54.0918C71.1249 51.5715 68.8483 49.8129 66.2234 49.7356C63.2589 49.6484 62.1379 45.8186 64.5875 44.1467C66.7565 42.6663 67.7256 39.9577 66.9879 37.4374Z" stroke="#8F94AA" stroke-width="3"/>
<path d="M40.4353 59.8294C40.3261 62.3793 40.3777 64.8054 40.4245 66.9782L40.4245 66.9793C40.4717 69.1707 40.5127 71.0723 40.3946 72.6477C40.2746 74.2493 39.9987 75.3312 39.5438 75.9878C39.158 76.5445 38.572 76.8993 37.4174 76.8499C35.0669 76.7492 32.8144 74.9689 31.1558 71.7459C29.5124 68.5523 28.5689 64.1303 28.7781 59.2451C28.9873 54.3599 30.3054 50.0348 32.2159 46.9934C34.1439 43.924 36.5404 42.3428 38.8909 42.4434C40.0367 42.4925 40.5908 42.8997 40.9308 43.5039C41.3311 44.2152 41.5126 45.3413 41.4943 46.9692C41.4764 48.5711 41.2719 50.4846 41.0368 52.6798C40.8037 54.8562 40.5445 57.2797 40.4353 59.8294Z" stroke="#FFEECC" stroke-width="2"/>
<path d="M52.0929 82.9949C52.964 84.2711 52.5021 86.5341 50.4082 87.9632C48.3143 89.3924 46.0387 88.9979 45.1676 87.7216C44.2966 86.4454 44.7585 84.1825 46.8524 82.7534C48.9462 81.3242 51.2219 81.7187 52.0929 82.9949Z" stroke="#FFEECC" stroke-width="2"/>
</g>
<path d="M98.3023 35.3932C109.854 52.3174 103.082 77.2013 82.9531 90.94C62.824 104.679 37.1836 101.916 25.6324 84.9923C14.0812 68.0681 20.8524 43.1842 40.9816 29.4455C61.1108 15.7069 86.7511 18.4691 98.3023 35.3932Z" stroke="white" stroke-width="0.930657"/>
<path d="M65.4491 39.1024C64.4205 35.5881 68.4898 32.8107 71.3876 35.0492C73.0026 36.2968 75.2373 36.3625 76.9228 35.2121C79.9472 33.1479 83.8462 36.1597 82.6127 39.6074C81.9252 41.5289 82.5533 43.6745 84.1683 44.9221C87.066 47.1606 85.4064 51.7994 81.7463 51.6917C79.7065 51.6317 77.8599 52.892 77.1725 54.8134C75.939 58.2611 71.0144 58.1162 69.9858 54.602C69.4125 52.6434 67.6433 51.2767 65.6034 51.2167C61.9433 51.109 60.5594 46.3806 63.5837 44.3164C65.2693 43.1659 66.0224 41.061 65.4491 39.1024Z" stroke="#8F94AA" stroke-width="0.930657"/>
<path d="M42.0962 59.6999C41.9953 62.0559 42.0428 64.2995 42.0864 66.323L42.0868 66.3437C42.1304 68.3675 42.169 70.1556 42.0574 71.6442C41.9446 73.1498 41.6822 74.2639 41.184 74.9829C40.7181 75.6554 40.0066 76.0366 38.8027 75.9851C36.3758 75.8811 34.1613 74.053 32.5815 70.983C31.0087 67.9267 30.12 63.7284 30.3175 59.1163C30.5151 54.5041 31.7595 50.3971 33.5877 47.4865C35.4242 44.5629 37.787 42.9307 40.2139 43.0347C41.4136 43.0861 42.09 43.5334 42.498 44.2584C42.9339 45.0331 43.0993 46.1869 43.0822 47.7168C43.0651 49.2336 42.872 51.0376 42.6541 53.0718L42.6537 53.0757C42.4367 55.1027 42.1971 57.3439 42.0962 59.6999Z" stroke="#FFEECC" stroke-width="0.930657"/>
<path d="M52.8653 80.9768C53.8724 82.4524 53.2519 84.83 51.1754 86.2472C49.0989 87.6645 46.6586 87.376 45.6515 85.9004C44.6444 84.4248 45.2649 82.0472 47.3414 80.63C49.4179 79.2127 51.8582 79.5012 52.8653 80.9768Z" stroke="#FFEECC" stroke-width="0.930657"/>
<defs>
<filter id="filter0_f_239_6" x="12.6934" y="13.4355" width="99.1855" height="93.8896" filterUnits="userSpaceOnUse" color-interpolation-filters="sRGB">
<feFlood flood-opacity="0" result="BackgroundImageFix"/>
<feBlend mode="normal" in="SourceGraphic" in2="BackgroundImageFix" result="shape"/>
<feGaussianBlur stdDeviation="2" result="effect1_foregroundBlur_239_6"/>
</filter>
</defs>
</svg>
