<svg width="346" height="132" viewBox="0 0 346 132" fill="none" xmlns="http://www.w3.org/2000/svg">
<g filter="url(#filter0_f_221_5145)">
<rect x="18.0537" y="18.0537" width="309.893" height="96.329" rx="39.4179" stroke="#FF6200" stroke-width="8.10747"/>
</g>
<g filter="url(#filter1_f_221_5145)">
<rect x="16.0958" y="16.5303" width="313.814" height="100.068" rx="42.3251" stroke="white" stroke-width="2.29312"/>
</g>
<path d="M71.4724 54.5601H82.7688C84.7146 54.5601 86.264 54.7943 87.4171 55.2627C88.6062 55.7311 89.507 56.3077 90.1196 56.9923C90.7322 57.6409 91.1285 58.3255 91.3087 59.0462C91.4889 59.7669 91.5789 60.3794 91.5789 60.8839C91.5789 61.7847 91.3988 62.5955 91.0384 63.3161C90.7141 64.0008 90.2637 64.6133 89.6872 65.1538C89.1467 65.6583 88.5161 66.0727 87.7955 66.397C87.0748 66.6852 86.3541 66.9014 85.6335 67.0456V67.4239C86.3902 67.4599 87.2189 67.5861 88.1198 67.8023C89.0566 68.0185 89.9214 68.3968 90.7141 68.9373C91.5429 69.4418 92.2275 70.1444 92.768 71.0453C93.3085 71.9461 93.5788 73.0811 93.5788 74.4504C93.5788 75.3512 93.3986 76.234 93.0383 77.0988C92.678 77.9276 92.1014 78.6843 91.3087 79.3689C90.516 80.0175 89.489 80.558 88.2279 80.9904C86.9667 81.3868 85.4533 81.585 83.6877 81.585H71.4724V54.5601ZM76.0667 79.423H81.6878C82.0482 79.423 82.6067 79.405 83.3634 79.3689C84.1561 79.2969 84.9308 79.0987 85.6875 78.7744C86.4802 78.4501 87.1649 77.9456 87.7414 77.261C88.3179 76.5403 88.6062 75.5314 88.6062 74.2342C88.6062 72.901 88.2999 71.856 87.6874 71.0993C87.1108 70.3426 86.4082 69.7841 85.5794 69.4238C84.7507 69.0634 83.8859 68.8472 82.985 68.7752C82.1202 68.7031 81.3996 68.6671 80.823 68.6671H76.0667V79.423ZM76.0667 66.8294H80.769C81.5977 66.8294 82.3905 66.7213 83.1472 66.5051C83.9039 66.2528 84.5705 65.9105 85.147 65.4781C85.7236 65.0097 86.174 64.4692 86.4983 63.8566C86.8586 63.208 87.0388 62.4693 87.0388 61.6406C87.0388 61.2082 86.9667 60.7217 86.8226 60.1812C86.7145 59.6047 86.4622 59.0642 86.0659 58.5597C85.6695 58.0553 85.093 57.6229 84.3363 57.2626C83.6156 56.9022 82.6427 56.7221 81.4176 56.7221H76.0667V66.8294ZM100.609 54.5601H105.203V66.8294H111.689C112.554 66.8294 113.617 66.8834 114.878 66.9915C116.139 67.0996 117.346 67.4059 118.499 67.9104C119.652 68.3788 120.625 69.1175 121.418 70.1264C122.247 71.1353 122.661 72.5586 122.661 74.3963C122.661 75.5134 122.427 76.5223 121.958 77.4231C121.526 78.2879 120.949 79.0446 120.229 79.6932C119.508 80.3058 118.661 80.7742 117.688 81.0985C116.752 81.4228 115.797 81.585 114.824 81.585H100.609V54.5601ZM128.336 54.5601H132.93V81.585H128.336V54.5601ZM105.203 79.5311H112.391C113.797 79.5311 115.022 79.1167 116.067 78.2879C117.148 77.4231 117.688 76.1439 117.688 74.4504C117.688 73.0451 117.418 71.9641 116.878 71.2074C116.337 70.4147 115.707 69.8381 114.986 69.4778C114.301 69.0814 113.617 68.8472 112.932 68.7752C112.247 68.7031 111.743 68.6671 111.419 68.6671H105.203V79.5311ZM159.134 43.7501H166.647L163.729 47.7498H157.081C155.063 47.7498 153.207 47.8579 151.513 48.0741C149.856 48.2543 148.288 48.9029 146.811 50.0199C145.514 51.0288 144.469 52.5242 143.676 54.506C142.883 56.4518 142.487 58.5597 142.487 60.8298V61.1001H142.703C143.1 60.1993 143.64 59.3164 144.325 58.4516C145.009 57.5869 145.838 56.8302 146.811 56.1816C147.784 55.4969 148.919 54.9564 150.216 54.5601C151.513 54.1637 152.991 53.9655 154.648 53.9655C157.026 53.9655 159.062 54.3799 160.756 55.2087C162.449 56.0014 163.837 57.0464 164.918 58.3435C165.999 59.6407 166.791 61.1361 167.296 62.8297C167.836 64.4872 168.107 66.1808 168.107 67.9104C168.107 69.64 167.854 71.3515 167.35 73.0451C166.846 74.7387 166.053 76.2701 164.972 77.6393C163.891 79.0086 162.486 80.1256 160.756 80.9904C159.062 81.8192 157.008 82.2336 154.594 82.2336C151.495 82.2336 148.973 81.7111 147.027 80.6661C145.118 79.5851 143.64 78.2699 142.595 76.7205C141.55 75.1711 140.848 73.5315 140.487 71.8019C140.127 70.0363 139.947 68.4689 139.947 67.0996V65.6403C139.947 64.5232 139.965 63.3341 140.001 62.073C140.037 60.7758 140.145 59.4786 140.325 58.1814C140.505 56.8482 140.794 55.5149 141.19 54.1817C141.586 52.8485 142.145 51.5873 142.865 50.3982C143.838 48.7767 144.937 47.5156 146.162 46.6147C147.424 45.7139 148.757 45.0473 150.162 44.6149C151.567 44.1825 153.027 43.9303 154.54 43.8582C156.054 43.7861 157.585 43.7501 159.134 43.7501ZM145.081 68.2347C145.081 70.6489 145.388 72.6307 146 74.1801C146.649 75.6935 147.442 76.9006 148.379 77.8015C149.351 78.6663 150.396 79.2608 151.513 79.5851C152.63 79.9094 153.657 80.0716 154.594 80.0716C155.315 80.0716 156.162 79.9274 157.135 79.6392C158.107 79.3149 159.026 78.7383 159.891 77.9096C160.756 77.0448 161.477 75.8377 162.053 74.2882C162.666 72.7388 162.972 70.721 162.972 68.2347C162.972 65.2439 162.594 62.9378 161.837 61.3163C161.08 59.6588 160.197 58.4516 159.188 57.695C158.18 56.9383 157.171 56.4878 156.162 56.3437C155.153 56.1996 154.378 56.1275 153.838 56.1275C152.576 56.1275 151.405 56.3617 150.324 56.8302C149.279 57.2986 148.361 58.0373 147.568 59.0462C146.775 60.0191 146.162 61.2803 145.73 62.8297C145.298 64.3431 145.081 66.1447 145.081 68.2347ZM175.138 95.0974V54.5601H179.732V58.9381H179.949C181.282 55.623 184.092 53.9655 188.38 53.9655C190.182 53.9655 191.84 54.3078 193.353 54.9925C194.866 55.6411 196.164 56.5959 197.245 57.8571C198.362 59.0822 199.226 60.5596 199.839 62.2892C200.452 64.0188 200.758 65.9646 200.758 68.1266C200.758 70.2525 200.452 72.1983 199.839 73.9639C199.226 75.6935 198.362 77.1709 197.245 78.396C196.164 79.6212 194.866 80.576 193.353 81.2607C191.84 81.9093 190.182 82.2336 188.38 82.2336C187.516 82.2336 186.651 82.1435 185.786 81.9633C184.957 81.7831 184.165 81.4949 183.408 81.0985C182.651 80.7021 181.967 80.1797 181.354 79.5311C180.777 78.8825 180.309 78.0897 179.949 77.1529H179.732V95.0974H175.138ZM179.732 65.37V70.0724C179.732 71.5497 179.931 72.8649 180.327 74.018C180.759 75.1711 181.318 76.162 182.003 76.9907C182.687 77.7835 183.48 78.396 184.381 78.8284C185.282 79.2248 186.236 79.423 187.245 79.423C188.362 79.423 189.425 79.2248 190.434 78.8284C191.443 78.396 192.326 77.7294 193.083 76.8286C193.876 75.8917 194.488 74.7026 194.92 73.2613C195.389 71.82 195.623 70.0724 195.623 68.0185C195.623 66.0006 195.389 64.271 194.92 62.8297C194.488 61.3884 193.894 60.2173 193.137 59.3164C192.38 58.4156 191.479 57.767 190.434 57.3707C189.425 56.9383 188.362 56.7221 187.245 56.7221C186.2 56.7221 185.21 56.9563 184.273 57.4247C183.372 57.8571 182.579 58.4697 181.894 59.2624C181.21 60.0191 180.669 60.9379 180.273 62.0189C179.913 63.0639 179.732 64.1809 179.732 65.37ZM217.703 53.9655C220.334 53.9655 222.37 54.3439 223.811 55.1006C225.252 55.8212 226.297 56.7761 226.946 57.9652C227.63 59.1543 228.027 60.5236 228.135 62.073C228.243 63.6224 228.297 65.2079 228.297 66.8294V81.585H223.919V78.9365C222.874 79.9455 221.541 80.7562 219.919 81.3688C218.298 81.9453 216.676 82.2336 215.055 82.2336C213.505 82.2336 212.136 81.9633 210.947 81.4228C209.758 80.8823 208.767 80.1797 207.974 79.3149C207.182 78.4501 206.587 77.4772 206.191 76.3962C205.794 75.3152 205.596 74.2162 205.596 73.0991C205.596 71.9461 205.812 70.793 206.245 69.64C206.677 68.4869 207.326 67.4599 208.191 66.5591C209.055 65.6223 210.118 64.8656 211.379 64.289C212.641 63.7125 214.082 63.4242 215.703 63.4242C217.325 63.4242 218.856 63.7485 220.298 64.3971C221.775 65.0097 222.982 65.8925 223.919 67.0456V64.7214C223.919 61.7667 223.469 59.5687 222.568 58.1273C221.703 56.686 220.099 55.9654 217.757 55.9654C216.748 55.9654 215.866 56.0915 215.109 56.3437C214.352 56.5959 213.668 56.9563 213.055 57.4247C212.478 57.8571 211.938 58.4156 211.434 59.1002C210.929 59.7488 210.425 60.4875 209.92 61.3163L207.11 58.5057C207.614 57.9652 208.136 57.4247 208.677 56.8842C209.254 56.3437 209.938 55.8573 210.731 55.4249C211.56 54.9925 212.533 54.6501 213.65 54.3979C214.767 54.1096 216.118 53.9655 217.703 53.9655ZM223.919 70.8831C223.739 70.4507 223.469 69.9462 223.108 69.3697C222.784 68.7932 222.352 68.2347 221.811 67.6942C221.271 67.1537 220.622 66.7033 219.865 66.3429C219.109 65.9466 218.208 65.7484 217.163 65.7484C216.118 65.7484 215.163 65.9646 214.298 66.397C213.433 66.7933 212.695 67.3338 212.082 68.0185C211.506 68.6671 211.055 69.4418 210.731 70.3426C210.407 71.2434 210.244 72.1803 210.244 73.1532C210.244 74.3063 210.443 75.3152 210.839 76.18C211.271 77.0087 211.812 77.7294 212.46 78.342C213.109 78.9185 213.83 79.3509 214.622 79.6392C215.415 79.9274 216.172 80.0716 216.893 80.0716C217.577 80.0716 218.262 79.9455 218.946 79.6932C219.667 79.441 220.334 79.0987 220.946 78.6663C221.595 78.1978 222.171 77.6573 222.676 77.0448C223.18 76.4322 223.595 75.7656 223.919 75.0449V70.8831ZM244.514 81.585V56.7221H233.704V54.5601H259.918V56.7221H249.108V81.585H244.514ZM265.344 54.5601H269.939V66.8294H276.425C277.289 66.8294 278.352 66.8834 279.614 66.9915C280.875 67.0996 282.082 67.4059 283.235 67.9104C284.388 68.3788 285.361 69.1175 286.154 70.1264C286.982 71.1353 287.397 72.5586 287.397 74.3963C287.397 75.5134 287.162 76.5223 286.694 77.4231C286.262 78.2879 285.685 79.0446 284.964 79.6932C284.244 80.3058 283.397 80.7742 282.424 81.0985C281.487 81.4228 280.532 81.585 279.559 81.585H265.344V54.5601ZM269.939 79.423H277.127C278.533 79.423 279.758 79.0266 280.803 78.2339C281.884 77.4051 282.424 76.1439 282.424 74.4504C282.424 73.0451 282.154 71.9641 281.613 71.2074C281.073 70.4147 280.442 69.8381 279.722 69.4778C279.037 69.0814 278.352 68.8472 277.668 68.7752C276.983 68.7031 276.479 68.6671 276.154 68.6671H269.939V79.423Z" fill="white"/>
<defs>
<filter id="filter0_f_221_5145" x="0.757799" y="0.757799" width="344.484" height="130.921" filterUnits="userSpaceOnUse" color-interpolation-filters="sRGB">
<feFlood flood-opacity="0" result="BackgroundImageFix"/>
<feBlend mode="normal" in="SourceGraphic" in2="BackgroundImageFix" result="shape"/>
<feGaussianBlur stdDeviation="6.6211" result="effect1_foregroundBlur_221_5145"/>
</filter>
<filter id="filter1_f_221_5145" x="13.2104" y="13.6449" width="319.585" height="105.839" filterUnits="userSpaceOnUse" color-interpolation-filters="sRGB">
<feFlood flood-opacity="0" result="BackgroundImageFix"/>
<feBlend mode="normal" in="SourceGraphic" in2="BackgroundImageFix" result="shape"/>
<feGaussianBlur stdDeviation="0.869433" result="effect1_foregroundBlur_221_5145"/>
</filter>
</defs>
</svg>
