<svg width="512" height="141" viewBox="0 0 512 141" fill="none" xmlns="http://www.w3.org/2000/svg">
<g filter="url(#filter0_f_159_20)">
<rect x="23.5" y="24" width="465" height="93.1802" rx="46.5901" stroke="#FF6200" stroke-width="9"/>
</g>
<g filter="url(#filter1_f_159_20)">
<path d="M21.4099 70.0518C21.4099 43.4303 42.9908 21.8493 69.6123 21.8493H442.394C469.016 21.8493 490.597 43.4303 490.597 70.0518C490.597 96.6732 469.016 118.254 442.394 118.254H256.755H69.6123C42.9908 118.254 21.4099 96.6732 21.4099 70.0518Z" stroke="white" stroke-width="1.9916"/>
</g>
<path d="M81.094 74.427L75.01 82.5H72.709L79.963 72.906L72.67 63H76.609L81.952 70.293L87.373 63H89.635L83.083 71.814L91.039 82.5H87.061L81.094 74.427ZM114.371 72.789C114.371 74.141 114.137 75.441 113.669 76.689C113.201 77.911 112.525 78.99 111.641 79.926C110.783 80.862 109.73 81.603 108.482 82.149C107.26 82.695 105.882 82.968 104.348 82.968C102.788 82.968 101.371 82.695 100.097 82.149C98.8488 81.577 97.7828 80.823 96.8988 79.887C96.0408 78.951 95.3648 77.872 94.8708 76.65C94.4028 75.402 94.1688 74.115 94.1688 72.789C94.1688 71.437 94.4028 70.15 94.8708 68.928C95.3648 67.68 96.0408 66.588 96.8988 65.652C97.7828 64.716 98.8488 63.975 100.097 63.429C101.371 62.857 102.788 62.571 104.348 62.571C105.882 62.571 107.26 62.857 108.482 63.429C109.73 63.975 110.783 64.716 111.641 65.652C112.525 66.588 113.201 67.68 113.669 68.928C114.137 70.15 114.371 71.437 114.371 72.789ZM110.666 72.789C110.666 70.969 110.471 69.5 110.081 68.382C109.691 67.238 109.184 66.354 108.56 65.73C107.936 65.106 107.247 64.69 106.493 64.482C105.739 64.248 105.011 64.131 104.309 64.131C103.607 64.131 102.879 64.248 102.125 64.482C101.371 64.69 100.669 65.106 100.019 65.73C99.3948 66.354 98.8748 67.238 98.4588 68.382C98.0688 69.5 97.8738 70.969 97.8738 72.789C97.8738 74.583 98.0688 76.052 98.4588 77.196C98.8748 78.314 99.3948 79.185 100.019 79.809C100.669 80.433 101.371 80.862 102.125 81.096C102.879 81.304 103.607 81.408 104.309 81.408C105.011 81.408 105.739 81.304 106.493 81.096C107.247 80.862 107.936 80.433 108.56 79.809C109.184 79.185 109.691 78.314 110.081 77.196C110.471 76.052 110.666 74.583 110.666 72.789ZM129.548 72.906V63H132.863V82.5H129.548V74.232C128.482 74.57 127.416 74.817 126.35 74.973C125.284 75.103 124.322 75.168 123.464 75.168C122.164 75.168 121.163 74.973 120.461 74.583C119.759 74.193 119.239 73.725 118.901 73.179C118.589 72.633 118.407 72.087 118.355 71.541C118.303 70.969 118.277 70.527 118.277 70.215V63H121.592V70.215C121.592 70.475 121.605 70.8 121.631 71.19C121.683 71.554 121.839 71.918 122.099 72.282C122.359 72.62 122.749 72.919 123.269 73.179C123.789 73.413 124.543 73.53 125.531 73.53C125.817 73.53 126.142 73.504 126.506 73.452C126.896 73.4 127.273 73.348 127.637 73.296C128.027 73.218 128.391 73.153 128.729 73.101C129.067 73.023 129.34 72.958 129.548 72.906ZM147.055 77.937H147.211L153.334 63H155.245L145.807 86.205C145.521 86.907 145.222 87.609 144.91 88.311C144.598 89.039 144.234 89.689 143.818 90.261C143.402 90.859 142.921 91.34 142.375 91.704C141.829 92.068 141.192 92.25 140.464 92.25C139.944 92.25 139.385 92.146 138.787 91.938C138.189 91.73 137.643 91.405 137.149 90.963L138.865 87.726C139.099 88.246 139.424 88.636 139.84 88.896C140.282 89.182 140.737 89.325 141.205 89.325C141.699 89.325 142.128 89.143 142.492 88.779C142.882 88.415 143.194 87.934 143.428 87.336L145.495 82.266L136.759 63H140.308L147.055 77.937ZM176.082 73.179V82.5H172.767V63H176.082V71.853H185.949V63H189.264V82.5H185.949V73.179H176.082ZM202.681 62.571C204.579 62.571 206.048 62.844 207.088 63.39C208.128 63.91 208.882 64.599 209.35 65.457C209.844 66.315 210.13 67.303 210.208 68.421C210.286 69.539 210.325 70.683 210.325 71.853V82.5H207.166V80.589C206.412 81.317 205.45 81.902 204.28 82.344C203.11 82.76 201.94 82.968 200.77 82.968C199.652 82.968 198.664 82.773 197.806 82.383C196.948 81.993 196.233 81.486 195.661 80.862C195.089 80.238 194.66 79.536 194.374 78.756C194.088 77.976 193.945 77.183 193.945 76.377C193.945 75.545 194.101 74.713 194.413 73.881C194.725 73.049 195.193 72.308 195.817 71.658C196.441 70.982 197.208 70.436 198.118 70.02C199.028 69.604 200.068 69.396 201.238 69.396C202.408 69.396 203.513 69.63 204.553 70.098C205.619 70.54 206.49 71.177 207.166 72.009V70.332C207.166 68.2 206.841 66.614 206.191 65.574C205.567 64.534 204.41 64.014 202.72 64.014C201.992 64.014 201.355 64.105 200.809 64.287C200.263 64.469 199.769 64.729 199.327 65.067C198.911 65.379 198.521 65.782 198.157 66.276C197.793 66.744 197.429 67.277 197.065 67.875L195.037 65.847C195.401 65.457 195.778 65.067 196.168 64.677C196.584 64.287 197.078 63.936 197.65 63.624C198.248 63.312 198.95 63.065 199.756 62.883C200.562 62.675 201.537 62.571 202.681 62.571ZM207.166 74.778C207.036 74.466 206.841 74.102 206.581 73.686C206.347 73.27 206.035 72.867 205.645 72.477C205.255 72.087 204.787 71.762 204.241 71.502C203.695 71.216 203.045 71.073 202.291 71.073C201.537 71.073 200.848 71.229 200.224 71.541C199.6 71.827 199.067 72.217 198.625 72.711C198.209 73.179 197.884 73.738 197.65 74.388C197.416 75.038 197.299 75.714 197.299 76.416C197.299 77.248 197.442 77.976 197.728 78.6C198.04 79.198 198.43 79.718 198.898 80.16C199.366 80.576 199.886 80.888 200.458 81.096C201.03 81.304 201.576 81.408 202.096 81.408C202.59 81.408 203.084 81.317 203.578 81.135C204.098 80.953 204.579 80.706 205.021 80.394C205.489 80.056 205.905 79.666 206.269 79.224C206.633 78.782 206.932 78.301 207.166 77.781V74.778ZM245.567 55.2V65.457H245.723C246.035 64.599 246.633 63.91 247.517 63.39C248.427 62.844 249.558 62.571 250.91 62.571C252.548 62.571 253.874 62.922 254.888 63.624C255.928 64.3 256.734 65.158 257.306 66.198C257.878 67.212 258.268 68.317 258.476 69.513C258.684 70.709 258.788 71.801 258.788 72.789C258.788 73.777 258.684 74.869 258.476 76.065C258.268 77.235 257.878 78.34 257.306 79.38C256.734 80.394 255.928 81.252 254.888 81.954C253.874 82.63 252.548 82.968 250.91 82.968C249.558 82.968 248.427 82.708 247.517 82.188C246.633 81.642 246.035 80.94 245.723 80.082H245.567V92.25H242.252V80.082H242.096C241.992 80.394 241.81 80.719 241.55 81.057C241.316 81.395 240.991 81.707 240.575 81.993C240.159 82.279 239.639 82.513 239.015 82.695C238.417 82.877 237.702 82.968 236.87 82.968C235.258 82.968 233.932 82.63 232.892 81.954C231.878 81.252 231.085 80.394 230.513 79.38C229.941 78.34 229.551 77.235 229.343 76.065C229.135 74.869 229.031 73.777 229.031 72.789C229.031 71.801 229.135 70.709 229.343 69.513C229.551 68.317 229.941 67.212 230.513 66.198C231.085 65.158 231.878 64.3 232.892 63.624C233.932 62.922 235.258 62.571 236.87 62.571C237.702 62.571 238.417 62.662 239.015 62.844C239.639 63.026 240.159 63.26 240.575 63.546C240.991 63.832 241.316 64.144 241.55 64.482C241.81 64.82 241.992 65.145 242.096 65.457H242.252V55.2H245.567ZM245.567 72.789C245.567 73.517 245.593 74.375 245.645 75.363C245.723 76.351 245.905 77.3 246.191 78.21C246.503 79.094 246.984 79.861 247.634 80.511C248.284 81.135 249.194 81.447 250.364 81.447C250.936 81.447 251.508 81.33 252.08 81.096C252.678 80.836 253.211 80.381 253.679 79.731C254.173 79.081 254.576 78.197 254.888 77.079C255.2 75.961 255.356 74.531 255.356 72.789C255.356 71.047 255.2 69.617 254.888 68.499C254.576 67.355 254.173 66.471 253.679 65.847C253.211 65.197 252.678 64.755 252.08 64.521C251.508 64.261 250.936 64.131 250.364 64.131C249.194 64.131 248.284 64.443 247.634 65.067C246.984 65.691 246.503 66.458 246.191 67.368C245.905 68.252 245.723 69.201 245.645 70.215C245.593 71.203 245.567 72.061 245.567 72.789ZM242.252 72.789C242.252 72.061 242.213 71.203 242.135 70.215C242.083 69.201 241.901 68.252 241.589 67.368C241.303 66.458 240.835 65.691 240.185 65.067C239.535 64.443 238.625 64.131 237.455 64.131C236.987 64.131 236.467 64.235 235.895 64.443C235.323 64.625 234.777 65.028 234.257 65.652C233.763 66.25 233.334 67.121 232.97 68.265C232.632 69.409 232.463 70.917 232.463 72.789C232.463 74.661 232.632 76.169 232.97 77.313C233.334 78.431 233.763 79.302 234.257 79.926C234.777 80.55 235.323 80.966 235.895 81.174C236.467 81.356 236.987 81.447 237.455 81.447C238.625 81.447 239.535 81.135 240.185 80.511C240.835 79.887 241.303 79.133 241.589 78.249C241.901 77.339 242.083 76.39 242.135 75.402C242.213 74.388 242.252 73.517 242.252 72.789ZM281.185 73.608H266.365C266.365 75.194 266.599 76.494 267.067 77.508C267.535 78.522 268.12 79.315 268.822 79.887C269.524 80.459 270.278 80.862 271.084 81.096C271.916 81.304 272.696 81.408 273.424 81.408C274.074 81.408 274.659 81.343 275.179 81.213C275.725 81.057 276.245 80.849 276.739 80.589C277.233 80.329 277.714 80.004 278.182 79.614C278.676 79.224 279.196 78.795 279.742 78.327L280.99 79.575C279.95 80.667 278.728 81.512 277.324 82.11C275.92 82.682 274.386 82.968 272.722 82.968C271.006 82.968 269.511 82.682 268.237 82.11C266.989 81.512 265.949 80.732 265.117 79.77C264.311 78.782 263.7 77.677 263.284 76.455C262.894 75.207 262.699 73.933 262.699 72.633C262.699 71.073 262.933 69.682 263.401 68.46C263.869 67.212 264.519 66.159 265.351 65.301C266.183 64.417 267.158 63.754 268.276 63.312C269.394 62.844 270.616 62.61 271.942 62.61C273.19 62.61 274.373 62.818 275.491 63.234C276.609 63.65 277.584 64.274 278.416 65.106C279.274 65.938 279.95 66.991 280.444 68.265C280.938 69.539 281.185 71.047 281.185 72.789V73.608ZM266.365 72.048H277.792C277.792 69.526 277.272 67.55 276.232 66.12C275.218 64.664 273.788 63.936 271.942 63.936C270.98 63.936 270.148 64.17 269.446 64.638C268.744 65.08 268.159 65.678 267.691 66.432C267.249 67.186 266.911 68.057 266.677 69.045C266.469 70.007 266.365 71.008 266.365 72.048ZM296.053 80.94C297.119 80.94 298.094 80.771 298.978 80.433C299.888 80.069 300.798 79.51 301.708 78.756L302.839 80.238C301.955 80.914 300.863 81.538 299.563 82.11C298.289 82.682 296.794 82.968 295.078 82.968C293.544 82.968 292.166 82.708 290.944 82.188C289.722 81.642 288.669 80.914 287.785 80.004C286.927 79.068 286.264 77.976 285.796 76.728C285.328 75.454 285.094 74.089 285.094 72.633C285.094 71.255 285.302 69.955 285.718 68.733C286.16 67.511 286.81 66.445 287.668 65.535C288.526 64.625 289.579 63.91 290.827 63.39C292.075 62.844 293.518 62.571 295.156 62.571C295.936 62.571 296.742 62.649 297.574 62.805C298.432 62.935 299.225 63.195 299.953 63.585C300.707 63.949 301.37 64.443 301.942 65.067C302.514 65.665 302.93 66.432 303.19 67.368H300.499C300.213 66.458 299.628 65.691 298.744 65.067C297.86 64.443 296.82 64.131 295.624 64.131C294.896 64.131 294.129 64.287 293.323 64.599C292.517 64.885 291.776 65.366 291.1 66.042C290.45 66.692 289.904 67.576 289.462 68.694C289.02 69.786 288.799 71.125 288.799 72.711C288.799 74.245 288.994 75.545 289.384 76.611C289.8 77.651 290.346 78.496 291.022 79.146C291.698 79.77 292.465 80.225 293.323 80.511C294.207 80.797 295.117 80.94 296.053 80.94ZM312.937 82.5V64.56H305.137V63H324.052V64.56H316.252V82.5H312.937ZM331.283 80.199L341.228 63H345.128V82.5H341.813V65.418L331.868 82.5H327.968V63H331.283V80.199ZM351.352 63H359.503C360.907 63 362.025 63.169 362.857 63.507C363.715 63.845 364.365 64.261 364.807 64.755C365.249 65.223 365.535 65.717 365.665 66.237C365.795 66.757 365.86 67.199 365.86 67.563C365.86 68.213 365.73 68.798 365.47 69.318C365.236 69.812 364.911 70.254 364.495 70.644C364.105 71.008 363.65 71.307 363.13 71.541C362.61 71.749 362.09 71.905 361.57 72.009V72.282C362.116 72.308 362.714 72.399 363.364 72.555C364.04 72.711 364.664 72.984 365.236 73.374C365.834 73.738 366.328 74.245 366.718 74.895C367.108 75.545 367.303 76.364 367.303 77.352C367.303 78.002 367.173 78.639 366.913 79.263C366.653 79.861 366.237 80.407 365.665 80.901C365.093 81.369 364.352 81.759 363.442 82.071C362.532 82.357 361.44 82.5 360.166 82.5H351.352V63ZM354.667 80.94H358.723C358.983 80.94 359.386 80.927 359.932 80.901C360.504 80.849 361.063 80.706 361.609 80.472C362.181 80.238 362.675 79.874 363.091 79.38C363.507 78.86 363.715 78.132 363.715 77.196C363.715 76.234 363.494 75.48 363.052 74.934C362.636 74.388 362.129 73.985 361.531 73.725C360.933 73.465 360.309 73.309 359.659 73.257C359.035 73.205 358.515 73.179 358.099 73.179H354.667V80.94ZM354.667 71.853H358.06C358.658 71.853 359.23 71.775 359.776 71.619C360.322 71.437 360.803 71.19 361.219 70.878C361.635 70.54 361.96 70.15 362.194 69.708C362.454 69.24 362.584 68.707 362.584 68.109C362.584 67.797 362.532 67.446 362.428 67.056C362.35 66.64 362.168 66.25 361.882 65.886C361.596 65.522 361.18 65.21 360.634 64.95C360.114 64.69 359.412 64.56 358.528 64.56H354.667V71.853ZM379.552 62.571C381.45 62.571 382.919 62.844 383.959 63.39C384.999 63.91 385.753 64.599 386.221 65.457C386.715 66.315 387.001 67.303 387.079 68.421C387.157 69.539 387.196 70.683 387.196 71.853V82.5H384.037V80.589C383.283 81.317 382.321 81.902 381.151 82.344C379.981 82.76 378.811 82.968 377.641 82.968C376.523 82.968 375.535 82.773 374.677 82.383C373.819 81.993 373.104 81.486 372.532 80.862C371.96 80.238 371.531 79.536 371.245 78.756C370.959 77.976 370.816 77.183 370.816 76.377C370.816 75.545 370.972 74.713 371.284 73.881C371.596 73.049 372.064 72.308 372.688 71.658C373.312 70.982 374.079 70.436 374.989 70.02C375.899 69.604 376.939 69.396 378.109 69.396C379.279 69.396 380.384 69.63 381.424 70.098C382.49 70.54 383.361 71.177 384.037 72.009V70.332C384.037 68.2 383.712 66.614 383.062 65.574C382.438 64.534 381.281 64.014 379.591 64.014C378.863 64.014 378.226 64.105 377.68 64.287C377.134 64.469 376.64 64.729 376.198 65.067C375.782 65.379 375.392 65.782 375.028 66.276C374.664 66.744 374.3 67.277 373.936 67.875L371.908 65.847C372.272 65.457 372.649 65.067 373.039 64.677C373.455 64.287 373.949 63.936 374.521 63.624C375.119 63.312 375.821 63.065 376.627 62.883C377.433 62.675 378.408 62.571 379.552 62.571ZM384.037 74.778C383.907 74.466 383.712 74.102 383.452 73.686C383.218 73.27 382.906 72.867 382.516 72.477C382.126 72.087 381.658 71.762 381.112 71.502C380.566 71.216 379.916 71.073 379.162 71.073C378.408 71.073 377.719 71.229 377.095 71.541C376.471 71.827 375.938 72.217 375.496 72.711C375.08 73.179 374.755 73.738 374.521 74.388C374.287 75.038 374.17 75.714 374.17 76.416C374.17 77.248 374.313 77.976 374.599 78.6C374.911 79.198 375.301 79.718 375.769 80.16C376.237 80.576 376.757 80.888 377.329 81.096C377.901 81.304 378.447 81.408 378.967 81.408C379.461 81.408 379.955 81.317 380.449 81.135C380.969 80.953 381.45 80.706 381.892 80.394C382.36 80.056 382.776 79.666 383.14 79.224C383.504 78.782 383.803 78.301 384.037 77.781V74.778ZM404.63 63L412.547 82.5H409.037L402.797 66.861H402.563L398.078 78.132C397.714 79.068 397.363 79.848 397.025 80.472C396.713 81.07 396.388 81.564 396.05 81.954C395.712 82.318 395.348 82.565 394.958 82.695C394.568 82.851 394.126 82.929 393.632 82.929C392.54 82.929 391.695 82.643 391.097 82.071L391.721 80.004C391.955 80.212 392.267 80.42 392.657 80.628C393.047 80.836 393.424 80.94 393.788 80.94C394.1 80.94 394.386 80.836 394.646 80.628C394.932 80.394 395.179 80.108 395.387 79.77C395.595 79.432 395.777 79.081 395.933 78.717C396.089 78.327 396.232 77.989 396.362 77.703L402.29 63H404.63ZM416.441 63H419.756V71.853H424.436C425.06 71.853 425.827 71.892 426.737 71.97C427.647 72.048 428.518 72.269 429.35 72.633C430.182 72.971 430.884 73.504 431.456 74.232C432.054 74.96 432.353 75.987 432.353 77.313C432.353 78.119 432.184 78.847 431.846 79.497C431.534 80.121 431.118 80.667 430.598 81.135C430.078 81.577 429.467 81.915 428.765 82.149C428.089 82.383 427.4 82.5 426.698 82.5H416.441V63ZM419.756 80.94H424.943C425.957 80.94 426.841 80.654 427.595 80.082C428.375 79.484 428.765 78.574 428.765 77.352C428.765 76.338 428.57 75.558 428.18 75.012C427.79 74.44 427.335 74.024 426.815 73.764C426.321 73.478 425.827 73.309 425.333 73.257C424.839 73.205 424.475 73.179 424.241 73.179H419.756V80.94Z" fill="white"/>
<defs>
<filter id="filter0_f_159_20" x="0.0999985" y="0.599998" width="511.8" height="139.98" filterUnits="userSpaceOnUse" color-interpolation-filters="sRGB">
<feFlood flood-opacity="0" result="BackgroundImageFix"/>
<feBlend mode="normal" in="SourceGraphic" in2="BackgroundImageFix" result="shape"/>
<feGaussianBlur stdDeviation="9.45" result="effect1_foregroundBlur_159_20"/>
</filter>
<filter id="filter1_f_159_20" x="17.7586" y="18.1981" width="476.491" height="103.707" filterUnits="userSpaceOnUse" color-interpolation-filters="sRGB">
<feFlood flood-opacity="0" result="BackgroundImageFix"/>
<feBlend mode="normal" in="SourceGraphic" in2="BackgroundImageFix" result="shape"/>
<feGaussianBlur stdDeviation="1.32773" result="effect1_foregroundBlur_159_20"/>
</filter>
</defs>
</svg>
