<svg width="249" height="231" viewBox="0 0 249 231" fill="none" xmlns="http://www.w3.org/2000/svg">
<g filter="url(#filter0_f_283_108)">
<path d="M104.745 56.0698V56.0698C94.8592 59.5378 85.2328 63.7049 75.9388 68.5395L70.926 71.1471L48.655 85.6762L30.9207 99.1087L29.5731 100.357C21.411 107.92 13.8629 116.119 7 124.877V124.877C7.23602 125.205 7.48552 125.54 7.74658 125.879C15.1917 135.557 25.5763 142.433 35.8698 149.001V149.001M104.745 56.0698L119.386 51.1354M104.745 56.0698V56.0698C106.47 54.6584 107.609 52.656 107.941 50.4518L108.113 49.3105C108.204 48.7005 108.343 48.0984 108.528 47.5098L109.166 45.4719C109.927 43.0464 111.03 40.7421 112.443 38.6291V38.6291C113.221 37.4652 114.09 36.3644 115.041 35.337L115.262 35.0986M35.8698 149.001L30.9207 164.626L24.7343 181.349L23.9911 184.266C21.6089 193.615 20.4038 203.226 20.4038 212.874V212.874H24.7685C28.8473 212.874 32.9036 212.268 36.8046 211.077V211.077C42.9691 209.194 48.6061 205.892 53.2625 201.435L54.0315 200.699C55.6689 199.132 57.1875 197.445 58.5745 195.652L60.2029 193.547M35.8698 149.001L44.7369 136.391L53.6041 124.877L63.9147 111.719L76.2875 99.1087L89.8975 87.8692L102.683 77.7263L119.386 67.0351M70.926 159.418L69.6408 169.839C69.1249 174.023 68.0846 178.125 66.5445 182.05L66.1307 183.104C64.6609 186.849 62.6649 190.366 60.2029 193.547V193.547M60.2029 193.547L64.7203 191.931C70.5766 189.835 75.916 186.509 80.3793 182.176V182.176C84.4849 178.191 87.7651 173.436 90.0325 168.183L90.806 166.391C92.8023 161.766 94.1336 156.881 94.7603 151.882L96.7025 136.391M96.7025 136.391V124.877M96.7025 136.391L104.745 128.715M104.745 128.715L112.375 118.846M104.745 128.715L105.412 130.711C106.066 132.667 106.877 134.566 107.838 136.391V136.391M112.375 118.846L116.499 111.719M112.375 118.846L113.531 119.674C114.546 120.4 115.615 121.048 116.728 121.612L117.147 121.825C118.634 122.578 120.207 123.148 121.831 123.523L122.392 123.653C123.546 123.92 124.727 124.055 125.912 124.055H126.787C128.566 124.055 130.322 123.653 131.924 122.878V122.878C133.313 122.207 134.556 121.27 135.584 120.121L136.724 118.846M116.499 111.719L119.386 103.221L122.273 94.1743M116.499 111.719L119.386 113.089L121.178 113.751C122.448 114.22 123.791 114.46 125.144 114.46V114.46C126.652 114.46 128.145 114.162 129.537 113.584L130.728 113.089L133.202 111.719M107.838 136.391V136.391C106.88 140.031 106.395 143.779 106.395 147.543V147.63M107.838 136.391L109.065 138.763C109.755 140.098 110.648 141.317 111.712 142.378V142.378C112.834 143.496 114.131 144.423 115.552 145.123L116.562 145.62C118.161 146.408 119.868 146.951 121.628 147.231V147.231C123.287 147.496 124.975 147.525 126.642 147.317L126.976 147.275C129.449 146.967 131.83 146.142 133.964 144.852V144.852C134.829 144.329 135.648 143.733 136.412 143.071L140.007 139.954M106.395 147.63V147.63C106.395 150.724 106.799 153.804 107.596 156.793L108.663 160.789M106.395 147.63L108.529 150.645C109.302 151.737 110.22 152.718 111.259 153.562V153.562C112.678 154.714 114.299 155.593 116.039 156.151L117.304 156.557C118.689 157.001 120.117 157.306 121.562 157.466V157.466C125.007 157.848 128.499 157.405 131.739 156.175L132.975 155.705C133.675 155.439 134.355 155.122 135.008 154.754L136.257 154.051C138.29 152.909 139.895 151.136 140.832 149.001V149.001M108.663 160.789L108.113 165.176C107.93 166.63 107.949 168.103 108.167 169.552V169.552C108.494 171.728 109.266 173.813 110.435 175.677L110.725 176.14M108.663 160.789L113.406 163.804L116.159 165.198C117.209 165.73 118.302 166.168 119.428 166.508L120.204 166.743C121.576 167.157 123.001 167.368 124.434 167.368V167.368C126.41 167.368 128.365 166.968 130.181 166.191L131.029 165.829C132.472 165.212 133.834 164.42 135.084 163.471L137.533 161.611M110.725 176.14V176.14C110.039 179.787 109.694 183.49 109.694 187.201V188.75L110.725 196.152L111.761 201.318C112.17 203.353 112.742 205.352 113.473 207.295L113.955 208.576C114.686 210.521 115.641 212.374 116.802 214.097L118.296 216.317C118.472 216.579 118.679 216.82 118.911 217.034V217.034C120.279 218.293 122.331 218.455 123.88 217.425L124.204 217.21C124.699 216.881 125.124 216.458 125.456 215.965L128.459 211.503V211.503C130.649 207.5 132.305 203.227 133.384 198.793L134.027 196.152L135.264 188.75L135.393 187.437C135.715 184.157 135.247 180.847 134.027 177.785V177.785M110.725 176.14L113.438 178.201C114.514 179.018 115.662 179.737 116.868 180.347L118.097 180.97C118.953 181.403 119.86 181.728 120.796 181.935V181.935C122.315 182.272 123.886 182.295 125.414 182.005L125.461 181.996C126.763 181.749 128.014 181.282 129.159 180.616L134.027 177.785M134.027 177.785L135.685 175.141C136.635 173.625 137.321 171.959 137.715 170.214V170.214C138.14 168.332 138.217 166.389 137.944 164.48L137.533 161.611M137.533 161.611L138.695 159.551C139.555 158.026 140.007 156.305 140.007 154.554V154.554C140.007 153.96 140.059 153.367 140.163 152.782L140.832 149.001M140.832 149.001V148.26C140.832 145.471 140.556 142.689 140.007 139.954V139.954M140.007 139.954L141.863 133.649L143.1 130.086M143.1 130.086L139.389 124.055L136.724 118.846M143.1 130.086L146.194 133.649L152.174 139.543M133.202 111.719L135.883 117.201L136.724 118.846M133.202 111.719L130.728 104.591L129.49 99.1087L128.459 94.1743M180.219 196.152L178.949 195.691C173.804 193.826 169.108 190.901 165.165 187.105V187.105L164.166 185.898C161.817 183.059 159.835 179.935 158.267 176.601V176.601C157.095 174.106 156.16 171.506 155.475 168.836L154.763 166.06C153.863 162.55 153.221 158.98 152.843 155.377L152.174 149.001V139.543M180.219 196.152L176.507 184.09V184.09C175.274 178.807 174.651 173.401 174.651 167.976V165.997M180.219 196.152L184.343 201.909L184.893 202.859C187.264 206.956 190.203 210.697 193.623 213.97V213.97L198.269 217.422C199.842 218.591 201.522 219.608 203.286 220.461V220.461C207.512 222.504 212.145 223.565 216.839 223.565H221.255V223.565C222.077 217.19 222.161 210.741 221.505 204.347L221.255 201.909L220.018 192.862L217.131 181.623L213.831 171.206L209.707 158.047M209.707 158.047L201.871 144.066L190.323 126.522L181.456 114.46L170.114 101.028L160.628 91.433L143.1 74.4367L133.202 67.0351M209.707 158.047C218.542 155.95 232.984 145.998 239.94 140.657C240.541 140.195 241.011 139.596 241.329 138.909V138.909C242.05 137.351 241.882 135.527 240.889 134.128L233.681 123.971C232.686 122.568 231.555 121.267 230.305 120.085L212.883 103.613C200.076 91.5037 186.069 80.7306 171.079 71.4601L147.676 56.9868C146.691 56.3774 145.64 55.8806 144.544 55.5059V55.5059M131.759 51.1354L144.544 55.5059M138.976 35.784L137.474 34.3414C136.009 32.9354 134.34 31.7595 132.523 30.8538L131.575 30.3813C130.738 29.964 129.854 29.6507 128.94 29.4484V29.4484C126.615 28.9333 124.159 29.167 121.966 30.0947V30.0947C121.217 30.4116 120.493 30.8106 119.827 31.277L118.885 31.9362C117.573 32.8539 116.349 33.9239 115.262 35.0986V35.0986M138.976 35.784V35.784C140.621 38.5171 141.961 41.4223 142.972 44.4475L143.1 44.8303V44.8303C144.058 48.1032 144.544 51.4959 144.544 54.9059V55.5059M138.976 35.784L151.968 9.74133M115.262 35.0986L103.92 7M152.174 124.877V130.086V139.543" stroke="#FF6200" stroke-width="2.68359"/>
</g>
<g filter="url(#filter1_f_283_108)">
<path d="M104.745 57.5053V57.5053C94.8592 60.9733 85.2328 65.1404 75.9388 69.9751L70.926 72.5827L48.655 87.1117L30.9207 100.544L29.5731 101.793C21.411 109.355 13.8629 117.554 7 126.313V126.313C7.23602 126.641 7.48552 126.975 7.74658 127.315C15.1917 136.993 25.5763 143.868 35.8698 150.436V150.436M104.745 57.5053L119.386 52.571M104.745 57.5053V57.5053C106.47 56.0939 107.609 54.0916 107.941 51.8873L108.113 50.746C108.204 50.136 108.343 49.534 108.528 48.9453L109.166 46.9074C109.927 44.4819 111.03 42.1776 112.443 40.0646V40.0646C113.221 38.9007 114.09 37.7999 115.041 36.7725L115.262 36.5342M35.8698 150.436L30.9207 166.062L24.7343 182.784L23.9911 185.701C21.6089 195.051 20.4038 204.661 20.4038 214.309V214.309H24.7685C28.8473 214.309 32.9036 213.704 36.8046 212.512V212.512C42.9691 210.63 48.6061 207.327 53.2625 202.871L54.0315 202.134C55.6689 200.567 57.1875 198.88 58.5745 197.088L60.2029 194.983M35.8698 150.436L44.7369 137.826L53.6041 126.313L63.9147 113.154L76.2875 100.544L89.8975 89.3048L102.683 79.1619L119.386 68.4707M70.926 160.853L69.6408 171.275C69.1249 175.459 68.0846 179.561 66.5445 183.485L66.1307 184.539C64.6609 188.284 62.6649 191.801 60.2029 194.983V194.983M60.2029 194.983L64.7203 193.366C70.5766 191.27 75.916 187.944 80.3793 183.612V183.612C84.4849 179.627 87.7651 174.872 90.0325 169.618L90.806 167.826C92.8023 163.201 94.1336 158.316 94.7603 153.318L96.7025 137.826M96.7025 137.826V126.313M96.7025 137.826L104.745 130.151M104.745 130.151L112.375 120.282M104.745 130.151L105.412 132.147C106.066 134.102 106.877 136.002 107.838 137.826V137.826M112.375 120.282L116.499 113.154M112.375 120.282L113.531 121.109C114.546 121.836 115.615 122.484 116.728 123.048L117.147 123.26C118.634 124.013 120.207 124.584 121.831 124.959L122.392 125.089C123.546 125.356 124.727 125.49 125.912 125.49H126.787C128.566 125.49 130.322 125.088 131.924 124.314V124.314C133.313 123.643 134.556 122.706 135.584 121.556L136.724 120.282M116.499 113.154L119.386 104.656L122.273 95.6098M116.499 113.154L119.386 114.525L121.178 115.187C122.448 115.656 123.791 115.896 125.144 115.896V115.896C126.652 115.896 128.145 115.598 129.537 115.019L130.728 114.525L133.202 113.154M107.838 137.826V137.826C106.88 141.466 106.395 145.214 106.395 148.978V149.066M107.838 137.826L109.065 140.199C109.755 141.533 110.648 142.752 111.712 143.813V143.813C112.834 144.932 114.131 145.859 115.552 146.559L116.562 147.056C118.161 147.843 119.868 148.386 121.628 148.667V148.667C123.287 148.931 124.975 148.96 126.642 148.753L126.976 148.711C129.449 148.403 131.83 147.577 133.964 146.288V146.288C134.829 145.765 135.648 145.169 136.412 144.507L140.007 141.39M106.395 149.066V149.066C106.395 152.159 106.799 155.24 107.596 158.229L108.663 162.224M106.395 149.066L108.529 152.08C109.302 153.172 110.22 154.154 111.259 154.997V154.997C112.678 156.15 114.299 157.028 116.039 157.587L117.304 157.992C118.689 158.437 120.117 158.741 121.562 158.901V158.901C125.007 159.283 128.499 158.841 131.739 157.61L132.975 157.141C133.675 156.875 134.355 156.557 135.008 156.19L136.257 155.487C138.29 154.344 139.895 152.571 140.832 150.436V150.436M108.663 162.224L108.113 166.612C107.93 168.066 107.949 169.538 108.167 170.987V170.987C108.494 173.163 109.266 175.248 110.435 177.112L110.725 177.576M108.663 162.224L113.406 165.24L116.159 166.634C117.209 167.165 118.302 167.604 119.428 167.944L120.204 168.178C121.576 168.593 123.001 168.803 124.434 168.803V168.803C126.41 168.803 128.365 168.403 130.181 167.627L131.029 167.265C132.472 166.648 133.834 165.856 135.084 164.907L137.533 163.047M110.725 177.576V177.576C110.039 181.223 109.694 184.926 109.694 188.637V190.186L110.725 197.587L111.761 202.753C112.17 204.789 112.742 206.788 113.473 208.731L113.955 210.012C114.686 211.956 115.641 213.809 116.802 215.533L118.296 217.753C118.472 218.015 118.679 218.255 118.911 218.469V218.469C120.279 219.729 122.331 219.89 123.88 218.861L124.204 218.645C124.699 218.316 125.124 217.894 125.456 217.401L128.459 212.939V212.939C130.649 208.935 132.305 204.662 133.384 200.228L134.027 197.587L135.264 190.186L135.393 188.873C135.715 185.592 135.247 182.283 134.027 179.22V179.22M110.725 177.576L113.438 179.637C114.514 180.454 115.662 181.172 116.868 181.783L118.097 182.406C118.953 182.839 119.86 183.163 120.796 183.371V183.371C122.315 183.707 123.886 183.731 125.414 183.441L125.461 183.432C126.763 183.185 128.014 182.718 129.159 182.052L134.027 179.22M134.027 179.22L135.685 176.576C136.635 175.06 137.321 173.395 137.715 171.649V171.649C138.14 169.768 138.217 167.825 137.944 165.915L137.533 163.047M137.533 163.047L138.695 160.986C139.555 159.462 140.007 157.74 140.007 155.99V155.99C140.007 155.395 140.059 154.802 140.163 154.217L140.832 150.436M140.832 150.436V149.696C140.832 146.907 140.556 144.125 140.007 141.39V141.39M140.007 141.39L141.863 135.085L143.1 131.521M143.1 131.521L139.389 125.49L136.724 120.282M143.1 131.521L146.194 135.085L152.174 140.979M133.202 113.154L135.883 118.637L136.724 120.282M133.202 113.154L130.728 106.027L129.49 100.544L128.459 95.6098M180.219 197.587L178.949 197.127C173.804 195.262 169.108 192.336 165.165 188.541V188.541L164.166 187.334C161.817 184.495 159.835 181.371 158.267 178.036V178.036C157.095 175.542 156.16 172.942 155.475 170.272L154.763 167.495C153.863 163.986 153.221 160.415 152.843 156.812L152.174 150.436V140.979M180.219 197.587L176.507 185.525V185.525C175.274 180.243 174.651 174.836 174.651 169.412V167.433M180.219 197.587L184.343 203.344L184.893 204.295C187.264 208.392 190.203 212.133 193.623 215.406V215.406L198.269 218.858C199.842 220.026 201.522 221.044 203.286 221.897V221.897C207.512 223.939 212.145 225.001 216.839 225.001H221.255V225.001C222.077 218.625 222.161 212.177 221.505 205.782L221.255 203.344L220.018 194.298L217.131 183.058L213.831 172.641L209.707 159.483M209.707 159.483L201.871 145.502L190.323 127.958L181.456 115.896L170.114 102.463L160.628 92.8685L143.1 75.8723L133.202 68.4707M209.707 159.483C218.542 157.386 232.984 147.433 239.94 142.092C240.541 141.631 241.011 141.032 241.329 140.344V140.344C242.05 138.787 241.882 136.963 240.889 135.564L233.681 125.406C232.686 124.004 231.555 122.702 230.305 121.521L212.883 105.048C200.076 92.9392 186.069 82.1662 171.079 72.8957L147.676 58.4224C146.691 57.8129 145.64 57.3162 144.544 56.9414V56.9414M131.759 52.571L144.544 56.9414M138.976 37.2195L137.474 35.7769C136.009 34.3709 134.34 33.1951 132.523 32.2894L131.575 31.8168C130.738 31.3996 129.854 31.0863 128.94 30.884V30.884C126.615 30.3688 124.159 30.6025 121.966 31.5302V31.5302C121.217 31.8472 120.493 32.2461 119.827 32.7125L118.885 33.3717C117.573 34.2895 116.349 35.3594 115.262 36.5342V36.5342M138.976 37.2195V37.2195C140.621 39.9526 141.961 42.8578 142.972 45.883L143.1 46.2659V46.2659C144.058 49.5388 144.544 52.9314 144.544 56.3415V56.9414M138.976 37.2195L151.968 11.1769M115.262 36.5342L103.92 8.43555M152.174 126.313V131.521V140.979" stroke="white" stroke-width="1.404"/>
</g>
<defs>
<filter id="filter0_f_283_108" x="0.294166" y="0.882056" width="248.435" height="229.641" filterUnits="userSpaceOnUse" color-interpolation-filters="sRGB">
<feFlood flood-opacity="0" result="BackgroundImageFix"/>
<feBlend mode="normal" in="SourceGraphic" in2="BackgroundImageFix" result="shape"/>
<feGaussianBlur stdDeviation="2.808" result="effect1_foregroundBlur_283_108"/>
</filter>
<filter id="filter1_f_283_108" x="5.02569" y="6.76885" width="238.853" height="220.337" filterUnits="userSpaceOnUse" color-interpolation-filters="sRGB">
<feFlood flood-opacity="0" result="BackgroundImageFix"/>
<feBlend mode="normal" in="SourceGraphic" in2="BackgroundImageFix" result="shape"/>
<feGaussianBlur stdDeviation="0.701999" result="effect1_foregroundBlur_283_108"/>
</filter>
</defs>
</svg>
