<svg width="287" height="311" viewBox="0 0 287 311" fill="none" xmlns="http://www.w3.org/2000/svg">
<g filter="url(#filter0_f_239_3)">
<path d="M85.2232 188.672L73.5659 189.673C71.2685 189.871 68.9542 189.66 66.7302 189.051V189.051C62.801 187.975 59.3062 185.698 56.7342 182.539L52.5425 177.39L46.5155 168.201C44.4368 165.032 40.9969 163.016 37.2162 162.752V162.752C33.7536 162.509 30.3529 163.761 27.8742 166.191L26.487 167.551C25.0616 168.948 23.9024 170.593 23.0659 172.405L22.083 174.535C21.0369 176.801 20.2853 179.193 19.8467 181.65L18.544 188.949C17.9186 192.453 18.0085 196.047 18.8083 199.515V199.515C19.6496 203.163 21.2574 206.59 23.5249 209.568L29.8068 217.821L42.0263 232.831L47.2659 238.859C50.8508 242.984 54.9964 246.586 59.5814 249.559L63.4774 252.086C65.9426 253.685 68.6398 254.893 71.4738 255.669V255.669C76.7122 257.104 82.2511 257.015 87.4408 255.413L88.8383 254.981M85.2232 188.672L103.385 181.981L115.82 179.165L131.02 174.774M85.2232 188.672L84.7574 189.439C83.1867 192.027 81.9842 194.82 81.1848 197.74V197.74C80.6686 199.625 80.3231 201.552 80.1525 203.499L79.6768 208.926L79.4699 218.201L79.6591 226.029V226.029C80.0488 230.277 80.7533 234.491 81.7666 238.635L82.0786 239.911V239.911C83.7794 245.031 85.9818 249.97 88.6537 254.657L88.8383 254.981M131.02 174.774L134.376 171.636C137.702 168.526 140.66 165.042 143.19 161.256V161.256C145.04 158.487 147.12 155.878 149.408 153.458L154.728 147.829L155.058 147.565C160.104 143.529 165.864 140.478 172.038 138.572V138.572M131.02 174.774L130.974 175.908C130.735 181.796 131.196 187.693 132.346 193.473V193.473C133.37 198.623 134.936 203.651 137.017 208.473L137.693 210.039L144.849 223.662L151.35 233.996L152.272 235.318C156.119 240.837 160.356 246.074 164.951 250.988L165.869 251.969L171.914 258.29M172.038 138.572V138.572C172.307 131.928 173.33 125.336 175.086 118.923L175.81 116.276L177.471 110.212C178.467 106.577 180.19 103.182 182.536 100.233V100.233C184.883 97.2845 186.606 93.8897 187.602 90.2549L187.678 89.977M172.038 138.572V138.572C177.279 140.007 182.142 142.573 186.284 146.09L189.459 148.786L197.803 158.069L207.198 169.196L214.621 179.004L221.123 189.338L229.398 201.713M253.004 146.746L249.603 127.93L249.523 126.461C249.146 119.556 249.278 112.632 249.918 105.746L250.155 103.197V103.197C250.206 95.4825 249.056 87.8066 246.747 80.4455L246.495 79.6446L245.967 78.4452C242.189 69.8711 237.019 61.9805 230.668 55.0925V55.0925L222.664 47.9163C220.511 45.9863 218.207 44.2327 215.774 42.6722L213.582 41.2667C210.443 39.2542 207.017 37.7296 203.421 36.7448L202.299 36.4375C199.447 35.6565 196.493 35.3127 193.537 35.418L189.239 35.5711C186.748 35.6598 184.328 36.425 182.238 37.7847L181.465 38.2874C179.144 39.7979 177.458 42.1078 176.726 44.779V44.779C176.174 46.7973 176.192 48.9295 176.779 50.9381L177.974 55.0268C178.716 57.5641 179.835 59.9755 181.294 62.1799L184.182 66.5432C186.622 70.2293 188.154 74.4407 188.653 78.8328V78.8328C189.056 82.3718 188.779 85.955 187.838 89.3904L187.678 89.977M253.004 146.746L253.953 149.994C255.447 155.104 255.913 160.459 255.325 165.75V165.75C254.859 169.939 253.739 174.03 252.005 177.872L250.779 180.59C249.391 183.667 247.634 186.565 245.549 189.22V189.22C241.339 194.58 235.882 198.83 229.655 201.599L229.398 201.713M253.004 146.746L252.899 146.353C251.185 139.93 248.651 133.756 245.359 127.982L244.431 126.353C241.713 121.586 238.385 117.194 234.531 113.288V113.288C230.708 109.413 226.399 106.049 221.712 103.281L219.992 102.265C216.036 99.928 211.882 97.9434 207.579 96.3337L198.528 92.9483L187.678 89.977M229.398 201.713L230.113 210.463V210.463C229.85 216.941 227.428 223.146 223.232 228.089L221.673 229.925L210.675 241.688L199.549 251.083L189.938 257.783V257.783C184.686 261.155 178.031 261.462 172.49 258.589L171.914 258.29M171.914 258.29L167.772 267.045C166.844 269.005 165.717 270.865 164.409 272.594V272.594C160.914 277.212 156.216 280.781 150.829 282.909L149.897 283.277C146.725 284.53 143.388 285.315 139.991 285.606L138.296 285.752C132.798 286.224 127.259 285.72 121.937 284.263L120.956 283.994C116.395 282.745 112.065 280.769 108.133 278.142V278.142C102.947 274.677 98.5574 270.149 95.2546 264.859L93.2387 261.629L88.8383 254.981" stroke="#C16F4A" stroke-width="14"/>
</g>
<path d="M85.7232 188.672L74.0659 189.673C71.7685 189.871 69.4542 189.66 67.2302 189.051V189.051C63.301 187.975 59.8062 185.698 57.2342 182.539L53.0425 177.39L47.0155 168.201C44.9368 165.032 41.4969 163.016 37.7162 162.752V162.752C34.2536 162.509 30.8529 163.761 28.3742 166.191L26.987 167.551C25.5616 168.948 24.4024 170.593 23.5659 172.405L22.583 174.535C21.5369 176.801 20.7853 179.193 20.3467 181.65L19.044 188.949C18.4186 192.453 18.5085 196.047 19.3083 199.515V199.515C20.1496 203.163 21.7574 206.59 24.0249 209.568L30.3068 217.821L42.5263 232.831L47.7659 238.859C51.3508 242.984 55.4964 246.586 60.0814 249.559L63.9774 252.086C66.4426 253.685 69.1398 254.893 71.9738 255.669V255.669C77.2122 257.104 82.7511 257.015 87.9408 255.413L89.3383 254.981M85.7232 188.672L103.885 181.981L116.32 179.165L131.52 174.774M85.7232 188.672L85.2574 189.439C83.6867 192.027 82.4842 194.82 81.6848 197.74V197.74C81.1686 199.625 80.8231 201.552 80.6525 203.499L80.1768 208.926L79.9699 218.201L80.1591 226.029V226.029C80.5488 230.277 81.2533 234.491 82.2666 238.635L82.5786 239.911V239.911C84.2794 245.031 86.4818 249.97 89.1537 254.657L89.3383 254.981M131.52 174.774L134.876 171.636C138.202 168.526 141.16 165.042 143.69 161.256V161.256C145.54 158.487 147.62 155.878 149.908 153.458L155.228 147.829L155.558 147.565C160.604 143.529 166.364 140.478 172.538 138.572V138.572M131.52 174.774L131.474 175.908C131.235 181.796 131.696 187.693 132.846 193.473V193.473C133.87 198.623 135.436 203.651 137.517 208.473L138.193 210.039L145.349 223.662L151.85 233.996L152.772 235.318C156.619 240.837 160.856 246.074 165.451 250.988L166.369 251.969L172.414 258.29M172.538 138.572V138.572C172.807 131.928 173.83 125.336 175.586 118.923L176.31 116.276L177.971 110.212C178.967 106.577 180.69 103.182 183.036 100.233V100.233C185.383 97.2845 187.106 93.8897 188.102 90.2549L188.178 89.977M172.538 138.572V138.572C177.779 140.007 182.642 142.573 186.784 146.09L189.959 148.786L198.303 158.069L207.698 169.196L215.121 179.004L221.623 189.338L229.898 201.713M253.504 146.746L250.103 127.93L250.023 126.461C249.646 119.556 249.778 112.632 250.418 105.746L250.655 103.197V103.197C250.706 95.4825 249.556 87.8066 247.247 80.4455L246.995 79.6446L246.467 78.4452C242.689 69.8711 237.519 61.9805 231.168 55.0925V55.0925L223.164 47.9163C221.011 45.9863 218.707 44.2327 216.274 42.6722L214.082 41.2667C210.943 39.2542 207.517 37.7296 203.921 36.7448L202.799 36.4375C199.947 35.6565 196.993 35.3127 194.037 35.418L189.739 35.5711C187.248 35.6598 184.828 36.425 182.738 37.7847L181.965 38.2874C179.644 39.7979 177.958 42.1078 177.226 44.779V44.779C176.674 46.7973 176.692 48.9295 177.279 50.9381L178.474 55.0268C179.216 57.5641 180.335 59.9755 181.794 62.1799L184.682 66.5432C187.122 70.2293 188.654 74.4407 189.153 78.8328V78.8328C189.556 82.3718 189.279 85.955 188.338 89.3904L188.178 89.977M253.504 146.746L254.453 149.994C255.947 155.104 256.413 160.459 255.825 165.75V165.75C255.359 169.939 254.239 174.03 252.505 177.872L251.279 180.59C249.891 183.667 248.134 186.565 246.049 189.22V189.22C241.839 194.58 236.382 198.83 230.155 201.599L229.898 201.713M253.504 146.746L253.399 146.353C251.685 139.93 249.151 133.756 245.859 127.982L244.931 126.353C242.213 121.586 238.885 117.194 235.031 113.288V113.288C231.208 109.413 226.899 106.049 222.212 103.281L220.492 102.265C216.536 99.928 212.382 97.9434 208.079 96.3337L199.028 92.9483L188.178 89.977M229.898 201.713L230.613 210.463V210.463C230.35 216.941 227.928 223.146 223.732 228.089L222.173 229.925L211.175 241.688L200.049 251.083L190.438 257.783V257.783C185.186 261.155 178.531 261.462 172.99 258.589L172.414 258.29M172.414 258.29L168.272 267.045C167.344 269.005 166.217 270.865 164.909 272.594V272.594C161.414 277.212 156.716 280.781 151.329 282.909L150.397 283.277C147.225 284.53 143.888 285.315 140.491 285.606L138.796 285.752C133.298 286.224 127.759 285.72 122.437 284.263L121.456 283.994C116.895 282.745 112.565 280.769 108.633 278.142V278.142C103.447 274.677 99.0574 270.149 95.7546 264.859L93.7387 261.629L89.3383 254.981" stroke="white" stroke-width="2"/>
<defs>
<filter id="filter0_f_239_3" x="6.23281" y="23.4994" width="261.239" height="274.324" filterUnits="userSpaceOnUse" color-interpolation-filters="sRGB">
<feFlood flood-opacity="0" result="BackgroundImageFix"/>
<feBlend mode="normal" in="SourceGraphic" in2="BackgroundImageFix" result="shape"/>
<feGaussianBlur stdDeviation="2.45" result="effect1_foregroundBlur_239_3"/>
</filter>
</defs>
</svg>
