<svg width="1204" height="1195" viewBox="0 0 1204 1195" fill="none" xmlns="http://www.w3.org/2000/svg">
<g filter="url(#filter0_f_217_5144)">
<ellipse cx="602" cy="597.5" rx="151.5" ry="147" fill="#FF6F00"/>
</g>
<g filter="url(#filter1_f_217_5144)">
<path d="M561.061 487.39V487.39C543.053 493.708 525.516 501.299 508.585 510.106L499.454 514.856L458.883 541.324L426.576 565.794L424.121 568.068C409.252 581.845 395.502 596.781 383 612.736V612.736C383.43 613.334 383.884 613.943 384.36 614.561C397.923 632.192 416.84 644.717 435.592 656.682V656.682M561.061 487.39L587.733 478.401M561.061 487.39V487.39C564.204 484.819 566.279 481.171 566.884 477.156L567.196 475.077C567.363 473.966 567.616 472.869 567.952 471.796L569.116 468.084C570.501 463.665 572.511 459.468 575.085 455.618V455.618C576.502 453.498 578.085 451.493 579.818 449.621L580.22 449.187M435.592 656.682L426.576 685.147L415.306 715.61L413.953 720.924C409.613 737.956 407.418 755.463 407.418 773.039V773.039H415.369C422.799 773.039 430.188 771.936 437.295 769.766V769.766C448.525 766.336 458.794 760.32 467.276 752.201L468.677 750.86C471.66 748.005 474.426 744.932 476.953 741.667L479.919 737.833M435.592 656.682L451.745 633.71L467.898 612.736L486.681 588.766L509.221 565.794L534.014 545.319L557.305 526.842L587.733 507.366M499.454 675.659L497.112 694.644C496.173 702.265 494.278 709.738 491.472 716.887L490.718 718.807C488.041 725.63 484.404 732.036 479.919 737.833V737.833M479.919 737.833L488.149 734.887C498.817 731.069 508.544 725.01 516.675 717.118V717.118C524.154 709.858 530.129 701.196 534.26 691.626L535.669 688.361C539.306 679.936 541.731 671.037 542.873 661.931L546.411 633.71M546.411 633.71V612.736M546.411 633.71L561.061 619.728M561.061 619.728L574.961 601.75M561.061 619.728L562.277 623.364C563.468 626.927 564.946 630.387 566.696 633.71V633.71M574.961 601.75L582.474 588.766M574.961 601.75L577.067 603.257C578.916 604.581 580.863 605.761 582.891 606.789L583.655 607.175C586.364 608.547 589.228 609.586 592.187 610.27L593.209 610.507C595.311 610.993 597.463 611.238 599.621 611.238H601.216C604.457 611.238 607.656 610.505 610.574 609.095V609.095C613.103 607.872 615.368 606.166 617.241 604.072L619.318 601.75M582.474 588.766L587.733 573.285L592.992 556.805M582.474 588.766L587.733 591.263L590.997 592.468C593.311 593.322 595.757 593.76 598.223 593.76V593.76C600.97 593.76 603.689 593.217 606.226 592.163L608.394 591.263L612.902 588.766M566.696 633.71V633.71C564.95 640.341 564.067 647.17 564.067 654.026V654.185M566.696 633.71L568.931 638.032C570.188 640.463 571.815 642.684 573.753 644.617V644.617C575.796 646.654 578.159 648.344 580.748 649.618L582.588 650.524C585.501 651.958 588.612 652.947 591.818 653.459V653.459C594.839 653.941 597.914 653.993 600.951 653.615L601.559 653.539C606.065 652.977 610.403 651.473 614.289 649.125V649.125C615.866 648.172 617.358 647.087 618.75 645.88L625.299 640.203M564.067 654.185V654.185C564.067 659.821 564.803 665.432 566.256 670.877L568.199 678.156M564.067 654.185L567.955 659.677C569.363 661.666 571.036 663.454 572.928 664.991V664.991C575.513 667.091 578.466 668.69 581.637 669.708L583.94 670.447C586.462 671.256 589.064 671.811 591.697 672.103V672.103C597.972 672.798 604.335 671.993 610.237 669.751L612.488 668.896C613.764 668.411 615.002 667.832 616.191 667.163L618.468 665.883C622.17 663.801 625.095 660.572 626.801 656.682V656.682M568.199 678.156L567.197 686.149C566.865 688.798 566.898 691.48 567.295 694.12V694.12C567.891 698.083 569.297 701.882 571.426 705.277L571.955 706.122M568.199 678.156L576.839 683.649L581.855 686.189C583.766 687.157 585.759 687.956 587.81 688.576L589.223 689.002C591.722 689.758 594.319 690.141 596.929 690.141V690.141C600.528 690.141 604.09 689.412 607.399 687.998L608.943 687.338C611.572 686.215 614.053 684.772 616.33 683.043L620.791 679.654M571.955 706.122V706.122C570.706 712.766 570.077 719.512 570.077 726.272V729.093L571.955 742.577L573.843 751.988C574.587 755.695 575.63 759.337 576.961 762.876L577.839 765.211C579.171 768.753 580.912 772.128 583.025 775.268L585.747 779.312C586.068 779.79 586.444 780.228 586.868 780.617V780.617C589.361 782.912 593.098 783.206 595.92 781.331L596.511 780.938C597.412 780.339 598.187 779.569 598.791 778.671L604.262 770.542V770.542C608.252 763.25 611.268 755.465 613.234 747.388L614.405 742.577L616.659 729.093L616.893 726.702C617.479 720.726 616.626 714.696 614.405 709.118V709.118M571.955 706.122L576.898 709.876C578.858 711.365 580.949 712.674 583.145 713.786L585.385 714.92C586.944 715.71 588.596 716.301 590.302 716.678V716.678C593.068 717.291 595.93 717.335 598.714 716.806L598.8 716.79C601.172 716.339 603.45 715.489 605.537 714.276L614.405 709.118M614.405 709.118L617.424 704.301C619.155 701.54 620.406 698.505 621.123 695.326V695.326C621.897 691.898 622.038 688.358 621.539 684.88L620.791 679.654M620.791 679.654L622.908 675.901C624.475 673.123 625.299 669.988 625.299 666.799V666.799C625.299 665.716 625.393 664.636 625.582 663.57L626.801 656.682M626.801 656.682V655.333C626.801 650.252 626.298 645.184 625.299 640.203V640.203M625.299 640.203L628.68 628.717L630.933 622.225M630.933 622.225L624.172 611.238L619.318 601.75M630.933 622.225L636.568 628.717L647.462 639.453M612.902 588.766L617.785 598.753L619.318 601.75M612.902 588.766L608.394 575.782L606.14 565.794L604.262 556.805M698.552 742.577L696.239 741.738C686.866 738.34 678.311 733.011 671.129 726.097V726.097L669.309 723.898C665.03 718.726 661.419 713.035 658.563 706.96V706.96C656.427 702.416 654.723 697.681 653.476 692.817L652.179 687.758C650.539 681.365 649.37 674.861 648.681 668.297L647.462 656.682V639.453M698.552 742.577L691.79 720.604V720.604C689.543 710.981 688.409 701.132 688.409 691.25V687.644M698.552 742.577L706.065 753.064L707.067 754.796C711.386 762.26 716.74 769.074 722.969 775.037V775.037L731.434 781.325C734.299 783.454 737.359 785.307 740.573 786.861V786.861C748.272 790.582 756.712 792.515 765.263 792.515H773.307V792.515C774.805 780.902 774.958 769.154 773.763 757.506L773.307 753.064L771.053 736.584L765.794 716.109L759.784 697.133L752.271 673.162M752.271 673.162L737.996 647.693L716.959 615.733L700.806 593.76L680.144 569.29L662.864 551.811L630.933 520.849L612.902 507.366M752.271 673.162C768.365 669.342 794.673 651.211 807.345 641.482C808.44 640.641 809.297 639.55 809.877 638.297V638.297C811.19 635.461 810.884 632.138 809.075 629.589L795.944 611.085C794.13 608.53 792.071 606.159 789.794 604.006L758.056 573.999C734.726 551.94 709.209 532.315 681.902 515.427L639.269 489.061C637.474 487.951 635.56 487.046 633.563 486.363V486.363M610.272 478.401L633.563 486.363M623.42 450.436L620.683 447.808C618.015 445.246 614.975 443.104 611.665 441.454L609.938 440.594C608.414 439.833 606.802 439.263 605.138 438.894V438.894C600.903 437.956 596.429 438.381 592.433 440.071V440.071C591.068 440.649 589.75 441.376 588.536 442.225L586.82 443.426C584.43 445.098 582.201 447.047 580.22 449.187V449.187M623.42 450.436V450.436C626.417 455.414 628.858 460.707 630.7 466.218L630.933 466.915V466.915C632.678 472.878 633.563 479.058 633.563 485.27V486.363M623.42 450.436L647.087 402.994M580.22 449.187L559.559 398M647.462 612.736V622.225V639.453" stroke="#FF6200" stroke-width="4.88868"/>
</g>
<g filter="url(#filter2_f_217_5144)">
<path d="M561.061 490.004V490.004C543.053 496.322 525.516 503.913 508.585 512.72L499.454 517.471L458.883 543.938L426.576 568.408L424.121 570.683C409.252 584.459 395.502 599.395 383 615.351V615.351C383.43 615.948 383.884 616.557 384.36 617.175C397.923 634.806 416.84 647.331 435.592 659.297V659.297M561.061 490.004L587.733 481.016M561.061 490.004V490.004C564.204 487.433 566.279 483.786 566.884 479.77L567.196 477.691C567.363 476.58 567.616 475.483 567.952 474.411L569.116 470.698C570.501 466.28 572.511 462.082 575.085 458.233V458.233C576.502 456.112 578.085 454.107 579.818 452.236L580.22 451.801M435.592 659.297L426.576 687.762L415.306 718.224L413.953 723.538C409.613 740.57 407.418 758.077 407.418 775.654V775.654H415.369C422.799 775.654 430.188 774.55 437.295 772.38V772.38C448.525 768.951 458.794 762.935 467.276 754.816L468.677 753.475C471.66 750.62 474.426 747.547 476.953 744.281L479.919 740.447M435.592 659.297L451.745 636.325L467.898 615.351L486.681 591.38L509.221 568.408L534.014 547.933L557.305 529.456L587.733 509.98M499.454 678.273L497.112 697.258C496.173 704.88 494.278 712.353 491.472 719.501L490.718 721.422C488.041 728.244 484.404 734.65 479.919 740.447V740.447M479.919 740.447L488.149 737.501C498.817 733.683 508.544 727.624 516.675 719.732V719.732C524.154 712.472 530.129 703.81 534.26 694.24L535.669 690.976C539.306 682.55 541.731 673.651 542.873 664.546L546.411 636.325M546.411 636.325V615.351M546.411 636.325L561.061 622.342M561.061 622.342L574.961 604.364M561.061 622.342L562.277 625.978C563.468 629.541 564.946 633.001 566.696 636.325V636.325M574.961 604.364L582.474 591.38M574.961 604.364L577.067 605.872C578.916 607.195 580.863 608.376 582.891 609.403L583.655 609.79C586.364 611.161 589.228 612.201 592.187 612.884L593.209 613.121C595.311 613.607 597.463 613.852 599.621 613.852H601.216C604.457 613.852 607.656 613.12 610.574 611.709V611.709C613.103 610.486 615.368 608.78 617.241 606.686L619.318 604.364M582.474 591.38L587.733 575.899L592.992 559.419M582.474 591.38L587.733 593.877L590.997 595.082C593.311 595.937 595.757 596.374 598.223 596.374V596.374C600.97 596.374 603.689 595.831 606.226 594.778L608.394 593.877L612.902 591.38M566.696 636.325V636.325C564.95 642.956 564.067 649.784 564.067 656.641V656.8M566.696 636.325L568.931 640.647C570.188 643.077 571.815 645.299 573.753 647.231V647.231C575.796 649.268 578.159 650.958 580.748 652.232L582.588 653.138C585.501 654.572 588.612 655.561 591.818 656.073V656.073C594.839 656.555 597.914 656.608 600.951 656.229L601.559 656.153C606.065 655.592 610.403 654.088 614.289 651.739V651.739C615.866 650.787 617.358 649.701 618.75 648.494L625.299 642.817M564.067 656.8V656.8C564.067 662.435 564.803 668.047 566.256 673.492L568.199 680.77M564.067 656.8L567.955 662.291C569.363 664.281 571.036 666.068 572.928 667.605V667.605C575.513 669.705 578.466 671.305 581.637 672.322L583.94 673.061C586.462 673.87 589.064 674.426 591.697 674.717V674.717C597.972 675.412 604.335 674.607 610.237 672.365L612.488 671.51C613.764 671.026 615.002 670.447 616.191 669.778L618.468 668.497C622.17 666.415 625.095 663.186 626.801 659.297V659.297M568.199 680.77L567.197 688.763C566.865 691.412 566.898 694.094 567.295 696.734V696.734C567.891 700.698 569.297 704.496 571.426 707.892L571.955 708.736M568.199 680.77L576.839 686.263L581.855 688.804C583.766 689.772 585.759 690.57 587.81 691.19L589.223 691.617C591.722 692.372 594.319 692.755 596.929 692.755V692.755C600.528 692.755 604.09 692.026 607.399 690.612L608.943 689.953C611.572 688.829 614.053 687.386 616.33 685.657L620.791 682.268M571.955 708.736V708.736C570.706 715.38 570.077 722.126 570.077 728.886V731.708L571.955 745.191L573.843 754.602C574.587 758.31 575.63 761.951 576.961 765.491L577.839 767.825C579.171 771.367 580.912 774.743 583.025 777.883L585.747 781.926C586.068 782.404 586.444 782.842 586.868 783.232V783.232C589.361 785.526 593.098 785.821 595.92 783.945L596.511 783.552C597.412 782.953 598.187 782.183 598.791 781.285L604.262 773.157V773.157C608.252 765.864 611.268 758.079 613.234 750.002L614.405 745.191L616.659 731.708L616.893 729.316C617.479 723.34 616.626 717.311 614.405 711.732V711.732M571.955 708.736L576.898 712.49C578.858 713.979 580.949 715.288 583.145 716.4L585.385 717.535C586.944 718.324 588.596 718.915 590.302 719.293V719.293C593.068 719.906 595.93 719.949 598.714 719.42L598.8 719.404C601.172 718.954 603.45 718.103 605.537 716.89L614.405 711.732M614.405 711.732L617.424 706.915C619.155 704.154 620.406 701.119 621.123 697.94V697.94C621.897 694.512 622.038 690.972 621.539 687.494L620.791 682.268M620.791 682.268L622.908 678.516C624.475 675.738 625.299 672.602 625.299 669.413V669.413C625.299 668.33 625.393 667.25 625.582 666.184L626.801 659.297M626.801 659.297V657.948C626.801 652.867 626.298 647.798 625.299 642.817V642.817M625.299 642.817L628.68 631.331L630.933 624.839M630.933 624.839L624.172 613.852L619.318 604.364M630.933 624.839L636.568 631.331L647.462 642.068M612.902 591.38L617.785 601.368L619.318 604.364M612.902 591.38L608.394 578.396L606.14 568.408L604.262 559.419M698.552 745.191L696.239 744.352C686.866 740.954 678.311 735.626 671.129 728.711V728.711L669.309 726.512C665.03 721.34 661.419 715.65 658.563 709.575V709.575C656.427 705.03 654.723 700.295 653.476 695.431L652.179 690.373C650.539 683.98 649.37 677.475 648.681 670.911L647.462 659.297V642.068M698.552 745.191L691.79 723.218V723.218C689.543 713.595 688.409 703.746 688.409 693.864V690.259M698.552 745.191L706.065 755.678L707.067 757.41C711.386 764.874 716.74 771.689 722.969 777.651V777.651L731.434 783.939C734.299 786.068 737.359 787.922 740.573 789.475V789.475C748.272 793.197 756.712 795.13 765.263 795.13H773.307V795.13C774.805 783.516 774.958 771.769 773.763 760.12L773.307 755.678L771.053 739.198L765.794 718.724L759.784 699.747L752.271 675.776M752.271 675.776L737.996 650.308L716.959 618.347L700.806 596.374L680.144 571.904L662.864 554.425L630.933 523.463L612.902 509.98M752.271 675.776C768.365 671.956 794.673 653.825 807.345 644.096C808.44 643.255 809.297 642.164 809.877 640.912V640.912C811.19 638.075 810.884 634.752 809.075 632.203L795.944 613.699C794.13 611.144 792.071 608.773 789.794 606.621L758.056 576.613C734.726 554.554 709.209 534.929 681.902 518.041L639.269 491.675C637.474 490.565 635.56 489.66 633.563 488.977V488.977M610.272 481.016L633.563 488.977M623.42 453.05L620.683 450.422C618.015 447.861 614.975 445.719 611.665 444.069L609.938 443.208C608.414 442.448 606.802 441.877 605.138 441.508V441.508C600.903 440.57 596.429 440.996 592.433 442.686V442.686C591.068 443.263 589.75 443.99 588.536 444.84L586.82 446.04C584.43 447.712 582.201 449.661 580.22 451.801V451.801M623.42 453.05V453.05C626.417 458.029 628.858 463.321 630.7 468.832L630.933 469.53V469.53C632.678 475.492 633.563 481.672 633.563 487.884V488.977M623.42 453.05L647.087 405.608M580.22 451.801L559.559 400.614M647.462 615.351V624.839V642.068" stroke="white" stroke-width="2.55766"/>
</g>
<defs>
<filter id="filter0_f_217_5144" x="0.0579224" y="0.0579224" width="1203.88" height="1194.88" filterUnits="userSpaceOnUse" color-interpolation-filters="sRGB">
<feFlood flood-opacity="0" result="BackgroundImageFix"/>
<feBlend mode="normal" in="SourceGraphic" in2="BackgroundImageFix" result="shape"/>
<feGaussianBlur stdDeviation="225.221" result="effect1_foregroundBlur_217_5144"/>
</filter>
<filter id="filter1_f_217_5144" x="370.785" y="386.854" width="452.575" height="418.336" filterUnits="userSpaceOnUse" color-interpolation-filters="sRGB">
<feFlood flood-opacity="0" result="BackgroundImageFix"/>
<feBlend mode="normal" in="SourceGraphic" in2="BackgroundImageFix" result="shape"/>
<feGaussianBlur stdDeviation="5.11531" result="effect1_foregroundBlur_217_5144"/>
</filter>
<filter id="filter2_f_217_5144" x="379.403" y="397.578" width="435.115" height="401.388" filterUnits="userSpaceOnUse" color-interpolation-filters="sRGB">
<feFlood flood-opacity="0" result="BackgroundImageFix"/>
<feBlend mode="normal" in="SourceGraphic" in2="BackgroundImageFix" result="shape"/>
<feGaussianBlur stdDeviation="1.27883" result="effect1_foregroundBlur_217_5144"/>
</filter>
</defs>
</svg>
