<svg width="221" height="186" viewBox="0 0 221 186" fill="none" xmlns="http://www.w3.org/2000/svg">
<g filter="url(#filter0_f_282_94)">
<path d="M122.148 71.74L126.152 66.1689C128.281 63.2076 130.622 60.4055 133.158 57.7849L134.357 56.5467C137.275 53.531 140.441 50.7656 143.822 48.2795L144.509 47.7748C147.756 45.3874 151.19 43.2656 154.778 41.43L158.661 39.4433C161.449 38.0168 164.351 36.8241 167.336 35.8775L169.868 35.0745C173.724 33.8518 177.746 33.2296 181.791 33.2296H182.385C185.008 33.2296 187.622 33.5305 190.176 34.1265L191.464 34.4269C194.285 35.0853 196.979 36.2048 199.436 37.7404L200.461 38.381C202.3 39.5305 203.931 40.9827 205.286 42.6763L205.412 42.8332C208.059 46.1422 209.501 50.2536 209.501 54.4913V54.4913C209.501 57.1917 208.915 59.8599 207.783 62.3117L207.369 63.2097C206.293 65.5407 204.837 67.6767 203.061 69.5302L202.46 70.1568C199.874 72.8555 196.78 75.0161 193.355 76.5143L192.088 77.0686C189.719 78.1051 187.243 78.878 184.705 79.3732L175.687 81.1328L166.294 81.759M122.148 71.74L124.34 76.4364M122.148 71.74L124.34 64.5389L125.75 57.5L126.185 50.5439C126.384 47.3633 125.095 44.2706 122.697 42.1721V42.1721C121.261 40.9156 119.503 40.0838 117.621 39.7701L116 39.5M124.34 76.4364V76.4364C128.431 79.5051 133.305 81.3581 138.402 81.7829L145.63 82.3852H156.901L166.294 81.759M124.34 76.4364L130.602 86.7685M166.294 81.759L181.323 82.3852L185.634 82.8827C188.163 83.1744 190.61 83.9553 192.84 85.1819V85.1819C194.75 86.2323 196.471 87.5936 197.934 89.2098L199.622 91.0764C200.987 92.5847 202.212 94.2135 203.283 95.9429L203.952 97.0235C205.141 98.9442 206.059 101.02 206.679 103.192V103.192C207.305 105.382 207.622 107.649 207.622 109.927V113.381V115.459C207.622 118.613 206.813 121.714 205.272 124.466V124.466C203.934 126.857 202.079 128.918 199.844 130.502L199.056 131.06C196.853 132.62 194.389 133.776 191.781 134.471L191.635 134.51C188.147 135.44 184.491 135.556 180.95 134.848L178.777 134.413C175.484 133.754 172.31 132.598 169.366 130.983L167.248 129.822C165.154 128.673 163.147 127.373 161.243 125.931L153.77 120.269L150.352 116.851C147.21 113.709 144.354 110.295 141.817 106.647L140.62 104.928L135.924 96.4744M135.924 96.4744L130.602 86.7685M135.924 96.4744L138.788 104.111C140.008 107.365 140.995 110.702 141.74 114.097V114.097C142.869 119.24 143.438 124.491 143.438 129.757V131.541V134.526C143.438 138.152 142.909 141.759 141.867 145.232V145.232C141.039 147.993 139.893 150.648 138.453 153.145L137.945 154.025C136.6 156.356 135.054 158.563 133.324 160.623L131.725 162.526C130.144 164.409 128.414 166.162 126.554 167.77L122.463 171.304C121.164 172.426 119.682 173.317 118.08 173.937V173.937C114.651 175.266 110.852 175.286 107.408 173.995L105.63 173.328C103.712 172.609 101.917 171.599 100.306 170.333L96.9313 167.682C94.9601 166.133 93.1168 164.428 91.4195 162.583L90.5023 161.586C88.0264 158.895 85.9579 155.856 84.3625 152.565V152.565C82.6377 149.008 81.4869 145.2 80.9527 141.283L79.8805 133.419V128.624C79.8805 123.072 80.5107 117.538 81.759 112.129V112.129L85.5161 101.171M130.602 86.7685L122.331 73.7716C120.617 71.0791 117.858 69.2238 114.718 68.6529V68.6529C113.419 68.4168 112.089 68.407 110.787 68.624L110.024 68.7513C106.906 69.2709 104.014 70.708 101.718 72.8791L101.598 72.9924M105.241 40.1176L108.497 39.4824C110.975 38.9988 113.524 39.0048 116 39.5V39.5M105.241 40.1176L103.645 40.7747C101.224 41.7718 99.1823 43.5138 97.8167 45.7484V45.7484C96.9314 47.1972 96.3546 48.8131 96.1226 50.495L95.8372 52.5645C95.4312 55.5084 95.6164 58.5037 96.3821 61.375L96.4744 61.7211M105.241 40.1176L105.605 36.4785C105.779 34.7346 105.775 32.9774 105.591 31.2345V31.2345C105.359 29.0255 104.841 26.856 104.05 24.7804L103.374 23.0056C102.949 21.8915 102.443 20.8103 101.858 19.7712L100.931 18.1232C100.261 16.9308 99.3997 15.8558 98.3828 14.9405L98.1803 14.7583C97.2584 13.9286 96.2026 13.2611 95.0577 12.784V12.784C93.7194 12.2264 92.2839 11.9393 90.834 11.9393H90.1474C89.3585 11.9393 88.572 12.0288 87.8033 12.2063V12.2063C85.8994 12.6456 84.1574 13.6111 82.7758 14.9927L82.6983 15.0702M96.4744 61.7211L99.7002 67.8793C99.8453 68.1564 100.018 68.418 100.216 68.6601L101.664 70.4301C102.28 71.1827 102.252 72.2729 101.598 72.9924V72.9924M96.4744 61.7211L93.5791 57.9814C90.5076 54.0139 87.0456 50.3647 83.2453 47.0886L79.8805 44.1879L77.2209 42.4489C73.5739 40.0643 69.7261 38.0022 65.7211 36.2857L58.5901 33.2296L52.1439 31.4874C48.7334 30.5656 45.216 30.0987 41.6831 30.0987H40.9539C37.905 30.0987 34.8695 30.5016 31.9263 31.2971L30.0419 31.8064C26.5707 32.7446 23.3373 34.4068 20.5544 36.6837V36.6837C18.7849 38.1315 17.2183 39.8109 15.8967 41.6765L15.0918 42.813C13.4262 45.1644 12.2734 47.8397 11.7083 50.6653V50.6653C11.2397 53.0084 11.1831 55.4152 11.5411 57.7778L11.716 58.9325C12.2739 62.6143 13.7225 66.1043 15.9359 69.0989V69.0989C17.2307 70.8507 18.7691 72.4084 20.5046 73.725L21.8663 74.758C25.2389 77.3165 29.0504 79.2376 33.1133 80.4268L39.8046 82.3852M39.8046 82.3852L52.3283 83.3245H64.2258L83.9507 81.1328L89.0059 80.1218C93.857 79.1516 98.2699 76.653 101.598 72.9924V72.9924M39.8046 82.3852L38.984 82.4837C34.4005 83.0337 30.0552 84.8287 26.4198 87.6738V87.6738C25.3258 88.5299 24.3044 89.4748 23.3657 90.4987L21.4006 92.6425C19.0849 95.1687 17.3279 98.1548 16.2442 101.406V101.406C15.8795 102.5 15.5928 103.619 15.3865 104.754L14.6352 108.886C14.0957 111.853 14.1548 114.898 14.809 117.842L14.8866 118.191C15.4221 120.601 16.3855 122.895 17.7309 124.965V124.965C19.0771 127.036 20.784 128.849 22.7704 130.317L23.2769 130.691C25.7156 132.494 28.4722 133.821 31.4024 134.602L33.055 135.043C35.2493 135.628 37.5106 135.924 39.7816 135.924V135.924C43.712 135.924 47.5917 135.037 51.1312 133.328L52.2337 132.796C53.963 131.961 55.6121 130.969 57.1606 129.834L64.2258 124.653L68.0473 121.377C71.3379 118.557 74.3777 115.456 77.1328 112.111L81.759 106.493L85.5161 101.171M85.5161 101.171L91.1518 91.1518L95.222 84.5769L101.598 72.9924M116 39.5L116.199 34.7951L117.139 27.907L117.379 27.0034C118.051 24.4839 119.022 22.0537 120.271 19.7646L121.321 17.839C121.87 16.8317 122.538 15.8935 123.31 15.0444L123.831 14.4718C124.786 13.4204 125.944 12.5717 127.234 11.9762L127.345 11.9249C128.665 11.3156 130.102 11 131.556 11H131.602C132.393 11 133.181 11.0971 133.949 11.289V11.289C135.651 11.7145 137.206 12.5946 138.446 13.8351L139.681 15.0702" stroke="#7B00FF" stroke-width="6"/>
</g>
<g filter="url(#filter1_f_282_94)">
<path d="M122.148 73.24L126.152 67.6689C128.281 64.7076 130.622 61.9055 133.158 59.2849L134.357 58.0467C137.275 55.031 140.441 52.2656 143.822 49.7795L144.509 49.2748C147.756 46.8874 151.19 44.7656 154.778 42.93L158.661 40.9433C161.449 39.5168 164.351 38.3241 167.336 37.3775L169.868 36.5745C173.724 35.3518 177.746 34.7296 181.791 34.7296H182.385C185.008 34.7296 187.622 35.0305 190.176 35.6265L191.464 35.9269C194.285 36.5853 196.979 37.7048 199.436 39.2404L200.461 39.881C202.3 41.0305 203.931 42.4827 205.286 44.1763L205.412 44.3332C208.059 47.6422 209.501 51.7536 209.501 55.9913V55.9913C209.501 58.6917 208.915 61.3599 207.783 63.8117L207.369 64.7097C206.293 67.0407 204.837 69.1767 203.061 71.0302L202.46 71.6568C199.874 74.3555 196.78 76.5161 193.355 78.0143L192.088 78.5686C189.719 79.6051 187.243 80.378 184.705 80.8732L175.687 82.6328L166.294 83.259M122.148 73.24L124.34 77.9364M122.148 73.24L124.34 66.0389L125.75 59L126.185 52.0439C126.384 48.8633 125.095 45.7706 122.697 43.6721V43.6721C121.261 42.4156 119.503 41.5838 117.621 41.2701L116 41M124.34 77.9364V77.9364C128.431 81.0051 133.305 82.8581 138.402 83.2829L145.63 83.8852H156.901L166.294 83.259M124.34 77.9364L130.602 88.2685M166.294 83.259L181.323 83.8852L185.634 84.3827C188.163 84.6744 190.61 85.4553 192.84 86.6819V86.6819C194.75 87.7323 196.471 89.0936 197.934 90.7098L199.622 92.5764C200.987 94.0847 202.212 95.7135 203.283 97.4429L203.952 98.5235C205.141 100.444 206.059 102.52 206.679 104.692V104.692C207.305 106.882 207.622 109.149 207.622 111.427V114.881V116.959C207.622 120.113 206.813 123.214 205.272 125.966V125.966C203.934 128.357 202.079 130.418 199.844 132.002L199.056 132.56C196.853 134.12 194.389 135.276 191.781 135.971L191.635 136.01C188.147 136.94 184.491 137.056 180.95 136.348L178.777 135.913C175.484 135.254 172.31 134.098 169.366 132.483L167.248 131.322C165.154 130.173 163.147 128.873 161.243 127.431L153.77 121.769L150.352 118.351C147.21 115.209 144.354 111.795 141.817 108.147L140.62 106.428L135.924 97.9744M135.924 97.9744L130.602 88.2685M135.924 97.9744L138.788 105.611C140.008 108.865 140.995 112.202 141.74 115.597V115.597C142.869 120.74 143.438 125.991 143.438 131.257V133.041V136.026C143.438 139.652 142.909 143.259 141.867 146.732V146.732C141.039 149.493 139.893 152.148 138.453 154.645L137.945 155.525C136.6 157.856 135.054 160.063 133.324 162.123L131.725 164.026C130.144 165.909 128.414 167.662 126.554 169.27L122.463 172.804C121.164 173.926 119.682 174.817 118.08 175.437V175.437C114.651 176.766 110.852 176.786 107.408 175.495L105.63 174.828C103.712 174.109 101.917 173.099 100.306 171.833L96.9313 169.182C94.9601 167.633 93.1168 165.928 91.4195 164.083L90.5023 163.086C88.0264 160.395 85.9579 157.356 84.3625 154.065V154.065C82.6377 150.508 81.4869 146.7 80.9527 142.783L79.8805 134.919V130.124C79.8805 124.572 80.5107 119.038 81.759 113.629V113.629L85.5161 102.671M130.602 88.2685L122.331 75.2716C120.617 72.5791 117.858 70.7238 114.718 70.1529V70.1529C113.419 69.9168 112.089 69.907 110.787 70.124L110.024 70.2513C106.906 70.7709 104.014 72.208 101.718 74.3791L101.598 74.4924M105.241 41.6176L108.497 40.9824C110.975 40.4988 113.524 40.5048 116 41V41M105.241 41.6176L103.645 42.2747C101.224 43.2718 99.1823 45.0138 97.8167 47.2484V47.2484C96.9314 48.6972 96.3546 50.3131 96.1226 51.995L95.8372 54.0645C95.4312 57.0084 95.6164 60.0037 96.3821 62.875L96.4744 63.2211M105.241 41.6176L105.605 37.9785C105.779 36.2346 105.775 34.4774 105.591 32.7345V32.7345C105.359 30.5255 104.841 28.356 104.05 26.2804L103.374 24.5056C102.949 23.3915 102.443 22.3103 101.858 21.2712L100.931 19.6232C100.261 18.4308 99.3997 17.3558 98.3828 16.4405L98.1803 16.2583C97.2584 15.4286 96.2026 14.7611 95.0577 14.284V14.284C93.7194 13.7264 92.2839 13.4393 90.834 13.4393H90.1474C89.3585 13.4393 88.572 13.5288 87.8033 13.7063V13.7063C85.8994 14.1456 84.1574 15.1111 82.7758 16.4927L82.6983 16.5702M96.4744 63.2211L99.7002 69.3793C99.8453 69.6564 100.018 69.918 100.216 70.1601L101.664 71.9301C102.28 72.6827 102.252 73.7729 101.598 74.4924V74.4924M96.4744 63.2211L93.5791 59.4814C90.5076 55.5139 87.0456 51.8647 83.2453 48.5886L79.8805 45.6879L77.2209 43.9489C73.5739 41.5643 69.7261 39.5022 65.7211 37.7857L58.5901 34.7296L52.1439 32.9874C48.7334 32.0656 45.216 31.5987 41.6831 31.5987H40.9539C37.905 31.5987 34.8695 32.0016 31.9263 32.7971L30.0419 33.3064C26.5707 34.2446 23.3373 35.9068 20.5544 38.1837V38.1837C18.7849 39.6315 17.2183 41.3109 15.8967 43.1765L15.0918 44.313C13.4262 46.6644 12.2734 49.3397 11.7083 52.1653V52.1653C11.2397 54.5084 11.1831 56.9152 11.5411 59.2778L11.716 60.4325C12.2739 64.1143 13.7225 67.6043 15.9359 70.5989V70.5989C17.2307 72.3507 18.7691 73.9084 20.5046 75.225L21.8663 76.258C25.2389 78.8165 29.0504 80.7376 33.1133 81.9268L39.8046 83.8852M39.8046 83.8852L52.3283 84.8245H64.2258L83.9507 82.6328L89.0059 81.6218C93.857 80.6516 98.2699 78.153 101.598 74.4924V74.4924M39.8046 83.8852L38.984 83.9837C34.4005 84.5337 30.0552 86.3287 26.4198 89.1738V89.1738C25.3258 90.0299 24.3044 90.9748 23.3657 91.9987L21.4006 94.1425C19.0849 96.6687 17.3279 99.6548 16.2442 102.906V102.906C15.8795 104 15.5928 105.119 15.3865 106.254L14.6352 110.386C14.0957 113.353 14.1548 116.398 14.809 119.342L14.8866 119.691C15.4221 122.101 16.3855 124.395 17.7309 126.465V126.465C19.0771 128.536 20.784 130.349 22.7704 131.817L23.2769 132.191C25.7156 133.994 28.4722 135.321 31.4024 136.102L33.055 136.543C35.2493 137.128 37.5106 137.424 39.7816 137.424V137.424C43.712 137.424 47.5917 136.537 51.1312 134.828L52.2337 134.296C53.963 133.461 55.6121 132.469 57.1606 131.334L64.2258 126.153L68.0473 122.877C71.3379 120.057 74.3777 116.956 77.1328 113.611L81.759 107.993L85.5161 102.671M85.5161 102.671L91.1518 92.6518L95.222 86.0769L101.598 74.4924M116 41L116.199 36.2951L117.139 29.407L117.379 28.5034C118.051 25.9839 119.022 23.5537 120.271 21.2646L121.321 19.339C121.87 18.3317 122.538 17.3935 123.31 16.5444L123.831 15.9718C124.786 14.9204 125.944 14.0717 127.234 13.4762L127.345 13.4249C128.665 12.8156 130.102 12.5 131.556 12.5H131.602C132.393 12.5 133.181 12.5971 133.949 12.789V12.789C135.651 13.2145 137.206 14.0946 138.446 15.3351L139.681 16.5702" stroke="white" stroke-width="1.5"/>
</g>
<defs>
<filter id="filter0_f_282_94" x="0.358593" y="0.0499997" width="220.091" height="185.849" filterUnits="userSpaceOnUse" color-interpolation-filters="sRGB">
<feFlood flood-opacity="0" result="BackgroundImageFix"/>
<feBlend mode="normal" in="SourceGraphic" in2="BackgroundImageFix" result="shape"/>
<feGaussianBlur stdDeviation="3.975" result="effect1_foregroundBlur_282_94"/>
</filter>
<filter id="filter1_f_282_94" x="9.05859" y="10.25" width="202.691" height="168.449" filterUnits="userSpaceOnUse" color-interpolation-filters="sRGB">
<feFlood flood-opacity="0" result="BackgroundImageFix"/>
<feBlend mode="normal" in="SourceGraphic" in2="BackgroundImageFix" result="shape"/>
<feGaussianBlur stdDeviation="0.75" result="effect1_foregroundBlur_282_94"/>
</filter>
</defs>
</svg>
