<svg width="468" height="530" viewBox="0 0 468 530" fill="none" xmlns="http://www.w3.org/2000/svg">
<path d="M131.974 506.613L139.931 515.263C155.334 532.005 181.091 533.906 198.785 519.608C201.749 517.213 205.016 515.222 208.503 513.685L250.152 495.334C290.904 482.118 332.927 473.203 375.535 468.736L414.159 464.687C436.442 464.687 456.247 450.488 463.4 429.385L464.902 424.954C466.954 418.903 468 412.556 468 406.167V339.611V270.032C468 234.227 464.428 198.512 457.338 163.417L451.434 134.188L433.958 76.8678C431.809 69.8173 428.959 62.9995 425.452 56.5165L423.649 53.185C410.691 29.232 388.648 11.4938 362.477 3.95983C353.352 1.33295 343.904 0 334.408 0H317.695C299.246 0 280.87 2.32142 263.001 6.90957L228.616 15.7381L167.32 40.5876L111.823 66.2655L77.28 86.8798C66.1072 93.5475 55.7232 101.455 46.3252 110.454L40.2588 116.262C27.8978 128.097 17.9847 142.247 11.0837 157.907C3.7747 174.493 0 192.419 0 210.544V216.923C0 235.079 3.07446 253.104 9.09298 270.234L21.5363 305.65L44.7292 361.975L75.377 415.816L102.712 464.687L126.927 500.253C128.452 502.493 130.139 504.619 131.974 506.613Z" fill="white" fill-opacity="0.3"/>
</svg>
