<svg width="348" height="362" viewBox="0 0 348 362" fill="none" xmlns="http://www.w3.org/2000/svg">
<path d="M272.37 337.858L262.2 352.668C254.971 363.195 240.087 364.861 230.709 356.192C229.599 355.166 228.381 354.263 227.077 353.499L219.274 348.929C210.751 343.937 201.562 340.182 191.982 337.776L157.947 329.229L123.714 324.43C102.553 323.714 81.3877 325.708 60.7333 330.365L58.9716 330.762C46.2544 335.226 32.4163 327.987 28.8301 314.995L20.4206 284.529C12.6633 252.249 7.50642 219.399 4.99954 186.295L2.85107 157.924L1.03612 119.648C0.381203 105.836 1.87821 92.0063 5.47347 78.6544L10.3195 60.6574C13.6043 48.4586 20.2276 37.4181 29.4445 28.7779C38.7157 20.0868 50.2402 14.1721 62.7068 11.7068L98.1252 4.70272C152.703 -0.967295 207.739 -0.597926 262.236 5.80411L263.817 5.98981L286.026 11.4165C313.069 18.0243 334.489 38.6306 342.138 65.3974C343.31 69.4985 344.142 73.6894 344.624 77.9274L346.321 92.8422C349.441 120.254 348.161 147.988 342.529 174.996L342.167 176.732C339.17 191.107 335.005 205.213 329.714 218.91L321.617 239.871C310.937 267.52 298.019 294.251 282.992 319.798L272.37 337.858Z" fill="white" fill-opacity="0.3"/>
</svg>
