<svg width="359" height="369" viewBox="0 0 359 369" fill="none" xmlns="http://www.w3.org/2000/svg">
<path d="M357.049 277.282L355.568 285.986C352.803 302.239 338.41 313.919 321.936 313.278L301.979 315.003C287.867 316.222 273.889 318.678 260.207 322.342C243.887 326.712 228.068 332.778 213.011 340.442L168.956 362.864C155.406 371.65 137.765 370.824 125.095 360.813L122.434 358.71C118.801 355.839 115.662 352.393 113.143 348.507L86.9013 308.035L59.4678 265.725C45.3508 243.953 33.4408 220.827 23.9147 196.691L15.981 176.589L4.0076 134.843C2.53482 129.708 1.57958 124.439 1.15614 119.114L0.938536 116.377C-0.625955 96.7027 5.78444 77.2251 18.7279 62.3253C23.2409 57.1302 28.4609 52.5943 34.235 48.8504L44.3979 42.2608C55.6166 34.9866 67.7061 29.153 80.3813 24.8974L104.771 16.7087L151.842 7.65176L195.713 1.38464L224.846 0.300355C234.269 -0.0503526 243.701 0.664164 252.964 2.43033L258.943 3.5704C271.126 5.8934 282.733 10.5894 293.104 17.3911C304.088 24.5949 313.451 34.0072 320.597 45.0287L323.112 48.9079C330.271 59.9484 335.508 72.1214 338.602 84.9106L344.999 111.353L353.104 154.748L355.696 199.571L358.343 240.067L357.645 271.056C357.598 273.143 357.399 275.224 357.049 277.282Z" fill="white" fill-opacity="0.3"/>
</svg>
