<svg width="348" height="364" viewBox="0 0 348 364" fill="none" xmlns="http://www.w3.org/2000/svg">
<path d="M259.423 343.743L253.553 352.903C245.849 364.924 229.135 367.024 218.697 357.282C217.076 355.768 215.242 354.499 213.255 353.513L201.458 347.662C196.083 344.996 190.503 342.763 184.773 340.984L145.647 328.836L111.73 322.162C90.6317 320.283 69.1833 321.004 48.252 324.249C34.5267 328.362 20.2058 319.919 17.1586 305.919L10.7865 276.643C4.81565 243.985 1.47271 210.901 0.78971 177.709L0.20436 149.263L0.496598 110.945C0.602059 97.1179 2.85718 83.3913 7.18109 70.2573L13.0093 52.554C16.9598 40.5542 24.1801 29.8946 33.8581 21.7742C43.5932 13.6059 55.4254 8.33381 68.0086 6.55766L103.759 1.51153C158.565 -1.14919 213.498 2.24557 267.561 11.6342L269.129 11.9065L291.006 18.546C317.644 26.6307 337.899 48.3836 344.065 75.5304C345.01 79.6898 345.61 83.9201 345.859 88.1781L346.733 103.164C348.341 130.705 345.538 158.327 338.43 184.984L337.973 186.699C334.19 200.887 329.256 214.742 323.22 228.128L313.982 248.612C301.798 275.631 287.43 301.612 271.022 326.295L259.423 343.743Z" fill="white" fill-opacity="0.3"/>
</svg>
