<svg width="355" height="392" viewBox="0 0 355 392" fill="none" xmlns="http://www.w3.org/2000/svg">
<path d="M11.1043 314.014L15.4028 332.38C18.2951 344.738 31.2883 351.837 43.25 347.595C61.7434 343.501 80.8019 342.609 99.5967 344.959L120.683 347.595L154.263 355.548L167.21 360.118C178.574 364.128 189.455 369.392 199.654 375.812L212.564 383.939C213.685 384.644 214.728 385.467 215.675 386.392C223.838 394.364 237.17 393.254 243.903 384.042L264.725 355.548C283.547 327.903 300.139 298.803 314.344 268.525L326.584 242.435L342.007 207.018C347.598 194.179 351.184 180.558 352.639 166.631L354.614 147.724C355.932 135.111 353.751 122.378 348.31 110.923C342.774 99.2679 334.083 89.3974 323.222 82.4304L293.003 63.0446C244.257 37.7907 192.847 18.052 139.726 4.19423L138.357 3.83696L116.231 0.925755C88.4255 -2.73291 60.8162 8.93818 44.0655 31.4319C41.537 34.8274 39.2913 38.4246 37.3511 42.1873L30.3274 55.8092C17.592 80.5081 8.83834 107.064 4.39013 134.495L4.06632 136.491C1.69262 151.129 0.5 165.934 0.5 180.763V203.552C0.5 233.549 2.9125 263.498 7.71417 293.108L11.1043 314.014Z" fill="white" fill-opacity="0.3"/>
</svg>
