<svg width="63" height="54" viewBox="0 0 63 54" fill="none" xmlns="http://www.w3.org/2000/svg">
<path d="M25.67 20.42L31.8565 26.6065C32.542 27.292 33.6978 27.1045 34.1313 26.2373L38.5 17.5L41.4539 12.0845C42.4737 10.2149 43.8675 8.57524 45.5486 7.26775L47.9264 5.41832C49.1083 4.49908 50.5629 4 52.0602 4H52.1441C54.7866 4 57.1749 5.57483 58.2159 8.00372C58.5683 8.826 58.75 9.7113 58.75 10.6059V14.6915C58.75 16.5586 58.5527 18.4205 58.1615 20.2462L57.5632 23.0385C56.8581 26.3289 55.6816 29.5003 54.0703 32.4545C52.6953 34.9752 51.0151 37.317 49.0675 39.4268L43 46C39.0602 49.9398 32.907 50.6009 28.2202 47.588L25.75 46L22.5946 43.7912C19.7037 41.7676 16.9952 39.4952 14.5 37L12.9174 35.4174C11.4752 33.9752 10.1618 32.4098 8.99226 30.7389L6.47999 27.15C5.83153 26.2236 5.34789 25.1922 5.05036 24.1013L4.41265 21.7631C3.71394 19.2011 4.68483 16.4751 6.84569 14.9317C7.92161 14.1631 9.21078 13.75 10.533 13.75H12.0801C13.6749 13.75 15.2512 14.0914 16.703 14.7514L18.9906 15.7912C21.4766 16.9212 23.7391 18.4891 25.67 20.42Z" stroke="white" stroke-width="7.5"/>
</svg>
