<svg width="63" height="54" viewBox="0 0 63 54" fill="none" xmlns="http://www.w3.org/2000/svg">
<path d="M36.83 20.92L30.6435 27.1065C29.958 27.792 28.8022 27.6045 28.3687 26.7373L24 18L21.0461 12.5845C20.0263 10.7149 18.6325 9.07524 16.9514 7.76775L14.5736 5.91832C13.3917 4.99908 11.9371 4.5 10.4398 4.5H10.3559C7.71336 4.5 5.32507 6.07483 4.28412 8.50372C3.93171 9.326 3.75 10.2113 3.75 11.1059V15.1915C3.75 17.0586 3.94725 18.9205 4.33847 20.7462L4.93683 23.5385C5.64192 26.8289 6.81835 30.0003 8.42974 32.9545C9.80468 35.4752 11.4849 37.817 13.4325 39.9268L19.5 46.5C23.4398 50.4398 29.593 51.1009 34.2798 48.088L36.75 46.5L39.9054 44.2912C42.7963 42.2676 45.5048 39.9952 48 37.5L49.5826 35.9174C51.0248 34.4752 52.3382 32.9098 53.5077 31.2389L56.02 27.65C56.6685 26.7236 57.1521 25.6922 57.4496 24.6013L58.0873 22.2631C58.7861 19.7011 57.8152 16.9751 55.6543 15.4317C54.5784 14.6631 53.2892 14.25 51.967 14.25H50.4199C48.8251 14.25 47.2488 14.5914 45.797 15.2514L43.5094 16.2912C41.0234 17.4212 38.7609 18.9891 36.83 20.92Z" stroke="white" stroke-width="7.5"/>
</svg>
