<svg width="249" height="231" viewBox="0 0 249 231" fill="none" xmlns="http://www.w3.org/2000/svg">
<g filter="url(#filter0_f_282_97)">
<path d="M223.251 148.142L219.997 147.644L215.487 146.53L211.499 145.289L208.076 144.095L203.27 141.763L199.112 139.826L195.868 137.851L192.364 135.571L189.034 133.419C188.842 133.295 188.603 133.489 188.684 133.702V133.702M223.251 148.142L227.291 148.08V148.08C229.314 147.833 231.306 147.38 233.237 146.728L234.25 146.386M223.251 148.142L216.791 142.433C213.22 139.278 209.317 136.52 205.15 134.208L195.774 129.006L181.826 122.545M234.25 146.386L235.519 145.053C236.04 144.506 236.477 143.884 236.815 143.208V143.208C237.375 142.087 237.65 140.844 237.615 139.592L237.597 138.937M234.25 146.386L215.319 130.62L195.653 117.603C189.659 113.601 174.543 103.78 162.033 96.5115M237.597 138.937L237.297 137.704C237.074 136.788 236.776 135.892 236.405 135.024V135.024C235.922 133.893 235.318 132.817 234.604 131.816L232.88 129.396V129.396C230.388 126.206 227.554 123.298 224.428 120.725L223.6 120.044L217.891 116.274L203.002 108.103M237.597 138.937L230.359 135.165C227.602 133.728 224.952 132.095 222.429 130.279V130.279C215.062 124.974 208.889 118.182 204.31 110.342L203.002 108.103M203.002 108.103L185.456 101.131L172.11 96.2704L157.245 91.2265M157.245 91.2265L162.033 96.5115M157.245 91.2265L154.781 89.4305V89.4305C153.633 88.5449 152.146 88.2289 150.737 88.5716L148.791 89.0452C148.56 89.1015 148.321 89.1147 148.085 89.0842L147.738 89.0395C146.79 88.917 146.153 88.0035 146.366 87.0708V87.0708C146.398 86.9304 146.449 86.7949 146.517 86.6679L147.578 84.685C148.233 83.4608 148.662 82.1288 148.845 80.7526V80.7526C148.964 79.8576 148.977 78.9518 148.886 78.0537L148.533 74.5922C148.506 74.329 148.411 74.0773 148.257 73.8619V73.8619C147.768 73.1761 147.928 72.2238 148.614 71.735L148.653 71.7072C148.844 71.5713 149.002 71.3944 149.115 71.1897L149.506 70.4856C150.132 69.3573 150.311 68.0345 150.005 66.7807L149.669 65.3989C149.533 64.8378 149.341 64.2914 149.097 63.768L148.682 62.8766C148.184 61.8098 147.4 60.9025 146.416 60.2564V60.2564C145.394 59.585 144.199 59.2237 142.976 59.2161L142.364 59.2123C141.574 59.2073 140.796 59.4073 140.107 59.7926V59.7926C138.923 60.4543 137.507 60.5556 136.241 60.0693L135.596 59.8215M162.033 96.5115L169.793 105.68L173.024 109.87L176.382 114.581L179.524 119.161L181.826 122.545M188.684 133.702V133.702C188.855 134.151 189.064 134.585 189.31 134.997L191.433 138.562L194.269 143.4L197.919 150.068L202.463 159.651L206.142 168.708L208.23 175.018L209.044 178.361C209.291 179.379 209.455 180.414 209.531 181.458L209.592 182.285C209.635 182.859 209.626 183.437 209.566 184.01L209.537 184.282C209.433 185.283 209.145 186.256 208.69 187.154L208.546 187.436C208.11 188.295 207.495 189.052 206.743 189.654V189.654C205.971 190.273 205.073 190.714 204.112 190.948L203.109 191.192C202.202 191.413 201.271 191.522 200.337 191.516L199.425 191.51C198.51 191.504 197.598 191.432 196.694 191.294L196.622 191.283C195.408 191.097 194.214 190.799 193.055 190.392L190.767 189.589V189.589C188.553 188.537 186.483 187.206 184.608 185.628L182.335 183.716L176.978 179.123L171.715 173.4V173.4C169.274 170.928 167.034 168.264 165.017 165.435L163.569 163.404L159.313 156.515L155.141 149.975L151.232 143.001L149.344 139.495C148.71 138.317 146.932 138.688 146.821 140.021V140.021L146.686 147.794L145.502 156.559L144.233 164.977L142.871 174.523L140.826 182.024L138.922 187.832L136.586 193.376L133.624 198.83C133.139 199.723 132.586 200.577 131.97 201.385L131.2 202.395C130.38 203.47 129.387 204.401 128.261 205.151V205.151C127.078 205.939 125.766 206.514 124.384 206.85L123.925 206.962C122.733 207.252 121.499 207.332 120.279 207.197V207.197C118.749 207.028 117.265 206.52 115.951 205.72V205.72C114.851 205.05 113.873 204.182 113.082 203.166L112.677 202.645C112.137 201.952 111.663 201.211 111.26 200.431L110.411 198.786C109.523 197.066 108.783 195.273 108.198 193.428L106.692 188.673L104.701 180.495L103.395 175.129C102.489 171.406 101.91 167.611 101.665 163.787L101.44 160.28L101.119 149.116L101.301 140.779V140.779C101.327 138.772 98.7592 137.918 97.5788 139.541L95.0332 143.041L85.4556 153.665L76.2352 162.728L66.0555 172.393L56.5387 180.238L51.4323 184.245L47.4307 187.184C46.3487 187.979 45.1933 188.669 43.9802 189.244L41.8358 190.261C41.2902 190.52 40.7079 190.692 40.1094 190.773L39.6235 190.838C38.3455 191.01 37.0528 190.651 36.0471 189.844V189.844C35.5746 189.464 35.1798 188.998 34.8842 188.469L34.3715 187.552C33.9256 186.754 33.59 185.899 33.3739 185.011L33.2734 184.598C33.05 183.68 32.9257 182.741 32.9024 181.797L32.8901 181.301C32.8525 179.776 33.0106 178.253 33.3605 176.768L34.6137 171.45C35.2996 168.54 36.2012 165.684 37.3109 162.908L41.6002 152.176L47.27 141.397L52.4418 133.872M188.684 133.702L186.367 129.106L182.967 124.221L181.826 122.545M52.4418 133.872L59.5836 123.841M52.4418 133.872L48.0921 134.931L42.8725 136.201L42.6435 136.257C39.5584 137.008 36.3981 137.406 33.2232 137.444V137.444L31.2813 137.45C29.5237 137.456 27.7821 137.117 26.1544 136.454L25.8692 136.338C25.2494 136.086 24.6556 135.774 24.0963 135.406L22.8496 134.588C22.2047 134.164 21.6781 133.583 21.3193 132.9V132.9M59.5836 123.841L65.489 117.059L74.3615 108.081L81.8751 101.092L87.0708 96.6949M59.5836 123.841L47.1102 126.327L42.6019 127.777C39.4817 128.781 36.4408 130.016 33.5048 131.473L26.0647 135.164M87.0708 96.6949L93.0002 93.0403L99.3198 89.475M87.0708 96.6949C68.6595 108.159 49.8392 118.875 42.7304 122.799L21.3193 132.9M99.3198 89.475L95.4234 89.9601C91.8263 90.4079 88.2723 91.1524 84.7979 92.1859L69.5682 96.7158L68.9727 96.8868M99.3198 89.475L101.491 88.0585C101.842 87.8299 102.136 87.5258 102.354 87.1684L102.631 86.7129C103.059 86.0093 103.873 85.6373 104.685 85.7735V85.7735L106.71 86.2369C107.178 86.344 107.626 86.5259 108.036 86.7755L108.881 87.2892C109.055 87.3954 109.256 87.4496 109.46 87.4455V87.4455C110.147 87.4317 110.644 86.7856 110.482 86.1183L109.189 80.8072L108.836 78.6029C108.604 77.1565 108.855 75.674 109.55 74.3844L110.254 73.0768C110.582 72.4679 110.673 71.759 110.509 71.087V71.087L110.044 69.1731L109.756 67.9902C109.581 67.2741 109.503 66.5381 109.524 65.8014V65.8014C109.541 65.1827 109.627 64.5679 109.781 63.9684L109.955 63.2897C110.186 62.3896 110.618 61.5537 111.219 60.8449V60.8449C111.657 60.328 112.178 59.8873 112.76 59.5405L113.106 59.3348C113.681 58.9921 114.304 58.7373 114.955 58.579V58.579C116.244 58.2653 117.596 58.3402 118.843 58.794L119.965 59.2027L120.064 59.2516C121.623 60.0159 123.399 60.2097 125.086 59.7993V59.7993M21.2303 124.513L22.2606 122.902C23.6173 120.78 25.1759 118.794 26.9147 116.972V116.972C28.9829 114.805 31.2934 112.883 33.8007 111.243L37.6588 108.721L47.7761 103.901C51.0444 102.344 54.4357 101.06 57.9154 100.061L68.9727 96.8868M21.2303 124.513L20.4267 128.026L20.4114 128.172C20.2406 129.803 20.5566 131.449 21.3193 132.9V132.9M21.2303 124.513L26.9127 122.879C30.9947 121.706 34.9534 120.139 38.7333 118.202L47.8651 113.522L54.9617 108.781C57.9107 106.812 60.6956 104.607 63.2891 102.188L68.9727 96.8868M135.596 59.8215L136.502 53.7034L136.746 52.8796C137.794 49.3313 139.156 45.847 140.785 42.5251V42.5251L144.56 36.0776L147.715 31.6239L150.908 28.0826L154.843 23.8076M135.596 59.8215L134.268 59.2526C133.511 58.9285 132.71 58.7201 131.892 58.6345V58.6345C130.957 58.5366 130.012 58.6002 129.099 58.8225L126.651 59.4182L125.086 59.7993M125.086 59.7993L123.731 54.2317L120.616 45.2222L117.789 38.9071L114.097 32.0655L108.025 23.7758" stroke="#FF002B" stroke-width="2.77853"/>
</g>
<g filter="url(#filter1_f_282_97)">
<path d="M223.251 148.142L219.997 147.644L215.487 146.53L211.499 145.289L208.076 144.095L203.27 141.763L199.112 139.826L195.868 137.851L192.364 135.571L189.034 133.419C188.842 133.295 188.603 133.489 188.684 133.702V133.702M223.251 148.142L227.291 148.08V148.08C229.314 147.833 231.306 147.38 233.237 146.728L234.25 146.386M223.251 148.142L216.791 142.433C213.22 139.278 209.317 136.52 205.15 134.208L195.774 129.006L181.826 122.545M234.25 146.386L235.519 145.053C236.04 144.506 236.477 143.884 236.815 143.208V143.208C237.375 142.087 237.65 140.844 237.615 139.592L237.597 138.937M234.25 146.386L215.319 130.62L195.653 117.603C189.659 113.601 174.543 103.78 162.033 96.5115M237.597 138.937L237.297 137.704C237.074 136.788 236.776 135.892 236.405 135.024V135.024C235.922 133.893 235.318 132.817 234.604 131.816L232.88 129.396V129.396C230.388 126.206 227.554 123.298 224.428 120.725L223.6 120.044L217.891 116.274L203.002 108.103M237.597 138.937L230.359 135.165C227.602 133.728 224.952 132.095 222.429 130.279V130.279C215.062 124.974 208.889 118.182 204.31 110.342L203.002 108.103M203.002 108.103L185.456 101.131L172.11 96.2704L157.245 91.2265M157.245 91.2265L162.033 96.5115M157.245 91.2265L154.781 89.4305V89.4305C153.633 88.5449 152.146 88.2289 150.737 88.5716L148.791 89.0452C148.56 89.1015 148.321 89.1147 148.085 89.0842L147.738 89.0395C146.79 88.917 146.153 88.0035 146.366 87.0708V87.0708C146.398 86.9304 146.449 86.7949 146.517 86.6679L147.578 84.685C148.233 83.4608 148.662 82.1288 148.845 80.7526V80.7526C148.964 79.8576 148.977 78.9518 148.886 78.0537L148.533 74.5922C148.506 74.329 148.411 74.0773 148.257 73.8619V73.8619C147.768 73.1761 147.928 72.2238 148.614 71.735L148.653 71.7072C148.844 71.5713 149.002 71.3944 149.115 71.1897L149.506 70.4856C150.132 69.3573 150.311 68.0345 150.005 66.7807L149.669 65.3989C149.533 64.8378 149.341 64.2914 149.097 63.768L148.682 62.8766C148.184 61.8098 147.4 60.9025 146.416 60.2564V60.2564C145.394 59.585 144.199 59.2237 142.976 59.2161L142.364 59.2123C141.574 59.2073 140.796 59.4073 140.107 59.7926V59.7926C138.923 60.4543 137.507 60.5556 136.241 60.0693L135.596 59.8215M162.033 96.5115L169.793 105.68L173.024 109.87L176.382 114.581L179.524 119.161L181.826 122.545M188.684 133.702V133.702C188.855 134.151 189.064 134.585 189.31 134.997L191.433 138.562L194.269 143.4L197.919 150.068L202.463 159.651L206.142 168.708L208.23 175.018L209.044 178.361C209.291 179.379 209.455 180.414 209.531 181.458L209.592 182.285C209.635 182.859 209.626 183.437 209.566 184.01L209.537 184.282C209.433 185.283 209.145 186.256 208.69 187.154L208.546 187.436C208.11 188.295 207.495 189.052 206.743 189.654V189.654C205.971 190.273 205.073 190.714 204.112 190.948L203.109 191.192C202.202 191.413 201.271 191.522 200.337 191.516L199.425 191.51C198.51 191.504 197.598 191.432 196.694 191.294L196.622 191.283C195.408 191.097 194.214 190.799 193.055 190.392L190.767 189.589V189.589C188.553 188.537 186.483 187.206 184.608 185.628L182.335 183.716L176.978 179.123L171.715 173.4V173.4C169.274 170.928 167.034 168.264 165.017 165.435L163.569 163.404L159.313 156.515L155.141 149.975L151.232 143.001L149.344 139.495C148.71 138.317 146.932 138.688 146.821 140.021V140.021L146.686 147.794L145.502 156.559L144.233 164.977L142.871 174.523L140.826 182.024L138.922 187.832L136.586 193.376L133.624 198.83C133.139 199.723 132.586 200.577 131.97 201.385L131.2 202.395C130.38 203.47 129.387 204.401 128.261 205.151V205.151C127.078 205.939 125.766 206.514 124.384 206.85L123.925 206.962C122.733 207.252 121.499 207.332 120.279 207.197V207.197C118.749 207.028 117.265 206.52 115.951 205.72V205.72C114.851 205.05 113.873 204.182 113.082 203.166L112.677 202.645C112.137 201.952 111.663 201.211 111.26 200.431L110.411 198.786C109.523 197.066 108.783 195.273 108.198 193.428L106.692 188.673L104.701 180.495L103.395 175.129C102.489 171.406 101.91 167.611 101.665 163.787L101.44 160.28L101.119 149.116L101.301 140.779V140.779C101.327 138.772 98.7592 137.918 97.5788 139.541L95.0332 143.041L85.4556 153.665L76.2352 162.728L66.0555 172.393L56.5387 180.238L51.4323 184.245L47.4307 187.184C46.3487 187.979 45.1933 188.669 43.9802 189.244L41.8358 190.261C41.2902 190.52 40.7079 190.692 40.1094 190.773L39.6235 190.838C38.3455 191.01 37.0528 190.651 36.0471 189.844V189.844C35.5746 189.464 35.1798 188.998 34.8842 188.469L34.3715 187.552C33.9256 186.754 33.59 185.899 33.3739 185.011L33.2734 184.598C33.05 183.68 32.9257 182.741 32.9024 181.797L32.8901 181.301C32.8525 179.776 33.0106 178.253 33.3605 176.768L34.6137 171.45C35.2996 168.54 36.2012 165.684 37.3109 162.908L41.6002 152.176L47.27 141.397L52.4418 133.872M188.684 133.702L186.367 129.106L182.967 124.221L181.826 122.545M52.4418 133.872L59.5836 123.841M52.4418 133.872L48.0921 134.931L42.8725 136.201L42.6435 136.257C39.5584 137.008 36.3981 137.406 33.2232 137.444V137.444L31.2813 137.45C29.5237 137.456 27.7821 137.117 26.1544 136.454L25.8692 136.338C25.2494 136.086 24.6556 135.774 24.0963 135.406L22.8496 134.588C22.2047 134.164 21.6781 133.583 21.3193 132.9V132.9M59.5836 123.841L65.489 117.059L74.3615 108.081L81.8751 101.092L87.0708 96.6949M59.5836 123.841L47.1102 126.327L42.6019 127.777C39.4817 128.781 36.4408 130.016 33.5048 131.473L26.0647 135.164M87.0708 96.6949L93.0002 93.0403L99.3198 89.475M87.0708 96.6949C68.6595 108.159 49.8392 118.875 42.7304 122.799L21.3193 132.9M99.3198 89.475L95.4234 89.9601C91.8263 90.4079 88.2723 91.1524 84.7979 92.1859L69.5682 96.7158L68.9727 96.8868M99.3198 89.475L101.491 88.0585C101.842 87.8299 102.136 87.5258 102.354 87.1684L102.631 86.7129C103.059 86.0093 103.873 85.6373 104.685 85.7735V85.7735L106.71 86.2369C107.178 86.344 107.626 86.5259 108.036 86.7755L108.881 87.2892C109.055 87.3954 109.256 87.4496 109.46 87.4455V87.4455C110.147 87.4317 110.644 86.7856 110.482 86.1183L109.189 80.8072L108.836 78.6029C108.604 77.1565 108.855 75.674 109.55 74.3844L110.254 73.0768C110.582 72.4679 110.673 71.759 110.509 71.087V71.087L110.044 69.1731L109.756 67.9902C109.581 67.2741 109.503 66.5381 109.524 65.8014V65.8014C109.541 65.1827 109.627 64.5679 109.781 63.9684L109.955 63.2897C110.186 62.3896 110.618 61.5537 111.219 60.8449V60.8449C111.657 60.328 112.178 59.8873 112.76 59.5405L113.106 59.3348C113.681 58.9921 114.304 58.7373 114.955 58.579V58.579C116.244 58.2653 117.596 58.3402 118.843 58.794L119.965 59.2027L120.064 59.2516C121.623 60.0159 123.399 60.2097 125.086 59.7993V59.7993M21.2303 124.513L22.2606 122.902C23.6173 120.78 25.1759 118.794 26.9147 116.972V116.972C28.9829 114.805 31.2934 112.883 33.8007 111.243L37.6588 108.721L47.7761 103.901C51.0444 102.344 54.4357 101.06 57.9154 100.061L68.9727 96.8868M21.2303 124.513L20.4267 128.026L20.4114 128.172C20.2406 129.803 20.5566 131.449 21.3193 132.9V132.9M21.2303 124.513L26.9127 122.879C30.9947 121.706 34.9534 120.139 38.7333 118.202L47.8651 113.522L54.9617 108.781C57.9107 106.812 60.6956 104.607 63.2891 102.188L68.9727 96.8868M135.596 59.8215L136.502 53.7034L136.746 52.8796C137.794 49.3313 139.156 45.847 140.785 42.5251V42.5251L144.56 36.0776L147.715 31.6239L150.908 28.0826L154.843 23.8076M135.596 59.8215L134.268 59.2526C133.511 58.9285 132.71 58.7201 131.892 58.6345V58.6345C130.957 58.5366 130.012 58.6002 129.099 58.8225L126.651 59.4182L125.086 59.7993M125.086 59.7993L123.731 54.2317L120.616 45.2222L117.789 38.9071L114.097 32.0655L108.025 23.7758" stroke="white" stroke-width="0.716258"/>
</g>
<defs>
<filter id="filter0_f_282_97" x="13.4195" y="17.3092" width="231.145" height="196.897" filterUnits="userSpaceOnUse" color-interpolation-filters="sRGB">
<feFlood flood-opacity="0" result="BackgroundImageFix"/>
<feBlend mode="normal" in="SourceGraphic" in2="BackgroundImageFix" result="shape"/>
<feGaussianBlur stdDeviation="2.77853" result="effect1_foregroundBlur_282_97"/>
</filter>
<filter id="filter1_f_282_97" x="18.6185" y="22.1752" width="220.747" height="186.833" filterUnits="userSpaceOnUse" color-interpolation-filters="sRGB">
<feFlood flood-opacity="0" result="BackgroundImageFix"/>
<feBlend mode="normal" in="SourceGraphic" in2="BackgroundImageFix" result="shape"/>
<feGaussianBlur stdDeviation="0.694632" result="effect1_foregroundBlur_282_97"/>
</filter>
</defs>
</svg>
