<svg width="223" height="223" viewBox="0 0 223 223" fill="none" xmlns="http://www.w3.org/2000/svg">
<g filter="url(#filter0_f_239_4)">
<path d="M106.207 8.82929L154.087 191.345L143.433 192.702C138.536 193.325 133.599 193.576 128.664 193.453L127.055 193.413C122.821 193.308 118.602 192.857 114.441 192.066C109.763 191.177 105.177 189.861 100.74 188.135L98.1689 187.135C93.6894 185.392 89.3467 183.317 85.1772 180.926C79.0612 177.418 73.349 173.25 68.1434 168.495L66.7015 167.178C62.5519 163.387 58.8079 159.176 55.5299 154.611C52.0195 149.722 49.0648 144.457 46.7203 138.914L42.6519 129.295L40.0412 120.07C38.492 114.595 37.4538 108.989 36.94 103.323L36.6685 100.328C36.1809 94.9517 36.3433 89.5361 37.1521 84.1986C38.0002 78.6016 39.5796 73.0705 41.7991 67.8628C44.3603 61.8535 47.801 56.1689 51.9547 51.1273L56.7021 45.3651L69.8334 31.9811L81.9345 21.7891L83.3413 20.8749C90.1215 16.4689 97.2682 12.6543 104.702 9.47327L106.207 8.82929Z" stroke="#FA9203" stroke-width="6"/>
<path d="M125.345 143.922L129.881 170.434C130.292 172.835 128.902 175.18 126.599 175.972C126.093 176.146 125.564 176.237 125.029 176.242L120.673 176.284C119.167 176.298 117.663 176.205 116.17 176.007L110.977 175.315L108.089 174.862C105.771 174.498 103.496 173.901 101.299 173.08C98.8964 172.182 96.6006 171.022 94.4532 169.62L91.2801 167.548L82.1891 159.679L77.8526 154.716C76.4609 153.124 75.3012 151.342 74.4077 149.425L73.5834 147.657C73.228 146.894 72.9831 146.085 72.8562 145.253L72.6666 144.011C72.5458 143.219 72.6451 142.409 72.9536 141.67C73.6136 140.088 75.1373 139.039 76.8501 138.986L98.9567 138.305L111.641 137.714C112.725 137.664 113.812 137.701 114.89 137.825L119.464 138.353C120.955 138.525 122.347 139.189 123.419 140.24C124.432 141.235 125.106 142.523 125.345 143.922Z" stroke="#FCBD3B" stroke-width="6"/>
<path d="M98.1416 35.4803L102.099 60.638C102.676 64.3058 101.042 67.97 97.9292 69.9931C97.4766 70.2872 96.9995 70.5419 96.5032 70.7542L84.5722 75.8594L74.5419 80.7282L66.0974 85.0515L63.1741 86.414C61.4389 87.2228 59.3839 86.8703 58.0174 85.5295C57.4029 84.9267 56.9703 84.1633 56.7687 83.3265L56.0982 80.5421C55.6508 78.6843 55.5729 76.7567 55.8691 74.8689L56.4205 71.3545L57.3225 65.9422C57.7224 63.5428 58.4675 61.2138 59.5346 59.0278C60.538 56.9723 61.8165 55.0628 63.335 53.352L71.0164 44.6977L76.6836 38.9215C77.8056 37.7779 79.0282 36.7376 80.3367 35.8132L81.3716 35.082C83.9048 33.2923 86.8024 32.0847 89.8569 31.5457L91.0125 31.3417C91.3849 31.276 91.7621 31.2412 92.1402 31.2376L93.1202 31.2282C94.8034 31.2122 96.3833 32.0385 97.3304 33.4301C97.7489 34.0452 98.026 34.7454 98.1416 35.4803Z" stroke="#FFBA3E" stroke-width="6"/>
<path d="M55.8289 105.279L59.1367 122.37C59.7536 125.557 62.0557 128.156 65.1452 129.154C66.0562 129.448 67.0086 129.593 67.9659 129.584L76.0661 129.507L86.6722 129.406L102.046 128.729L109.358 128.229C110.485 128.152 111.597 127.926 112.666 127.559L114.054 127.082C116.206 126.341 118.002 124.821 119.088 122.822C119.693 121.708 120.059 120.48 120.161 119.217L120.297 117.554C120.419 116.054 120.341 114.545 120.065 113.065L118.804 106.294L116.066 97.3043L114.833 93.7176C114.202 91.8853 113.373 90.1274 112.361 88.4754L111.722 87.4335C111.011 86.2743 110.161 85.2066 109.191 84.2543L108.3 83.3806C107.378 82.476 106.292 81.7558 105.1 81.2583C103.831 80.7288 102.468 80.4625 101.094 80.4756L100.808 80.4784C99.5672 80.4902 98.3366 80.7019 97.1633 81.1055L94.1771 82.1326L89.4195 83.769L82.5508 86.4862L70.3993 91.3752L64.5912 94.0823L63.7069 94.535C61.496 95.6669 59.4821 97.1478 57.7427 98.9207C56.0983 100.597 55.3828 102.974 55.8289 105.279Z" stroke="#FFBB3E" stroke-width="6"/>
</g>
<path d="M106.707 8.82831L154.587 191.344L143.933 192.701C139.036 193.324 134.099 193.575 129.164 193.452L127.555 193.412C123.321 193.307 119.102 192.856 114.941 192.065C110.263 191.176 105.677 189.86 101.24 188.134L98.6689 187.134C94.1894 185.391 89.8467 183.316 85.6772 180.925C79.5612 177.417 73.849 173.249 68.6434 168.494L67.2015 167.177C63.0519 163.386 59.3079 159.175 56.0299 154.61C52.5195 149.721 49.5648 144.456 47.2203 138.913L43.1519 129.294L40.5412 120.069C38.992 114.594 37.9538 108.988 37.44 103.322L37.1685 100.327C36.6809 94.9507 36.8433 89.5352 37.6521 84.1976C38.5002 78.6006 40.0796 73.0696 42.2991 67.8619C44.8603 61.8525 48.301 56.168 52.4547 51.1263L57.2021 45.3641L70.3334 31.9801L82.4345 21.7881L83.8413 20.8739C90.6215 16.4679 97.7682 12.6533 105.202 9.47229L106.707 8.82831Z" stroke="white"/>
<path d="M125.845 143.921L130.381 170.433C130.792 172.834 129.402 175.179 127.099 175.971C126.593 176.145 126.064 176.236 125.529 176.241L121.173 176.283C119.667 176.297 118.163 176.204 116.67 176.006L111.477 175.314L108.589 174.861C106.271 174.497 103.996 173.901 101.799 173.079C99.3964 172.181 97.1006 171.021 94.9532 169.619L91.7801 167.547L82.6891 159.678L78.3526 154.715C76.9609 153.123 75.8012 151.341 74.9077 149.424L74.0834 147.656C73.728 146.893 73.4831 146.084 73.3562 145.252L73.1666 144.01C73.0458 143.218 73.1451 142.408 73.4536 141.669C74.1136 140.087 75.6373 139.038 77.3501 138.985L99.4567 138.304L112.141 137.713C113.225 137.663 114.312 137.7 115.39 137.824L119.964 138.352C121.455 138.524 122.847 139.188 123.919 140.24C124.932 141.234 125.606 142.522 125.845 143.921Z" stroke="white"/>
<path d="M98.6416 35.4793L102.599 60.6371C103.176 64.3048 101.542 67.969 98.4292 69.9921C97.9766 70.2862 97.4995 70.5409 97.0032 70.7532L85.0722 75.8584L75.0419 80.7272L66.5974 85.0505L63.6741 86.413C61.9389 87.2218 59.8839 86.8693 58.5174 85.5286C57.9029 84.9257 57.4703 84.1623 57.2687 83.3255L56.5982 80.5411C56.1508 78.6833 56.0729 76.7557 56.3691 74.868L56.9205 71.3535L57.8225 65.9412C58.2224 63.5418 58.9675 61.2129 60.0346 59.0269C61.038 56.9713 62.3165 55.0618 63.835 53.3511L71.5164 44.6967L77.1836 38.9205C78.3056 37.7769 79.5282 36.7367 80.8367 35.8122L81.8716 35.0811C84.4048 33.2913 87.3024 32.0837 90.3569 31.5447L91.5125 31.3408C91.8849 31.275 92.2621 31.2402 92.6402 31.2366L93.6202 31.2272C95.3034 31.2112 96.8833 32.0375 97.8304 33.4291C98.2489 34.0442 98.526 34.7444 98.6416 35.4793Z" stroke="white"/>
<path d="M56.3289 105.278L59.6367 122.369C60.2536 125.556 62.5557 128.155 65.6452 129.153C66.5562 129.447 67.5086 129.592 68.4659 129.583L76.5661 129.506L87.1722 129.405L102.546 128.728L109.858 128.228C110.985 128.151 112.097 127.925 113.166 127.558L114.554 127.081C116.706 126.34 118.502 124.82 119.588 122.821C120.193 121.707 120.559 120.479 120.661 119.216L120.797 117.553C120.919 116.053 120.841 114.544 120.565 113.064L119.304 106.293L116.566 97.3033L115.333 93.7166C114.702 91.8843 113.873 90.1264 112.861 88.4744L112.222 87.4325C111.511 86.2733 110.661 85.2056 109.691 84.2533L108.8 83.3796C107.878 82.4751 106.792 81.7548 105.6 81.2574C104.331 80.7278 102.968 80.4616 101.594 80.4747L101.308 80.4774C100.067 80.4892 98.8366 80.701 97.6633 81.1045L94.6771 82.1316L89.9195 83.768L83.0508 86.4852L70.8993 91.3742L65.0912 94.0813L64.2069 94.534C61.996 95.6659 59.9821 97.1468 58.2427 98.9197C56.5983 100.596 55.8828 102.973 56.3289 105.278Z" stroke="white"/>
<defs>
<filter id="filter0_f_239_4" x="29.3945" y="0.702148" width="132.461" height="199.781" filterUnits="userSpaceOnUse" color-interpolation-filters="sRGB">
<feFlood flood-opacity="0" result="BackgroundImageFix"/>
<feBlend mode="normal" in="SourceGraphic" in2="BackgroundImageFix" result="shape"/>
<feGaussianBlur stdDeviation="2" result="effect1_foregroundBlur_239_4"/>
</filter>
</defs>
</svg>
