<svg width="189" height="226" viewBox="0 0 189 226" fill="none" xmlns="http://www.w3.org/2000/svg">
<g filter="url(#filter0_f_282_103)">
<path d="M107.085 59.0389L109.975 62.0728C110.666 62.7985 111.166 63.6852 111.428 64.6526V64.6526C111.934 66.5202 111.513 68.5173 110.295 70.0212L109.307 71.2413L108.013 72.8637C107.263 73.8038 106.704 74.8812 106.368 76.0356V76.0356C105.892 77.6665 105.875 79.397 106.32 81.0367L106.414 81.3852C106.981 83.4739 108.178 85.3371 109.842 86.7205L114.569 90.6502L122.237 98.1209L132.324 109.711L141.308 122.034L149.209 133.565L155.695 145.48L164.503 164.361L167.863 173.503C168.378 174.904 168.733 176.359 168.922 177.839L169.6 183.164L169.704 185.687C169.764 187.128 169.451 188.561 168.797 189.847L168.15 191.119C167.484 192.427 166.297 193.392 164.881 193.776V193.776C163.465 194.159 161.952 193.926 160.718 193.134L157.665 191.174L151.37 186.369L144.271 179.396L138.018 171.541L130.227 160.414L123.035 151.183C122.063 149.935 121.244 148.575 120.595 147.133L115.566 135.957L111.264 149.711L108.488 163.486L104.94 176.819L100.951 188.214C100.758 188.766 100.47 189.28 100.101 189.734L98.5921 191.59C97.0783 193.451 94.1683 193.213 92.9765 191.131V191.131L88.388 181.685C87.8463 180.569 87.4103 179.405 87.0858 178.209L84.1206 167.271L82.2682 160.438C81.969 159.334 81.7658 158.207 81.6609 157.068L80.5895 145.439L76.1101 155.335L71.6343 162.842L66.2024 170.826L59.7974 178.422L53.071 184.83C52.0395 185.813 50.8919 186.666 49.6537 187.371L47.0598 188.846C46.1609 189.358 45.146 189.63 44.1119 189.638L43.6418 189.642C42.3188 189.651 41.0474 189.129 40.1134 188.192V188.192C39.5075 187.585 39.0708 186.829 38.8462 186.001L38.4064 184.379C38.0897 183.21 37.9634 181.999 38.0324 180.79L38.1374 178.95C38.1992 177.868 38.3496 176.793 38.5871 175.735L40.0984 169.004L44.1771 156.83L48.3825 145.923L55.2953 130.593L63.6574 116.606L69.002 107.027C69.5278 106.084 70.1296 105.186 70.8015 104.342L80.7995 91.7748L86.4515 85.6513C87.4824 84.5343 88.2815 83.224 88.8026 81.7961L89.0795 81.0374C89.3626 80.2616 89.5058 79.4418 89.5024 78.616L89.5017 78.4445C89.4968 77.2474 89.1552 76.0759 88.516 75.0637V75.0637C88.1562 74.4939 87.7084 73.9847 87.1892 73.555L86.5662 73.0393C85.2966 71.9885 84.3835 70.5703 83.9523 68.9797L83.8829 68.7237C83.6784 67.9694 83.6112 67.1844 83.6846 66.4062V66.4062C83.8299 64.8654 84.51 63.4159 85.694 62.4192C86.933 61.3761 88.5229 60.1602 90.0164 59.3253M107.085 59.0389L111.614 47.2654C112.073 46.0711 112.647 44.9241 113.327 43.8404L120.187 32.9152L126.612 23.7941L133.864 15.3172L140.029 8.43698M107.085 59.0389L103.964 57.6824C102.77 57.1638 101.507 56.8239 100.215 56.6736V56.6736C98.5417 56.479 96.8467 56.6055 95.2208 57.0462L94.9778 57.1121C93.9532 57.3899 92.9622 57.7789 92.0223 58.2723L90.0164 59.3253M90.0164 59.3253L88.0408 56.2729C87.3676 55.2328 86.5984 54.2581 85.7433 53.3616L77.3254 44.5349L72.2481 39.2733C71.2094 38.197 70.0523 37.2416 68.7989 36.4254L66.9049 35.192C65.0455 33.9812 62.9961 33.091 60.8421 32.5585L57.2705 31.6755C56.2395 31.4206 55.1897 31.249 54.1312 31.1622L50.2735 30.8459C48.5852 30.7075 46.8861 30.7859 45.2178 31.0793L41.5708 31.7207C39.6118 32.0652 37.7158 32.7024 35.9464 33.6109L29.6615 36.8382" stroke="#FFC700" stroke-width="6"/>
</g>
<g filter="url(#filter1_f_282_103)">
<path d="M107.085 59.0389L109.975 62.0728C110.666 62.7985 111.166 63.6852 111.428 64.6526V64.6526C111.934 66.5202 111.513 68.5173 110.295 70.0212L109.307 71.2413L108.013 72.8637C107.263 73.8038 106.704 74.8812 106.368 76.0356V76.0356C105.892 77.6665 105.875 79.397 106.32 81.0367L106.414 81.3852C106.981 83.4739 108.178 85.3371 109.842 86.7205L114.569 90.6502L122.237 98.1209L132.324 109.711L141.308 122.034L149.209 133.565L155.695 145.48L164.503 164.361L167.863 173.503C168.378 174.904 168.733 176.359 168.922 177.839L169.6 183.164L169.704 185.687C169.764 187.128 169.451 188.561 168.797 189.847L168.15 191.119C167.484 192.427 166.297 193.392 164.881 193.776V193.776C163.465 194.159 161.952 193.926 160.718 193.134L157.665 191.174L151.37 186.369L144.271 179.396L138.018 171.541L130.227 160.414L123.035 151.183C122.063 149.935 121.244 148.575 120.595 147.133L115.566 135.957L111.264 149.711L108.488 163.486L104.94 176.819L100.951 188.214C100.758 188.766 100.47 189.28 100.101 189.734L98.5921 191.59C97.0783 193.451 94.1683 193.213 92.9765 191.131V191.131L88.388 181.685C87.8463 180.569 87.4103 179.405 87.0858 178.209L84.1206 167.271L82.2682 160.438C81.969 159.334 81.7658 158.207 81.6609 157.068L80.5895 145.439L76.1101 155.335L71.6343 162.842L66.2024 170.826L59.7974 178.422L53.071 184.83C52.0395 185.813 50.8919 186.666 49.6537 187.371L47.0598 188.846C46.1609 189.358 45.146 189.63 44.1119 189.638L43.6418 189.642C42.3188 189.651 41.0474 189.129 40.1134 188.192V188.192C39.5075 187.585 39.0708 186.829 38.8462 186.001L38.4064 184.379C38.0897 183.21 37.9634 181.999 38.0324 180.79L38.1374 178.95C38.1992 177.868 38.3496 176.793 38.5871 175.735L40.0984 169.004L44.1771 156.83L48.3825 145.923L55.2953 130.593L63.6574 116.606L69.002 107.027C69.5278 106.084 70.1296 105.186 70.8015 104.342L80.7995 91.7748L86.4515 85.6513C87.4824 84.5343 88.2815 83.224 88.8026 81.7961L89.0795 81.0374C89.3626 80.2616 89.5058 79.4418 89.5024 78.616L89.5017 78.4445C89.4968 77.2474 89.1552 76.0759 88.516 75.0637V75.0637C88.1562 74.4939 87.7084 73.9847 87.1892 73.555L86.5662 73.0393C85.2966 71.9885 84.3835 70.5703 83.9523 68.9797L83.8829 68.7237C83.6784 67.9694 83.6112 67.1844 83.6846 66.4062V66.4062C83.8299 64.8654 84.51 63.4159 85.694 62.4192C86.933 61.3761 88.5229 60.1602 90.0164 59.3253M107.085 59.0389L111.614 47.2654C112.073 46.0711 112.647 44.9241 113.327 43.8404L120.187 32.9152L126.612 23.7941L133.864 15.3172L140.029 8.43698M107.085 59.0389L103.964 57.6824C102.77 57.1638 101.507 56.8239 100.215 56.6736V56.6736C98.5417 56.479 96.8467 56.6055 95.2208 57.0462L94.9778 57.1121C93.9532 57.3899 92.9622 57.7789 92.0223 58.2723L90.0164 59.3253M90.0164 59.3253L88.0408 56.2729C87.3676 55.2328 86.5984 54.2581 85.7433 53.3616L77.3254 44.5349L72.2481 39.2733C71.2094 38.197 70.0523 37.2416 68.7989 36.4254L66.9049 35.192C65.0455 33.9812 62.9961 33.091 60.8421 32.5585L57.2705 31.6755C56.2395 31.4206 55.1897 31.249 54.1312 31.1622L50.2735 30.8459C48.5852 30.7075 46.8861 30.7859 45.2178 31.0793L41.5708 31.7207C39.6118 32.0652 37.7158 32.7024 35.9464 33.6109L29.6615 36.8382" stroke="white" stroke-width="1.5"/>
</g>
<defs>
<filter id="filter0_f_282_103" x="22.291" y="0.43457" width="156.42" height="202.521" filterUnits="userSpaceOnUse" color-interpolation-filters="sRGB">
<feFlood flood-opacity="0" result="BackgroundImageFix"/>
<feBlend mode="normal" in="SourceGraphic" in2="BackgroundImageFix" result="shape"/>
<feGaussianBlur stdDeviation="3" result="effect1_foregroundBlur_282_103"/>
</filter>
<filter id="filter1_f_282_103" x="27.8184" y="6.43652" width="144.143" height="189.77" filterUnits="userSpaceOnUse" color-interpolation-filters="sRGB">
<feFlood flood-opacity="0" result="BackgroundImageFix"/>
<feBlend mode="normal" in="SourceGraphic" in2="BackgroundImageFix" result="shape"/>
<feGaussianBlur stdDeviation="0.75" result="effect1_foregroundBlur_282_103"/>
</filter>
</defs>
</svg>
