<svg width="362" height="130" viewBox="0 0 362 130" fill="none" xmlns="http://www.w3.org/2000/svg">
<g filter="url(#filter0_f_146_253)">
<rect x="19.4512" y="19.5" width="323.049" height="90.3181" rx="43.7573" stroke="#FF6200" stroke-width="9"/>
</g>
<g filter="url(#filter1_f_146_253)">
<rect x="17.2161" y="17.5882" width="327.527" height="94.7993" rx="46.9845" stroke="white" stroke-width="2.54556"/>
</g>
<path d="M71.3969 52.74C70.5169 52.74 69.6769 52.84 68.8769 53.04C68.0769 53.2 67.3569 53.54 66.7169 54.06C66.0769 54.54 65.5369 55.2 65.0969 56.04C64.6569 56.88 64.3569 57.96 64.1969 59.28H60.5969C60.6369 58.36 60.8569 57.38 61.2569 56.34C61.6569 55.26 62.2969 54.28 63.1769 53.4C64.0569 52.52 65.2369 51.8 66.7169 51.24C68.1969 50.64 70.0369 50.34 72.2369 50.34C74.2769 50.34 75.9969 50.6 77.3969 51.12C78.8369 51.6 79.9769 52.24 80.8169 53.04C81.6969 53.8 82.3169 54.66 82.6769 55.62C83.0769 56.54 83.2769 57.42 83.2769 58.26C83.2769 58.5 83.2169 58.98 83.0969 59.7C83.0169 60.38 82.7569 61.1 82.3169 61.86C81.8769 62.58 81.1969 63.26 80.2769 63.9C79.3569 64.54 78.0569 64.94 76.3769 65.1V65.52C77.8169 65.52 79.0769 65.76 80.1569 66.24C81.2769 66.68 82.1969 67.26 82.9169 67.98C83.6769 68.7 84.2569 69.52 84.6569 70.44C85.0569 71.32 85.2569 72.24 85.2569 73.2C85.2569 74.12 85.0369 75.08 84.5969 76.08C84.1569 77.08 83.3969 78 82.3169 78.84C81.2769 79.68 79.8569 80.38 78.0569 80.94C76.2569 81.46 73.9969 81.72 71.2769 81.72C69.5169 81.72 67.9969 81.58 66.7169 81.3C65.4769 81.06 64.3769 80.7 63.4169 80.22C62.4969 79.7 61.6969 79.04 61.0169 78.24C60.3369 77.44 59.6969 76.5 59.0969 75.42L61.9169 73.08C62.1969 74.16 62.6569 75.12 63.2969 75.96C63.9369 76.76 64.6769 77.44 65.5169 78C66.3969 78.52 67.3369 78.92 68.3369 79.2C69.3769 79.48 70.4369 79.62 71.5169 79.62C73.9169 79.62 75.8569 79.02 77.3369 77.82C78.8569 76.58 79.6169 74.9 79.6169 72.78C79.6169 71.34 79.2769 70.22 78.5969 69.42C77.9169 68.58 77.0969 67.96 76.1369 67.56C75.2169 67.16 74.2569 66.92 73.2569 66.84C72.2969 66.72 71.5169 66.66 70.9169 66.66H68.7569V64.62H70.7969C71.7569 64.62 72.6969 64.5 73.6169 64.26C74.5369 64.02 75.3569 63.66 76.0769 63.18C76.7969 62.7 77.3569 62.08 77.7569 61.32C78.1969 60.52 78.4169 59.58 78.4169 58.5C78.4169 56.82 77.8369 55.44 76.6769 54.36C75.5569 53.28 73.7969 52.74 71.3969 52.74ZM104.074 50.34C106.994 50.34 109.254 50.76 110.854 51.6C112.454 52.4 113.614 53.46 114.334 54.78C115.094 56.1 115.534 57.62 115.654 59.34C115.774 61.06 115.834 62.82 115.834 64.62V81H110.974V78.06C109.814 79.18 108.334 80.08 106.534 80.76C104.734 81.4 102.934 81.72 101.134 81.72C99.4144 81.72 97.8944 81.42 96.5744 80.82C95.2544 80.22 94.1544 79.44 93.2744 78.48C92.3944 77.52 91.7344 76.44 91.2944 75.24C90.8544 74.04 90.6344 72.82 90.6344 71.58C90.6344 70.3 90.8744 69.02 91.3544 67.74C91.8344 66.46 92.5544 65.32 93.5144 64.32C94.4744 63.28 95.6544 62.44 97.0544 61.8C98.4544 61.16 100.054 60.84 101.854 60.84C103.654 60.84 105.354 61.2 106.954 61.92C108.594 62.6 109.934 63.58 110.974 64.86V62.28C110.974 59 110.474 56.56 109.474 54.96C108.514 53.36 106.734 52.56 104.134 52.56C103.014 52.56 102.034 52.7 101.194 52.98C100.354 53.26 99.5944 53.66 98.9144 54.18C98.2744 54.66 97.6744 55.28 97.1144 56.04C96.5544 56.76 95.9944 57.58 95.4344 58.5L92.3144 55.38C92.8744 54.78 93.4544 54.18 94.0544 53.58C94.6944 52.98 95.4544 52.44 96.3344 51.96C97.2544 51.48 98.3344 51.1 99.5744 50.82C100.814 50.5 102.314 50.34 104.074 50.34ZM110.974 69.12C110.774 68.64 110.474 68.08 110.074 67.44C109.714 66.8 109.234 66.18 108.634 65.58C108.034 64.98 107.314 64.48 106.474 64.08C105.634 63.64 104.634 63.42 103.474 63.42C102.314 63.42 101.254 63.66 100.294 64.14C99.3344 64.58 98.5144 65.18 97.8344 65.94C97.1944 66.66 96.6944 67.52 96.3344 68.52C95.9744 69.52 95.7944 70.56 95.7944 71.64C95.7944 72.92 96.0144 74.04 96.4544 75C96.9344 75.92 97.5344 76.72 98.2544 77.4C98.9744 78.04 99.7744 78.52 100.654 78.84C101.534 79.16 102.374 79.32 103.174 79.32C103.934 79.32 104.694 79.18 105.454 78.9C106.254 78.62 106.994 78.24 107.674 77.76C108.394 77.24 109.034 76.64 109.594 75.96C110.154 75.28 110.614 74.54 110.974 73.74V69.12ZM145.117 53.4H130.537V81H125.437V51H145.117V53.4ZM161.555 50.34C164.475 50.34 166.735 50.76 168.335 51.6C169.935 52.4 171.095 53.46 171.815 54.78C172.575 56.1 173.015 57.62 173.135 59.34C173.255 61.06 173.315 62.82 173.315 64.62V81H168.455V78.06C167.295 79.18 165.815 80.08 164.015 80.76C162.215 81.4 160.415 81.72 158.615 81.72C156.895 81.72 155.375 81.42 154.055 80.82C152.735 80.22 151.635 79.44 150.755 78.48C149.875 77.52 149.215 76.44 148.775 75.24C148.335 74.04 148.115 72.82 148.115 71.58C148.115 70.3 148.355 69.02 148.835 67.74C149.315 66.46 150.035 65.32 150.995 64.32C151.955 63.28 153.135 62.44 154.535 61.8C155.935 61.16 157.535 60.84 159.335 60.84C161.135 60.84 162.835 61.2 164.435 61.92C166.075 62.6 167.415 63.58 168.455 64.86V62.28C168.455 59 167.955 56.56 166.955 54.96C165.995 53.36 164.215 52.56 161.615 52.56C160.495 52.56 159.515 52.7 158.675 52.98C157.835 53.26 157.075 53.66 156.395 54.18C155.755 54.66 155.155 55.28 154.595 56.04C154.035 56.76 153.475 57.58 152.915 58.5L149.795 55.38C150.355 54.78 150.935 54.18 151.535 53.58C152.175 52.98 152.935 52.44 153.815 51.96C154.735 51.48 155.815 51.1 157.055 50.82C158.295 50.5 159.795 50.34 161.555 50.34ZM168.455 69.12C168.255 68.64 167.955 68.08 167.555 67.44C167.195 66.8 166.715 66.18 166.115 65.58C165.515 64.98 164.795 64.48 163.955 64.08C163.115 63.64 162.115 63.42 160.955 63.42C159.795 63.42 158.735 63.66 157.775 64.14C156.815 64.58 155.995 65.18 155.315 65.94C154.675 66.66 154.175 67.52 153.815 68.52C153.455 69.52 153.275 70.56 153.275 71.64C153.275 72.92 153.495 74.04 153.935 75C154.415 75.92 155.015 76.72 155.735 77.4C156.455 78.04 157.255 78.52 158.135 78.84C159.015 79.16 159.855 79.32 160.655 79.32C161.415 79.32 162.175 79.18 162.935 78.9C163.735 78.62 164.475 78.24 165.155 77.76C165.875 77.24 166.515 76.64 167.075 75.96C167.635 75.28 168.095 74.54 168.455 73.74V69.12ZM209.377 78.6H213.517V87.3H209.317V81H182.917V87.3H178.717V78.6H183.037L194.257 51H197.857L209.377 78.6ZM194.677 56.94L185.857 78.6H203.977L195.037 56.94H194.677ZM229.934 50.34C232.854 50.34 235.114 50.76 236.714 51.6C238.314 52.4 239.474 53.46 240.194 54.78C240.954 56.1 241.394 57.62 241.514 59.34C241.634 61.06 241.694 62.82 241.694 64.62V81H236.834V78.06C235.674 79.18 234.194 80.08 232.394 80.76C230.594 81.4 228.794 81.72 226.994 81.72C225.274 81.72 223.754 81.42 222.434 80.82C221.114 80.22 220.014 79.44 219.134 78.48C218.254 77.52 217.594 76.44 217.154 75.24C216.714 74.04 216.494 72.82 216.494 71.58C216.494 70.3 216.734 69.02 217.214 67.74C217.694 66.46 218.414 65.32 219.374 64.32C220.334 63.28 221.514 62.44 222.914 61.8C224.314 61.16 225.914 60.84 227.714 60.84C229.514 60.84 231.214 61.2 232.814 61.92C234.454 62.6 235.794 63.58 236.834 64.86V62.28C236.834 59 236.334 56.56 235.334 54.96C234.374 53.36 232.594 52.56 229.994 52.56C228.874 52.56 227.894 52.7 227.054 52.98C226.214 53.26 225.454 53.66 224.774 54.18C224.134 54.66 223.534 55.28 222.974 56.04C222.414 56.76 221.854 57.58 221.294 58.5L218.174 55.38C218.734 54.78 219.314 54.18 219.914 53.58C220.554 52.98 221.314 52.44 222.194 51.96C223.114 51.48 224.194 51.1 225.434 50.82C226.674 50.5 228.174 50.34 229.934 50.34ZM236.834 69.12C236.634 68.64 236.334 68.08 235.934 67.44C235.574 66.8 235.094 66.18 234.494 65.58C233.894 64.98 233.174 64.48 232.334 64.08C231.494 63.64 230.494 63.42 229.334 63.42C228.174 63.42 227.114 63.66 226.154 64.14C225.194 64.58 224.374 65.18 223.694 65.94C223.054 66.66 222.554 67.52 222.194 68.52C221.834 69.52 221.654 70.56 221.654 71.64C221.654 72.92 221.874 74.04 222.314 75C222.794 75.92 223.394 76.72 224.114 77.4C224.834 78.04 225.634 78.52 226.514 78.84C227.394 79.16 228.234 79.32 229.034 79.32C229.794 79.32 230.554 79.18 231.314 78.9C232.114 78.62 232.854 78.24 233.534 77.76C234.254 77.24 234.894 76.64 235.454 75.96C236.014 75.28 236.474 74.54 236.834 73.74V69.12ZM259.696 81V53.4H247.696V51H276.796V53.4H264.796V81H259.696ZM282.82 51H287.92V64.62H295.12C296.08 64.62 297.26 64.68 298.66 64.8C300.06 64.92 301.4 65.26 302.68 65.82C303.96 66.34 305.04 67.16 305.92 68.28C306.84 69.4 307.3 70.98 307.3 73.02C307.3 74.26 307.04 75.38 306.52 76.38C306.04 77.34 305.4 78.18 304.6 78.9C303.8 79.58 302.86 80.1 301.78 80.46C300.74 80.82 299.68 81 298.6 81H282.82V51ZM287.92 78.6H295.9C297.46 78.6 298.82 78.16 299.98 77.28C301.18 76.36 301.78 74.96 301.78 73.08C301.78 71.52 301.48 70.32 300.88 69.48C300.28 68.6 299.58 67.96 298.78 67.56C298.02 67.12 297.26 66.86 296.5 66.78C295.74 66.7 295.18 66.66 294.82 66.66H287.92V78.6Z" fill="white"/>
<defs>
<filter id="filter0_f_146_253" x="0.251171" y="0.299999" width="361.449" height="128.718" filterUnits="userSpaceOnUse" color-interpolation-filters="sRGB">
<feFlood flood-opacity="0" result="BackgroundImageFix"/>
<feBlend mode="normal" in="SourceGraphic" in2="BackgroundImageFix" result="shape"/>
<feGaussianBlur stdDeviation="7.35" result="effect1_foregroundBlur_146_253"/>
</filter>
<filter id="filter1_f_146_253" x="14.0131" y="14.3851" width="333.933" height="101.205" filterUnits="userSpaceOnUse" color-interpolation-filters="sRGB">
<feFlood flood-opacity="0" result="BackgroundImageFix"/>
<feBlend mode="normal" in="SourceGraphic" in2="BackgroundImageFix" result="shape"/>
<feGaussianBlur stdDeviation="0.965146" result="effect1_foregroundBlur_146_253"/>
</filter>
</defs>
</svg>
