<svg width="205" height="130" viewBox="0 0 205 130" fill="none" xmlns="http://www.w3.org/2000/svg">
<g filter="url(#filter0_f_146_248)">
<rect x="19.5" y="19.5" width="165.371" height="90.3181" rx="43.7573" stroke="#FF6200" stroke-width="9"/>
</g>
<g filter="url(#filter1_f_146_248)">
<rect x="16.7943" y="17.5882" width="170.787" height="94.7993" rx="46.9845" stroke="white" stroke-width="2.54556"/>
</g>
<path d="M100.08 65.56C100.08 67.64 99.72 69.64 99 71.56C98.28 73.44 97.24 75.1 95.88 76.54C94.56 77.98 92.94 79.12 91.02 79.96C89.14 80.8 87.02 81.22 84.66 81.22C82.26 81.22 80.08 80.8 78.12 79.96C76.2 79.08 74.56 77.92 73.2 76.48C71.88 75.04 70.84 73.38 70.08 71.5C69.36 69.58 69 67.6 69 65.56C69 63.48 69.36 61.5 70.08 59.62C70.84 57.7 71.88 56.02 73.2 54.58C74.56 53.14 76.2 52 78.12 51.16C80.08 50.28 82.26 49.84 84.66 49.84C87.02 49.84 89.14 50.28 91.02 51.16C92.94 52 94.56 53.14 95.88 54.58C97.24 56.02 98.28 57.7 99 59.62C99.72 61.5 100.08 63.48 100.08 65.56ZM94.38 65.56C94.38 62.76 94.08 60.5 93.48 58.78C92.88 57.02 92.1 55.66 91.14 54.7C90.18 53.74 89.12 53.1 87.96 52.78C86.8 52.42 85.68 52.24 84.6 52.24C83.52 52.24 82.4 52.42 81.24 52.78C80.08 53.1 79 53.74 78 54.7C77.04 55.66 76.24 57.02 75.6 58.78C75 60.5 74.7 62.76 74.7 65.56C74.7 68.32 75 70.58 75.6 72.34C76.24 74.06 77.04 75.4 78 76.36C79 77.32 80.08 77.98 81.24 78.34C82.4 78.66 83.52 78.82 84.6 78.82C85.68 78.82 86.8 78.66 87.96 78.34C89.12 77.98 90.18 77.32 91.14 76.36C92.1 75.4 92.88 74.06 93.48 72.34C94.08 70.58 94.38 68.32 94.38 65.56ZM112.99 65.98L127.87 50.5H131.65L119.47 63.22L127.33 73.48C127.73 74 128.17 74.54 128.65 75.1C129.17 75.62 129.69 76.12 130.21 76.6C130.77 77.04 131.31 77.4 131.83 77.68C132.35 77.96 132.85 78.1 133.33 78.1H135.01V80.5C134.49 80.66 133.89 80.82 133.21 80.98C132.53 81.14 131.83 81.22 131.11 81.22C130.31 81.22 129.55 81.08 128.83 80.8C128.15 80.52 127.51 80.14 126.91 79.66C126.31 79.18 125.75 78.64 125.23 78.04C124.71 77.44 124.21 76.84 123.73 76.24L116.29 66.46L112.99 69.94V80.5H107.89V50.5H112.99V65.98Z" fill="white"/>
<defs>
<filter id="filter0_f_146_248" x="0.299999" y="0.299999" width="203.771" height="128.718" filterUnits="userSpaceOnUse" color-interpolation-filters="sRGB">
<feFlood flood-opacity="0" result="BackgroundImageFix"/>
<feBlend mode="normal" in="SourceGraphic" in2="BackgroundImageFix" result="shape"/>
<feGaussianBlur stdDeviation="7.35" result="effect1_foregroundBlur_146_248"/>
</filter>
<filter id="filter1_f_146_248" x="13.5912" y="14.3851" width="177.193" height="101.205" filterUnits="userSpaceOnUse" color-interpolation-filters="sRGB">
<feFlood flood-opacity="0" result="BackgroundImageFix"/>
<feBlend mode="normal" in="SourceGraphic" in2="BackgroundImageFix" result="shape"/>
<feGaussianBlur stdDeviation="0.965146" result="effect1_foregroundBlur_146_248"/>
</filter>
</defs>
</svg>
