<svg width="210" height="228" viewBox="0 0 210 228" fill="none" xmlns="http://www.w3.org/2000/svg">
<g filter="url(#filter0_f_227_5191)">
<path d="M150.754 176.554L152.965 182.67C153.155 183.196 153.51 183.645 153.977 183.952C155.699 185.08 157.984 183.84 157.976 181.782L157.967 179.562C157.964 178.66 158.283 177.787 158.867 177.101L160.393 175.307C160.744 174.893 161.128 174.509 161.541 174.157L164.605 171.547C166.284 170.22 166.925 167.968 166.198 165.956L165.433 163.839C164.982 162.593 165.122 161.209 165.814 160.079L165.845 160.028C166.342 159.216 167.101 158.597 167.996 158.273L168.173 158.209C170.254 157.457 171.331 155.161 170.578 153.081C170.217 152.081 170.269 150.976 170.72 150.015C171.334 148.706 172.604 147.822 174.045 147.705L176.757 147.486C177.638 147.415 178.436 146.941 178.921 146.202C179.415 145.448 179.526 144.506 179.219 143.658L178.603 141.952C177.958 140.17 178.125 138.196 179.059 136.547L179.587 135.613C179.967 134.943 180.229 134.212 180.361 133.453L180.397 133.241C180.741 131.267 180.124 129.247 178.736 127.801C177.669 126.69 176.231 126.008 174.696 125.886L172.735 125.729C171.101 125.599 169.459 125.819 167.919 126.376L163.331 128.035L155.725 131.989L150.928 135.214C150.252 135.669 149.523 136.039 148.756 136.316L148.433 136.433C145.982 137.319 143.271 137.123 140.973 135.894C138.97 134.823 137.435 133.049 136.663 130.913L135.551 127.838L132.662 119.847L129.581 111.323L125.945 101.267C125.416 99.8046 124.777 98.3847 124.032 97.0197C122.41 94.0472 120.305 91.3651 117.803 89.0831L112.595 84.3339L107.101 80.4253C105.901 79.5713 104.626 78.8271 103.292 78.2016C99.8405 76.583 96.0594 75.7903 92.2484 75.8861L90.8803 75.9205L84.649 76.5579C84.1572 76.6082 83.6708 76.7023 83.1957 76.8391L82.2585 77.1089C78.5826 78.1673 74.7156 76.1943 73.415 72.5969C72.1333 69.0514 71.1466 65.4061 70.4651 61.6981L70.2434 60.4916L70.1 57.9081C69.9781 55.7109 70.2448 53.5094 70.888 51.4049L71.0546 50.8597C71.3977 49.737 71.5997 48.5758 71.6559 47.4031L71.8168 44.0472C71.8855 42.612 71.4052 41.2045 70.4733 40.1108C69.4018 38.8532 67.8336 38.1274 66.1814 38.1243L65.2505 38.1226C63.2642 38.1189 61.3408 38.8981 59.9081 40.2738C58.7578 41.3784 57.9656 42.8208 57.659 44.3858L57.3693 45.8639C57.046 47.5136 56.0155 48.9385 54.5501 49.7621C54.0895 50.021 53.5954 50.215 53.0818 50.3386L50.6077 50.9343C49.5301 51.1937 48.67 52.0034 48.346 53.0634C48.148 53.7114 48.1655 54.406 48.3958 55.0432L48.9428 56.5563C49.3287 57.6236 49.0258 58.8183 48.1782 59.573C47.6188 60.071 46.8818 60.3218 46.1348 60.2684L43.2993 60.0659C42.2951 59.9941 41.3002 60.3004 40.5102 60.9246C39.5136 61.712 38.9458 62.9226 38.9778 64.1924L38.9951 64.8794C39.0097 65.4606 39.1179 66.0357 39.3156 66.5825L40.2622 69.2008C40.6982 70.4068 40.6372 71.7366 40.0928 72.8976C39.5483 74.0587 38.5649 74.9559 37.3589 75.3919L33.3823 76.8295C30.3892 77.9116 30.7224 82.2481 33.8458 82.8602L38.9349 83.8575L51.7532 87.6565L55.4215 89.1205C57.1565 89.813 58.6332 91.0278 59.6471 92.5968C61.2412 95.0637 61.5322 98.1531 60.4266 100.874L59.961 102.02C59.5372 103.063 59.2706 104.163 59.1697 105.285L58.9179 108.083C58.6289 111.295 58.856 114.533 59.5907 117.673L59.7582 118.39C60.3775 121.037 61.3049 123.602 62.5216 126.034L65.0299 131.045L65.7417 132.104C68.723 136.539 72.3926 140.47 76.6122 143.748C79.0617 145.652 81.6823 147.324 84.4403 148.744L84.7208 148.889C88.1725 150.666 91.8209 152.032 95.591 152.959L96.2048 153.11C98.6191 153.704 101.081 154.084 103.562 154.247C107.636 154.514 111.728 154.192 115.71 153.291L118.614 152.634L126.45 149.801C127.615 149.38 128.824 149.092 130.055 148.944L131.535 148.765C134.237 148.439 136.969 149.035 139.29 150.455C141 151.501 142.422 152.955 143.429 154.687L144.241 156.083C144.798 157.041 145.268 158.048 145.645 159.09L147.967 165.514L150.754 176.554Z" stroke="#FF6200" stroke-width="4.53182"/>
<path d="M92.5122 136.882C91.8284 136.904 91.5155 136.038 92.0555 135.618C93.0719 134.828 93.4636 133.473 93.0258 132.262C92.7932 131.619 93.5198 131.053 94.0862 131.437C95.1521 132.159 96.5619 132.113 97.5783 131.323C98.1183 130.903 98.8803 131.419 98.6903 132.076C98.3327 133.313 98.8123 134.64 99.8782 135.362C100.445 135.746 100.189 136.63 99.5052 136.653C98.2182 136.695 97.1048 137.561 96.7472 138.798C96.5572 139.455 95.6372 139.485 95.4046 138.842C94.9668 137.631 93.7991 136.84 92.5122 136.882Z" stroke="#FF6200" stroke-width="2.26591"/>
<path d="M68.9341 114.659C68.2503 114.681 67.9374 113.816 68.4774 113.396C69.4937 112.605 69.8855 111.25 69.4477 110.039C69.2151 109.396 69.9417 108.831 70.5081 109.214C71.574 109.937 72.9838 109.891 74.0002 109.1C74.5402 108.68 75.3022 109.196 75.1122 109.854C74.7546 111.091 75.2342 112.417 76.3001 113.14C76.8665 113.523 76.6108 114.408 75.927 114.43C74.6401 114.472 73.5267 115.338 73.1691 116.575C72.9791 117.232 72.0591 117.263 71.8265 116.619C71.3887 115.408 70.221 114.617 68.9341 114.659Z" stroke="#FF6200" stroke-width="2.26591"/>
<path d="M90.4849 92.9921C89.8011 93.0145 89.4881 92.1488 90.0282 91.7288C91.0445 90.9382 91.4363 89.5832 90.9985 88.3723C90.7659 87.7289 91.4925 87.1637 92.0588 87.5475C93.1248 88.2698 94.5346 88.2237 95.5509 87.4331C96.091 87.0131 96.853 87.5295 96.663 88.1867C96.3054 89.4237 96.785 90.7502 97.8509 91.4725C98.4172 91.8563 98.1616 92.7406 97.4778 92.763C96.1909 92.8052 95.0775 93.6712 94.7199 94.9082C94.5299 95.5654 93.6099 95.5955 93.3773 94.9522C92.9395 93.7412 91.7718 92.9499 90.4849 92.9921Z" stroke="#FF6200" stroke-width="2.26591"/>
<path d="M87.813 115.506C87.1292 115.528 86.8163 114.662 87.3563 114.242C88.3727 113.452 88.7644 112.097 88.3266 110.886C88.094 110.243 88.8206 109.677 89.387 110.061C90.4529 110.784 91.8627 110.737 92.8791 109.947C93.4191 109.527 94.1811 110.043 93.9911 110.7C93.6335 111.937 94.1131 113.264 95.179 113.986C95.7454 114.37 95.4897 115.254 94.8059 115.277C93.519 115.319 92.4056 116.185 92.048 117.422C91.858 118.079 90.938 118.109 90.7054 117.466C90.2676 116.255 89.0999 115.464 87.813 115.506Z" stroke="#FF6200" stroke-width="2.26591"/>
<path d="M113.385 126.776C112.701 126.799 112.389 125.933 112.929 125.513C113.945 124.722 114.337 123.367 113.899 122.156C113.666 121.513 114.393 120.948 114.959 121.332C116.025 122.054 117.435 122.008 118.451 121.217C118.991 120.797 119.753 121.314 119.563 121.971C119.206 123.208 119.685 124.534 120.751 125.257C121.318 125.641 121.062 126.525 120.378 126.547C119.091 126.589 117.978 127.455 117.62 128.692C117.43 129.35 116.51 129.38 116.278 128.736C115.84 127.525 114.672 126.734 113.385 126.776Z" stroke="#FF6200" stroke-width="2.26591"/>
<path d="M106.899 105C106.215 105.022 105.902 104.157 106.442 103.737C107.459 102.946 107.85 101.591 107.413 100.38C107.18 99.7367 107.907 99.1715 108.473 99.5553C109.539 100.278 110.949 100.231 111.965 99.4409C112.505 99.0209 113.267 99.5373 113.077 100.195C112.719 101.431 113.199 102.758 114.265 103.48C114.831 103.864 114.576 104.748 113.892 104.771C112.605 104.813 111.492 105.679 111.134 106.916C110.944 107.573 110.024 107.603 109.791 106.96C109.354 105.749 108.186 104.958 106.899 105Z" stroke="#FF6200" stroke-width="2.26591"/>
</g>
<path d="M150.721 176.193L152.932 182.309C153.122 182.834 153.477 183.284 153.944 183.59C155.665 184.719 157.951 183.479 157.943 181.421L157.934 179.2C157.931 178.299 158.25 177.426 158.834 176.739L160.359 174.945C160.711 174.532 161.095 174.148 161.508 173.796L164.572 171.185C166.25 169.859 166.892 167.607 166.165 165.595L165.399 163.478C164.949 162.232 165.089 160.848 165.781 159.717L165.812 159.667C166.309 158.855 167.068 158.236 167.963 157.912L168.14 157.848C170.221 157.096 171.297 154.8 170.545 152.719C170.184 151.72 170.236 150.615 170.687 149.653C171.301 148.345 172.571 147.46 174.012 147.344L176.724 147.125C177.604 147.054 178.403 146.58 178.888 145.841C179.382 145.087 179.492 144.144 179.186 143.297L178.569 141.591C177.925 139.809 178.092 137.834 179.025 136.185L179.554 135.252C179.934 134.581 180.195 133.851 180.327 133.092L180.364 132.88C180.708 130.905 180.091 128.885 178.703 127.44C177.636 126.329 176.198 125.647 174.663 125.524L172.701 125.368C171.068 125.237 169.426 125.458 167.885 126.015L163.298 127.674L155.692 131.628L150.895 134.853C150.219 135.307 149.489 135.677 148.723 135.954L148.4 136.071C145.949 136.957 143.237 136.762 140.94 135.533C138.937 134.462 137.402 132.688 136.63 130.552L135.518 127.476L132.629 119.485L129.547 110.962L125.912 100.906C125.383 99.4433 124.744 98.0234 123.999 96.6584C122.377 93.6859 120.271 91.0037 117.769 88.7218L112.562 83.9726L107.068 80.064C105.867 79.21 104.593 78.4657 103.259 77.8403C99.8073 76.2217 96.0262 75.4289 92.2152 75.5248L90.8471 75.5592L84.6158 76.1965C84.124 76.2469 83.6376 76.341 83.1624 76.4778L82.2253 76.7476C78.5494 77.8059 74.6824 75.833 73.3818 72.2356C72.1001 68.6901 71.1134 65.0447 70.4319 61.3367L70.2102 60.1302L70.0668 57.5468C69.9449 55.3496 70.2116 53.1481 70.8548 51.0436L71.0214 50.4984C71.3645 49.3756 71.5665 48.2145 71.6227 47.0418L71.7836 43.6859C71.8523 42.2507 71.372 40.8432 70.4401 39.7495C69.3686 38.4919 67.8004 37.7661 66.1482 37.763L65.2173 37.7612C63.231 37.7575 61.3076 38.5368 59.8749 39.9125C58.7246 41.0171 57.9324 42.4595 57.6257 44.0244L57.3361 45.5026C57.0128 47.1523 55.9823 48.5771 54.5169 49.4008C54.0563 49.6597 53.5622 49.8537 53.0486 49.9773L50.5745 50.5729C49.4969 50.8324 48.6367 51.6421 48.3128 52.7021C48.1148 53.35 48.1323 54.0447 48.3626 54.6819L48.9096 56.1949C49.2955 57.2623 48.9926 58.457 48.145 59.2117C47.5856 59.7097 46.8486 59.9605 46.1016 59.9071L43.2661 59.7045C42.2619 59.6328 41.267 59.9391 40.477 60.5632C39.4804 61.3506 38.9126 62.5613 38.9446 63.831L38.9619 64.518C38.9765 65.0993 39.0847 65.6744 39.2824 66.2212L40.229 68.8395C40.665 70.0455 40.604 71.3752 40.0596 72.5363C39.5151 73.6973 38.5317 74.5945 37.3257 75.0305L33.3491 76.4681C30.356 77.5502 30.6892 81.8868 33.8126 82.4988L38.9017 83.4962L51.72 87.2951L55.3883 88.7592C57.1233 89.4516 58.6 90.6665 59.6139 92.2355C61.208 94.7024 61.499 97.7917 60.3934 100.513L59.9278 101.659C59.504 102.702 59.2374 103.802 59.1365 104.923L58.8847 107.722C58.5957 110.934 58.8228 114.172 59.5575 117.312L59.725 118.028C60.3443 120.676 61.2717 123.241 62.4884 125.672L64.9967 130.684L65.7084 131.743C68.6898 136.178 72.3594 140.108 76.579 143.387C79.0285 145.29 81.6491 146.963 84.4071 148.383L84.6876 148.528C88.1393 150.305 91.7877 151.671 95.5578 152.598L96.1716 152.749C98.5859 153.343 101.048 153.723 103.529 153.886C107.603 154.153 111.694 153.831 115.677 152.93L118.581 152.273L126.416 149.44C127.582 149.019 128.791 148.731 130.021 148.583L131.502 148.404C134.204 148.078 136.936 148.673 139.257 150.094C140.966 151.14 142.389 152.594 143.396 154.326L144.208 155.722C144.765 156.68 145.235 157.686 145.612 158.729L147.934 165.153L150.721 176.193Z" stroke="white" stroke-width="1.51061"/>
<path d="M92.831 137.216C91.5342 137.259 90.9406 135.617 91.9648 134.82C92.6595 134.28 92.9273 133.354 92.628 132.526C92.1869 131.306 93.5649 130.234 94.639 130.962C95.3676 131.456 96.3312 131.424 97.0259 130.884C98.0501 130.087 99.4953 131.066 99.1349 132.313C98.8905 133.158 99.2183 134.065 99.9469 134.559C101.021 135.287 100.536 136.964 99.2394 137.006C98.3597 137.035 97.5987 137.627 97.3543 138.472C96.9939 139.719 95.2491 139.776 94.808 138.556C94.5088 137.728 93.7106 137.187 92.831 137.216Z" stroke="white" stroke-width="0.69217"/>
<path d="M69.0447 114.669C67.8488 114.709 67.3015 113.195 68.246 112.46C68.8866 111.962 69.1336 111.107 68.8576 110.344C68.4508 109.219 69.7216 108.23 70.7121 108.902C71.384 109.357 72.2727 109.328 72.9134 108.83C73.8579 108.095 75.1906 108.998 74.8583 110.148C74.6329 110.927 74.9352 111.763 75.6071 112.219C76.5977 112.89 76.1506 114.437 74.9546 114.476C74.1434 114.502 73.4416 115.048 73.2162 115.828C72.8839 116.977 71.2748 117.03 70.868 115.905C70.592 115.142 69.856 114.643 69.0447 114.669Z" stroke="white" stroke-width="0.638325"/>
<path d="M91.1438 93.2134C89.9033 93.2571 89.3351 91.6852 90.3167 90.9255C91.015 90.3851 91.284 89.455 90.984 88.6252C90.5649 87.4658 91.8869 86.4301 92.9269 87.1289C93.6583 87.6204 94.6318 87.5859 95.3279 87.0472C96.3207 86.2788 97.7013 87.2268 97.3581 88.3967C97.1086 89.2469 97.439 90.1607 98.1744 90.6548C99.1864 91.3348 98.7312 92.9465 97.4765 92.9906C96.597 93.0216 95.8265 93.6176 95.5784 94.4632C95.2257 95.6655 93.547 95.7146 93.1279 94.5552C92.8279 93.7254 92.0263 93.1824 91.1438 93.2134Z" stroke="white" stroke-width="0.755304"/>
<path d="M88.4015 116.101C87.1174 116.143 86.5297 114.518 87.5438 113.729C88.2317 113.194 88.4968 112.277 88.2005 111.457C87.7637 110.249 89.1282 109.188 90.1918 109.908C90.9132 110.397 91.8674 110.366 92.5553 109.831C93.5694 109.042 95.0005 110.012 94.6437 111.246C94.4016 112.083 94.7262 112.981 95.4477 113.47C96.5112 114.191 96.0312 115.851 94.7471 115.893C93.8761 115.922 93.1225 116.508 92.8804 117.345C92.5236 118.58 90.7959 118.636 90.3591 117.428C90.0628 116.608 89.2725 116.073 88.4015 116.101Z" stroke="white" stroke-width="0.685387"/>
<path d="M113.74 127.276C112.502 127.317 111.936 125.75 112.913 124.99C113.576 124.474 113.832 123.59 113.546 122.8C113.125 121.636 114.44 120.613 115.465 121.307C116.161 121.779 117.08 121.748 117.743 121.233C118.721 120.472 120.1 121.407 119.756 122.597C119.523 123.404 119.836 124.269 120.531 124.74C121.556 125.435 121.093 127.035 119.856 127.076C119.016 127.104 118.29 127.668 118.057 128.475C117.713 129.665 116.048 129.72 115.627 128.555C115.341 127.765 114.579 127.249 113.74 127.276Z" stroke="white" stroke-width="0.660599"/>
<path d="M106.934 105.062C105.638 105.105 105.044 103.463 106.068 102.667C106.763 102.126 107.031 101.2 106.731 100.372C106.29 99.1523 107.668 98.0806 108.742 98.8084C109.471 99.3021 110.434 99.2705 111.129 98.7302C112.153 97.9337 113.598 98.9129 113.238 100.159C112.994 101.005 113.321 101.911 114.05 102.405C115.124 103.133 114.639 104.81 113.342 104.852C112.463 104.881 111.702 105.473 111.457 106.319C111.097 107.565 109.352 107.622 108.911 106.402C108.612 105.574 107.814 105.033 106.934 105.062Z" stroke="white" stroke-width="0.692129"/>
<defs>
<filter id="filter0_f_227_5191" x="26.0237" y="32.8352" width="159.753" height="156.834" filterUnits="userSpaceOnUse" color-interpolation-filters="sRGB">
<feFlood flood-opacity="0" result="BackgroundImageFix"/>
<feBlend mode="normal" in="SourceGraphic" in2="BackgroundImageFix" result="shape"/>
<feGaussianBlur stdDeviation="1.51061" result="effect1_foregroundBlur_227_5191"/>
</filter>
</defs>
</svg>
