<svg width="167" height="207" viewBox="0 0 167 207" fill="none" xmlns="http://www.w3.org/2000/svg">
<g filter="url(#filter0_f_282_100)">
<path d="M51.6035 156.707L53.1166 162.759C54.0525 166.503 55.3005 170.162 56.8473 173.698L57.0776 174.224M51.6035 156.707L49.8926 159.444C46.2178 165.324 41.2244 170.267 35.3081 173.883L32.5404 175.574C31.6273 176.132 30.6564 176.59 29.6447 176.939L23.5091 179.054C16.8933 181.336 10 176.421 10 169.423V169.423C10 168.733 10.0701 168.044 10.2093 167.369L13.7863 149.995C14.6662 145.72 15.9491 141.539 17.6176 137.507L23.8678 122.402L36.2759 94.6667L48.6839 73.5M51.6035 156.707L59.6322 146.489L66.2012 136.27M113.644 156.707L114.455 157.789C119.705 164.789 126.238 170.729 133.705 175.292L135.54 176.414L148.128 183.039C148.969 183.481 149.904 183.713 150.854 183.713V183.713C154.087 183.713 156.707 181.092 156.707 177.86V170.217C156.707 169.001 156.543 167.791 156.219 166.619L147.218 134.08L132.621 99.7759L118.753 73.5M113.644 156.707L109.481 172.764M113.644 156.707L102.695 137.73M118.753 73.5V73.5C121.077 68.8514 121.333 63.4379 119.456 58.5911L114.481 45.7387C113.983 44.4523 114.382 42.9916 115.465 42.1369L127.512 32.6264M118.753 73.5L112.184 65.4713L105.615 58.1724V58.1724C103.702 55.7814 102.45 52.9302 101.985 49.9038L101.775 48.5434C101.418 46.2183 100.7 43.9632 99.6479 41.8591L99.3596 41.2824C97.7086 37.9804 95.3923 35.0558 92.5562 32.6924L92.477 32.6264M48.6839 73.5V73.5C45.941 68.9284 45.6137 63.3025 47.808 58.4437L52.8289 47.3258C53.8137 45.1454 53.1206 42.573 51.1737 41.1824L39.1954 32.6264M48.6839 73.5L54.523 64.0115L57.5255 59.6745C59.8854 56.2658 61.6381 52.4748 62.7064 48.4689V48.4689C63.5722 45.2221 64.8887 42.1127 66.6176 39.2313L68.3908 36.2759L71.3103 32.6264M71.3103 32.6264V30.1692C71.3103 27.9452 70.7925 25.7517 69.7979 23.7625V23.7625C68.8709 21.9085 67.5525 20.2777 65.9338 18.9827L63.1115 16.7248C61.7675 15.6496 60.3227 14.6818 58.8181 13.846V13.846C55.9883 12.2738 52.907 11.1366 49.7326 10.5017L47.2241 10M71.3103 32.6264V32.6264C75.1716 31.1785 79.2618 30.4368 83.3856 30.4368H83.7184V30.4368C86.5984 30.4368 89.4388 31.1073 92.0147 32.3953L92.477 32.6264M92.477 32.6264V32.6264C93.4412 28.7698 95.1387 25.1348 97.4769 21.9197L97.6402 21.6952C99.0595 19.7436 100.692 17.9566 102.509 16.3675L103.97 15.0885C105.064 14.1318 106.255 13.2937 107.525 12.5881V12.5881C110.581 10.8907 114.018 10 117.513 10H120.213M57.0776 174.224L57.7947 175.863C59.0156 178.654 60.5552 181.294 62.3828 183.731L63.8256 185.654C65.3992 187.753 67.2984 189.585 69.4513 191.083L73.1523 193.657C79.102 197.796 86.9634 197.928 93.0484 193.991V193.991C94.6043 192.984 95.9941 191.741 97.1676 190.307L106.147 179.332C107.72 177.409 108.857 175.169 109.481 172.764V172.764M57.0776 174.224L63.2816 168.385L65.4067 166.84C69.2862 164.018 73.7841 162.165 78.5253 161.436V161.436C80.0388 161.203 81.5679 161.086 83.0992 161.086H86.1043C88.8749 161.086 91.6273 161.533 94.2557 162.409V162.409C97.4192 163.463 100.348 165.122 102.88 167.292L104.155 168.385L109.481 172.764M66.2012 136.27L72.7701 122.402L79.3391 107.075V107.075C80.8427 104.067 85.1343 104.067 86.6379 107.075V107.075L90.2874 115.833L92.5077 120.908C94.4284 125.299 96.8005 129.477 99.5858 133.376L102.695 137.73M66.2012 136.27L69.6571 133.128C72.6423 130.415 76.3463 128.619 80.3258 127.955L80.6287 127.905C82.1954 127.644 83.7892 127.584 85.3711 127.728V127.728C89.0516 128.063 92.5491 129.486 95.4174 131.816L102.695 137.73" stroke="#003DFF" stroke-width="7.29885"/>
</g>
<g filter="url(#filter1_f_282_100)">
<path d="M51.6035 156.707L53.1166 162.759C54.0525 166.503 55.3005 170.162 56.8473 173.698L57.0776 174.224M51.6035 156.707L49.8926 159.444C46.2178 165.324 41.2244 170.267 35.3081 173.883L32.5404 175.574C31.6273 176.132 30.6564 176.59 29.6447 176.939L23.5091 179.054C16.8933 181.336 10 176.421 10 169.423V169.423C10 168.733 10.0701 168.044 10.2093 167.369L13.7863 149.995C14.6662 145.72 15.9491 141.539 17.6176 137.507L23.8678 122.402L36.2759 94.6667L48.6839 73.5M51.6035 156.707L59.6322 146.489L66.2012 136.27M113.644 156.707L114.455 157.789C119.705 164.789 126.238 170.729 133.705 175.292L135.54 176.414L148.128 183.039C148.969 183.481 149.904 183.713 150.854 183.713V183.713C154.087 183.713 156.707 181.092 156.707 177.86V170.217C156.707 169.001 156.543 167.791 156.219 166.619L147.218 134.08L132.621 99.7759L118.753 73.5M113.644 156.707L109.481 172.764M113.644 156.707L102.695 137.73M118.753 73.5V73.5C121.077 68.8514 121.333 63.4379 119.456 58.5911L114.481 45.7387C113.983 44.4523 114.382 42.9916 115.465 42.1369L127.512 32.6264M118.753 73.5L112.184 65.4713L105.615 58.1724V58.1724C103.702 55.7814 102.45 52.9302 101.985 49.9038L101.775 48.5434C101.418 46.2183 100.7 43.9632 99.6479 41.8591L99.3596 41.2824C97.7086 37.9804 95.3923 35.0558 92.5562 32.6924L92.477 32.6264M48.6839 73.5V73.5C45.941 68.9284 45.6137 63.3025 47.808 58.4437L52.8289 47.3258C53.8137 45.1454 53.1206 42.573 51.1737 41.1824L39.1954 32.6264M48.6839 73.5L54.523 64.0115L57.5255 59.6745C59.8854 56.2658 61.6381 52.4748 62.7064 48.4689V48.4689C63.5722 45.2221 64.8887 42.1127 66.6176 39.2313L68.3908 36.2759L71.3103 32.6264M71.3103 32.6264V30.1692C71.3103 27.9452 70.7925 25.7517 69.7979 23.7625V23.7625C68.8709 21.9085 67.5525 20.2777 65.9338 18.9827L63.1115 16.7248C61.7675 15.6496 60.3227 14.6818 58.8181 13.846V13.846C55.9883 12.2738 52.907 11.1366 49.7326 10.5017L47.2241 10M71.3103 32.6264V32.6264C75.1716 31.1785 79.2618 30.4368 83.3856 30.4368H83.7184V30.4368C86.5984 30.4368 89.4388 31.1073 92.0147 32.3953L92.477 32.6264M92.477 32.6264V32.6264C93.4412 28.7698 95.1387 25.1348 97.4769 21.9197L97.6402 21.6952C99.0595 19.7436 100.692 17.9566 102.509 16.3675L103.97 15.0885C105.064 14.1318 106.255 13.2937 107.525 12.5881V12.5881C110.581 10.8907 114.018 10 117.513 10H120.213M57.0776 174.224L57.7947 175.863C59.0156 178.654 60.5552 181.294 62.3828 183.731L63.8256 185.654C65.3992 187.753 67.2984 189.585 69.4513 191.083L73.1523 193.657C79.102 197.796 86.9634 197.928 93.0484 193.991V193.991C94.6043 192.984 95.9941 191.741 97.1676 190.307L106.147 179.332C107.72 177.409 108.857 175.169 109.481 172.764V172.764M57.0776 174.224L63.2816 168.385L65.4067 166.84C69.2862 164.018 73.7841 162.165 78.5253 161.436V161.436C80.0388 161.203 81.5679 161.086 83.0992 161.086H86.1043C88.8749 161.086 91.6273 161.533 94.2557 162.409V162.409C97.4192 163.463 100.348 165.122 102.88 167.292L104.155 168.385L109.481 172.764M66.2012 136.27L72.7701 122.402L79.3391 107.075V107.075C80.8427 104.067 85.1343 104.067 86.6379 107.075V107.075L90.2874 115.833L92.5077 120.908C94.4284 125.299 96.8005 129.477 99.5858 133.376L102.695 137.73M66.2012 136.27L69.6571 133.128C72.6423 130.415 76.3463 128.619 80.3258 127.955L80.6287 127.905C82.1954 127.644 83.7892 127.584 85.3711 127.728V127.728C89.0516 128.063 92.5491 129.486 95.4174 131.816L102.695 137.73" stroke="white" stroke-width="1.45977"/>
</g>
<defs>
<filter id="filter0_f_282_100" x="0.510529" y="0.511506" width="165.684" height="205.832" filterUnits="userSpaceOnUse" color-interpolation-filters="sRGB">
<feFlood flood-opacity="0" result="BackgroundImageFix"/>
<feBlend mode="normal" in="SourceGraphic" in2="BackgroundImageFix" result="shape"/>
<feGaussianBlur stdDeviation="2.91954" result="effect1_foregroundBlur_282_100"/>
</filter>
<filter id="filter1_f_282_100" x="7.80976" y="7.81074" width="151.088" height="191.234" filterUnits="userSpaceOnUse" color-interpolation-filters="sRGB">
<feFlood flood-opacity="0" result="BackgroundImageFix"/>
<feBlend mode="normal" in="SourceGraphic" in2="BackgroundImageFix" result="shape"/>
<feGaussianBlur stdDeviation="0.729885" result="effect1_foregroundBlur_282_100"/>
</filter>
</defs>
</svg>
