<svg width="282" height="255" viewBox="0 0 282 255" fill="none" xmlns="http://www.w3.org/2000/svg">
<g filter="url(#filter0_f_227_5173)">
<path d="M63.4726 194.479L55.6523 198.082C54.9804 198.391 54.427 198.911 54.0752 199.561C52.7793 201.959 54.6715 204.835 57.3859 204.593L60.3141 204.333C61.5029 204.227 62.6903 204.55 63.6617 205.243L66.1995 207.055C66.7841 207.472 67.3343 207.936 67.8448 208.441L71.632 212.19C73.57 214.256 76.6127 214.85 79.1855 213.665L81.8924 212.418C83.4862 211.683 85.3272 211.713 86.8961 212.499L86.9663 212.534C88.0936 213.099 88.9952 214.031 89.5227 215.176L89.6269 215.402C90.8525 218.062 94.0025 219.225 96.6627 217.999C97.9402 217.411 99.4038 217.356 100.723 217.843C102.518 218.506 103.827 220.082 104.143 221.969L104.736 225.523C104.929 226.677 105.643 227.677 106.673 228.233C107.722 228.801 108.978 228.841 110.062 228.342L112.243 227.337C114.522 226.287 117.145 226.285 119.426 227.332L120.716 227.925C121.643 228.351 122.637 228.614 123.653 228.703L123.936 228.728C126.579 228.959 129.175 227.919 130.926 225.926C132.273 224.393 133.01 222.421 133 220.381L132.987 217.776C132.976 215.607 132.5 213.466 131.593 211.496L128.89 205.63L122.821 196.039L118.028 190.073C117.353 189.232 116.783 188.311 116.332 187.331L116.141 186.918C114.697 183.784 114.652 180.185 116.015 177.016C117.203 174.254 119.371 172.03 122.102 170.772L126.035 168.96L136.253 164.253L147.152 159.232L160.01 153.308C161.88 152.446 163.681 151.443 165.398 150.308C169.138 147.834 172.44 144.756 175.17 141.199L180.851 133.797L185.391 126.111C186.383 124.432 187.222 122.666 187.897 120.837C189.646 116.102 190.267 111.025 189.713 106.008L189.515 104.207L187.975 96.0582C187.853 95.415 187.675 94.7839 187.441 94.1724L186.98 92.9664C185.171 88.2358 187.341 82.9131 191.94 80.7939C196.474 78.7054 201.172 76.9949 205.987 75.6801L207.554 75.2522L210.946 74.7733C213.831 74.366 216.765 74.471 219.614 75.0834L220.352 75.2421C221.871 75.5689 223.426 75.7051 224.979 75.6477L229.424 75.4835C231.325 75.4133 233.128 74.6217 234.466 73.2698C236.005 71.7151 236.787 69.565 236.606 67.3851L236.504 66.1568C236.286 63.5361 235.042 61.086 233.067 59.3503C231.48 57.9567 229.489 57.0734 227.39 56.8444L225.407 56.628C223.195 56.3865 221.199 55.1869 219.949 53.3461C219.555 52.7675 219.244 52.1375 219.023 51.4738L217.96 48.2767C217.497 46.8842 216.332 45.8403 214.898 45.5318C214.021 45.3433 213.106 45.4442 212.291 45.8196L210.357 46.7109C208.992 47.3396 207.382 47.0741 206.291 46.0405C205.572 45.3584 205.158 44.4143 205.145 43.4228L205.094 39.6596C205.076 38.3267 204.56 37.0486 203.648 36.0764C202.498 34.85 200.837 34.2368 199.166 34.4213L198.261 34.5212C197.496 34.6056 196.749 34.8129 196.05 35.135L192.702 36.6774C191.16 37.3878 189.399 37.4566 187.807 36.8685C186.214 36.2805 184.92 35.0838 184.209 33.5417L181.867 28.457C180.104 24.6298 174.42 25.5558 173.963 29.7448L173.218 36.5703L169.644 53.9064L168.124 58.9099C167.405 61.2763 165.968 63.3607 164.012 64.8741C160.937 67.2538 156.894 67.9841 153.18 66.8308L151.616 66.3451C150.192 65.9031 148.711 65.6746 147.221 65.6673L143.501 65.649C139.231 65.6281 134.985 66.2908 130.924 67.6121L129.998 67.9135C126.576 69.0273 123.295 70.5385 120.224 72.4163L113.894 76.2873L112.577 77.345C107.061 81.7754 102.287 87.0573 98.4351 92.9915C96.1989 96.4365 94.2864 100.081 92.7223 103.879L92.5632 104.265C90.6056 109.018 89.2124 113.984 88.4123 119.062L88.2821 119.888C87.7697 123.14 87.544 126.43 87.6075 129.721C87.7119 135.126 88.5955 140.487 90.2309 145.64L91.4236 149.397L96.0394 159.416C96.7259 160.907 97.241 162.47 97.5748 164.076L97.9766 166.009C98.7097 169.537 98.2307 173.208 96.6173 176.43C95.4292 178.802 93.6701 180.841 91.4981 182.364L89.7477 183.591C88.5462 184.434 87.2713 185.167 85.9385 185.781L77.724 189.565L63.4726 194.479Z" stroke="#F599D5" stroke-width="6"/>
<path d="M109.277 113.197C109.171 112.298 110.278 111.788 110.892 112.453C112.049 113.705 113.881 114.07 115.429 113.357C116.252 112.978 117.079 113.873 116.636 114.663C115.803 116.15 116.022 118.005 117.179 119.257C117.793 119.922 117.197 120.986 116.309 120.809C114.637 120.476 112.941 121.257 112.108 122.744C111.665 123.534 110.47 123.296 110.363 122.397C110.163 120.704 108.896 119.332 107.224 118.999C106.336 118.822 106.193 117.612 107.016 117.233C108.564 116.519 109.477 114.89 109.277 113.197Z" stroke="#F599D5" stroke-width="3"/>
<path d="M135.949 79.6006C135.843 78.7011 136.949 78.1911 137.564 78.8564C138.721 80.1085 140.553 80.4734 142.101 79.76C142.924 79.381 143.751 80.2762 143.308 81.0664C142.475 82.5535 142.694 84.4082 143.85 85.6603C144.465 86.3256 143.869 87.3888 142.981 87.2119C141.309 86.8789 139.613 87.6603 138.78 89.1475C138.337 89.9377 137.141 89.6996 137.035 88.8001C136.835 87.1071 135.568 85.7354 133.896 85.4024C133.008 85.2254 132.865 84.0151 133.687 83.6361C135.236 82.9228 136.149 81.2936 135.949 79.6006Z" stroke="#F599D5" stroke-width="3"/>
<path d="M166.949 105.601C166.843 104.701 167.949 104.191 168.564 104.856C169.721 106.109 171.553 106.473 173.101 105.76C173.924 105.381 174.751 106.276 174.308 107.066C173.475 108.554 173.694 110.408 174.85 111.66C175.465 112.326 174.869 113.389 173.981 113.212C172.309 112.879 170.613 113.66 169.78 115.148C169.337 115.938 168.141 115.7 168.035 114.8C167.835 113.107 166.568 111.735 164.896 111.402C164.008 111.225 163.865 110.015 164.687 109.636C166.236 108.923 167.149 107.294 166.949 105.601Z" stroke="#F599D5" stroke-width="3"/>
<path d="M136.949 104.601C136.843 103.701 137.949 103.191 138.564 103.856C139.721 105.109 141.553 105.473 143.101 104.76C143.924 104.381 144.751 105.276 144.308 106.066C143.475 107.554 143.694 109.408 144.85 110.66C145.465 111.326 144.869 112.389 143.981 112.212C142.309 111.879 140.613 112.66 139.78 114.148C139.337 114.938 138.141 114.7 138.035 113.8C137.835 112.107 136.568 110.735 134.896 110.402C134.008 110.225 133.865 109.015 134.687 108.636C136.236 107.923 137.149 106.294 136.949 104.601Z" stroke="#F599D5" stroke-width="3"/>
<path d="M124.949 139.601C124.843 138.701 125.949 138.191 126.564 138.856C127.721 140.109 129.553 140.473 131.101 139.76C131.924 139.381 132.751 140.276 132.308 141.066C131.475 142.554 131.694 144.408 132.85 145.66C133.465 146.326 132.869 147.389 131.981 147.212C130.309 146.879 128.613 147.66 127.78 149.148C127.337 149.938 126.141 149.7 126.035 148.8C125.835 147.107 124.568 145.735 122.896 145.402C122.008 145.225 121.865 144.015 122.687 143.636C124.236 142.923 125.149 141.294 124.949 139.601Z" stroke="#F599D5" stroke-width="3"/>
<path d="M152.949 128.601C152.843 127.701 153.949 127.191 154.564 127.856C155.721 129.109 157.553 129.473 159.101 128.76C159.924 128.381 160.751 129.276 160.308 130.066C159.475 131.554 159.694 133.408 160.85 134.66C161.465 135.326 160.869 136.389 159.981 136.212C158.309 135.879 156.613 136.66 155.78 138.148C155.337 138.938 154.141 138.7 154.035 137.8C153.835 136.107 152.568 134.735 150.896 134.402C150.008 134.225 149.865 133.015 150.687 132.636C152.236 131.923 153.149 130.294 152.949 128.601Z" stroke="#F599D5" stroke-width="3"/>
</g>
<path d="M63.9472 194.395L56.127 197.998C55.455 198.307 54.9016 198.827 54.5498 199.477C53.2539 201.875 55.1461 204.751 57.8605 204.509L60.7887 204.249C61.9775 204.143 63.1649 204.466 64.1363 205.159L66.6741 206.971C67.2587 207.388 67.8089 207.852 68.3194 208.357L72.1066 212.106C74.0446 214.172 77.0873 214.766 79.6601 213.581L82.367 212.334C83.9608 211.599 85.8018 211.629 87.3707 212.415L87.4409 212.45C88.5682 213.015 89.4698 213.947 89.9973 215.092L90.1015 215.318C91.3271 217.978 94.4771 219.141 97.1373 217.915C98.4148 217.327 99.8784 217.272 101.198 217.759C102.993 218.422 104.302 219.998 104.617 221.885L105.211 225.439C105.403 226.593 106.118 227.593 107.147 228.149C108.197 228.717 109.453 228.757 110.537 228.258L112.718 227.253C114.996 226.203 117.62 226.201 119.9 227.248L121.191 227.841C122.118 228.267 123.111 228.53 124.127 228.619L124.411 228.644C127.054 228.875 129.65 227.835 131.401 225.842C132.747 224.309 133.485 222.337 133.475 220.297L133.461 217.692C133.45 215.523 132.975 213.382 132.067 211.412L129.365 205.546L123.295 195.955L118.503 189.989C117.827 189.148 117.258 188.227 116.806 187.247L116.616 186.834C115.172 183.7 115.126 180.101 116.49 176.932C117.678 174.17 119.846 171.946 122.577 170.688L126.509 168.876L136.727 164.169L147.626 159.148L160.485 153.224C162.354 152.362 164.156 151.359 165.873 150.224C169.612 147.75 172.915 144.672 175.644 141.115L181.326 133.713L185.866 126.027C186.858 124.348 187.697 122.582 188.372 120.753C190.12 116.018 190.742 110.941 190.188 105.924L189.989 104.123L188.45 95.9742C188.328 95.331 188.149 94.6999 187.916 94.0884L187.455 92.8824C185.646 88.1518 187.815 82.8291 192.415 80.7099C196.949 78.6214 201.647 76.9109 206.462 75.5961L208.029 75.1682L211.421 74.6893C214.306 74.282 217.24 74.387 220.088 74.9995L220.826 75.1581C222.346 75.4849 223.9 75.6211 225.454 75.5637L229.899 75.3995C231.8 75.3293 233.603 74.5378 234.941 73.1858C236.48 71.6311 237.262 69.481 237.08 67.3011L236.978 66.0728C236.76 63.4521 235.517 61.002 233.541 59.2663C231.955 57.8727 229.963 56.9894 227.864 56.7604L225.882 56.544C223.669 56.3025 221.674 55.1029 220.423 53.2621C220.03 52.6836 219.719 52.0535 219.498 51.3898L218.435 48.1927C217.972 46.8002 216.807 45.7563 215.372 45.4478C214.495 45.2593 213.581 45.3603 212.766 45.7356L210.831 46.6269C209.467 47.2556 207.857 46.9901 206.766 45.9565C206.046 45.2744 205.633 44.3304 205.619 43.3389L205.569 39.5756C205.551 38.2427 205.035 36.9646 204.123 35.9924C202.972 34.766 201.312 34.1528 199.64 34.3373L198.736 34.4372C197.971 34.5217 197.224 34.7289 196.525 35.0511L193.177 36.5934C191.635 37.3038 189.874 37.3726 188.281 36.7845C186.688 36.1965 185.394 34.9998 184.684 33.4578L182.342 28.3731C180.578 24.5458 174.895 25.4718 174.438 29.6608L173.693 36.4863L170.119 53.8224L168.599 58.8259C167.88 61.1923 166.443 63.2767 164.487 64.7902C161.411 67.1698 157.368 67.9001 153.655 66.7468L152.091 66.2612C150.667 65.8191 149.186 65.5907 147.695 65.5833L143.975 65.5651C139.705 65.5441 135.459 66.2068 131.399 67.5281L130.473 67.8295C127.05 68.9433 123.77 70.4546 120.699 72.3323L114.369 76.2033L113.052 77.2611C107.536 81.6915 102.762 86.9733 98.9097 92.9075C96.6735 96.3525 94.761 99.9971 93.1969 103.795L93.0378 104.181C91.0802 108.934 89.687 113.9 88.8869 118.978L88.7567 119.804C88.2443 123.056 88.0186 126.346 88.0822 129.637C88.1865 135.042 89.0701 140.403 90.7055 145.556L91.8983 149.313L96.514 159.332C97.2005 160.823 97.7156 162.386 98.0494 163.992L98.4512 165.925C99.1843 169.453 98.7053 173.124 97.0919 176.346C95.9038 178.718 94.1447 180.757 91.9727 182.28L90.2224 183.507C89.0208 184.35 87.7459 185.083 86.4131 185.697L78.1986 189.481L63.9472 194.395Z" stroke="white" stroke-width="2"/>
<path d="M108.873 113.655C108.671 111.949 110.771 110.982 111.936 112.244C112.727 113.1 113.979 113.349 115.037 112.861C116.598 112.143 118.166 113.84 117.326 115.339C116.757 116.355 116.906 117.623 117.697 118.479C118.863 119.741 117.733 121.757 116.048 121.421C114.905 121.194 113.746 121.728 113.176 122.744C112.337 124.243 110.07 123.792 109.868 122.086C109.732 120.928 108.865 119.991 107.723 119.763C106.038 119.428 105.767 117.132 107.327 116.413C108.385 115.926 109.009 114.812 108.873 113.655Z" stroke="white" stroke-width="0.916413"/>
<path d="M135.949 79.7482C135.763 78.1749 137.699 77.2831 138.774 78.4466C139.504 79.2359 140.658 79.4659 141.634 79.0162C143.073 78.3534 144.519 79.919 143.745 81.301C143.22 82.2384 143.358 83.4075 144.087 84.1968C145.162 85.3604 144.12 87.2199 142.566 86.9104C141.513 86.7005 140.443 87.1931 139.918 88.1305C139.144 89.5125 137.053 89.0962 136.867 87.5229C136.741 86.4557 135.942 85.5911 134.889 85.3811C133.335 85.0717 133.085 82.9549 134.524 82.292C135.5 81.8424 136.075 80.8154 135.949 79.7482Z" stroke="white" stroke-width="0.845123"/>
<path d="M166.732 106.494C166.536 104.863 168.545 103.937 169.658 105.146C170.449 106.007 171.706 106.258 172.767 105.769C174.25 105.086 175.764 106.714 174.959 108.164C174.393 109.184 174.547 110.465 175.336 111.322C176.461 112.546 175.365 114.474 173.783 114.152C172.634 113.918 171.465 114.457 170.896 115.482C170.113 116.893 167.935 116.474 167.736 114.823C167.597 113.667 166.724 112.717 165.581 112.485C163.955 112.154 163.702 109.945 165.185 109.262C166.246 108.773 166.872 107.655 166.732 106.494Z" stroke="white"/>
<path d="M136.231 105.444C136.032 103.755 138.11 102.797 139.265 104.047C140.048 104.894 141.287 105.141 142.335 104.658C143.88 103.947 145.433 105.628 144.602 107.111C144.038 108.118 144.186 109.373 144.969 110.221C146.123 111.47 145.004 113.467 143.336 113.134C142.205 112.909 141.057 113.438 140.492 114.445C139.661 115.928 137.416 115.481 137.217 113.792C137.082 112.646 136.224 111.718 135.092 111.492C133.424 111.16 133.156 108.887 134.7 108.176C135.748 107.693 136.366 106.59 136.231 105.444Z" stroke="white" stroke-width="0.907432"/>
<path d="M124.331 140.123C124.139 138.495 126.142 137.572 127.255 138.776C128.01 139.593 129.205 139.831 130.215 139.366C131.704 138.68 133.201 140.3 132.399 141.73C131.856 142.7 131.998 143.91 132.753 144.727C133.866 145.931 132.787 147.855 131.179 147.535C130.089 147.318 128.982 147.828 128.439 148.798C127.637 150.228 125.474 149.797 125.281 148.169C125.151 147.065 124.324 146.17 123.234 145.953C121.626 145.632 121.367 143.442 122.856 142.756C123.866 142.29 124.462 141.228 124.331 140.123Z" stroke="white" stroke-width="0.874614"/>
<path d="M152.872 128.654C152.671 126.948 154.77 125.981 155.935 127.243C156.726 128.098 157.978 128.348 159.036 127.86C160.596 127.142 162.165 128.839 161.325 130.338C160.755 131.354 160.905 132.622 161.696 133.477C162.862 134.739 161.732 136.755 160.047 136.42C158.904 136.192 157.745 136.726 157.175 137.743C156.336 139.241 154.069 138.79 153.868 137.084C153.731 135.927 152.865 134.989 151.722 134.762C150.037 134.426 149.766 132.131 151.326 131.412C152.385 130.925 153.009 129.811 152.872 128.654Z" stroke="white" stroke-width="0.916359"/>
<defs>
<filter id="filter0_f_227_5173" x="46.6523" y="19.0361" width="196.979" height="216.724" filterUnits="userSpaceOnUse" color-interpolation-filters="sRGB">
<feFlood flood-opacity="0" result="BackgroundImageFix"/>
<feBlend mode="normal" in="SourceGraphic" in2="BackgroundImageFix" result="shape"/>
<feGaussianBlur stdDeviation="2" result="effect1_foregroundBlur_227_5173"/>
</filter>
</defs>
</svg>
