<svg width="555" height="555" viewBox="0 0 555 555" fill="none" xmlns="http://www.w3.org/2000/svg">
<circle cx="277.033" cy="277.533" r="274.086" fill="#FBDAAA" stroke="black" stroke-width="5.89431"/>
<circle cx="277.031" cy="277.532" r="209.248" fill="#FBDAAA" stroke="black" stroke-width="5.89431"/>
<g filter="url(#filter0_f_146_41)">
<circle cx="277.031" cy="277.532" r="212.195" fill="#FBDAAA"/>
<circle cx="277.031" cy="277.532" r="195.691" stroke="black" stroke-opacity="0.5" stroke-width="33.0082"/>
</g>
<path d="M308.968 38.6732L307.49 40.0463C304.728 42.6107 305.829 47.2085 309.453 48.2438L315.941 49.3888C318.291 49.8035 320.673 50.0121 323.06 50.0121H326.029C327.156 50.0121 328.279 49.8842 329.378 49.6308L332.663 48.8726C334.408 48.47 335.921 47.3908 336.87 45.8725C337.809 44.3703 338.119 42.5592 337.735 40.8299L337.68 40.5816C337.34 39.0496 336.519 37.6662 335.338 36.6327L334.63 36.0137C333.199 34.761 331.447 33.9318 329.57 33.6191L327.811 33.3258C326.191 33.0558 324.54 33.0289 322.912 33.246L321.583 33.4232C318.245 33.8683 315.028 34.9712 312.119 36.6681L310.024 37.8905C309.644 38.1118 309.29 38.3743 308.968 38.6732Z" stroke="black" stroke-width="5.89431"/>
<path d="M240.668 37.1046L244.617 39.618C245.007 39.866 245.361 40.1659 245.67 40.5093C248.03 43.1306 247.082 47.2976 243.821 48.6403L241.329 49.6662C240.772 49.8958 240.187 50.0525 239.589 50.1322L231.648 51.191H225.03C223.562 51.191 222.109 50.9002 220.753 50.3356L219.216 49.695C217.018 48.7794 215.367 46.9004 214.74 44.6037C214.241 42.7725 214.434 40.8215 215.283 39.1238L215.539 38.6122C216.43 36.8294 217.876 35.3839 219.658 34.4925L220.363 34.1405C221.97 33.3369 223.742 32.9186 225.538 32.9186H227.593C230.27 32.9186 232.92 33.4487 235.391 34.4782L236.591 34.9782C238.008 35.5688 239.372 36.2802 240.668 37.1046Z" stroke="black" stroke-width="5.89431"/>
<path d="M271.077 25.7825L275.939 30.6446C276.478 31.1833 277.386 31.0359 277.727 30.3544L281.16 23.4877L283.482 19.2316C284.283 17.7622 285.378 16.4736 286.7 15.4461L288.568 13.9926C289.497 13.2702 290.64 12.8779 291.817 12.8779H291.883C293.96 12.8779 295.837 14.1156 296.655 16.0245C296.932 16.6707 297.075 17.3665 297.075 18.0696V21.2804C297.075 22.7478 296.92 24.2111 296.612 25.6459L296.142 27.8405C295.588 30.4264 294.663 32.9188 293.397 35.2406C292.316 37.2216 290.996 39.062 289.465 40.7202L284.697 45.8861C281.6 48.9824 276.764 49.502 273.081 47.1341L271.14 45.8861L268.66 44.1502C266.388 42.5598 264.259 40.7739 262.298 38.8129L261.054 37.5691C259.921 36.4357 258.889 35.2054 257.97 33.8923L255.995 31.0717C255.486 30.3437 255.105 29.5331 254.872 28.6757L254.37 26.8381C253.821 24.8246 254.584 22.6822 256.283 21.4692C257.128 20.8652 258.141 20.5405 259.181 20.5405H260.396C261.65 20.5405 262.889 20.8089 264.03 21.3275L265.827 22.1447C267.781 23.0328 269.559 24.265 271.077 25.7825Z" stroke="black" stroke-width="5.89431"/>
<path d="M514.47 299.998L513.064 298.55C510.439 295.846 505.867 297.049 504.912 300.695L503.912 307.207C503.55 309.566 503.394 311.952 503.448 314.338L503.514 317.307C503.539 318.434 503.692 319.554 503.969 320.646L504.801 323.914C505.242 325.649 506.355 327.138 507.894 328.053C509.416 328.958 511.234 329.228 512.954 328.806L513.201 328.745C514.725 328.37 516.09 327.519 517.097 326.316L517.7 325.594C518.921 324.135 519.711 322.365 519.982 320.482L520.235 318.717C520.469 317.091 520.459 315.44 520.206 313.817L519.999 312.492C519.48 309.165 518.306 305.974 516.545 303.103L515.276 301.035C515.046 300.661 514.776 300.313 514.47 299.998Z" stroke="black" stroke-width="5.89431"/>
<path d="M514.517 231.679L512.092 235.684C511.853 236.079 511.561 236.44 511.224 236.757C508.656 239.174 504.469 238.319 503.054 235.088L501.973 232.621C501.731 232.068 501.561 231.487 501.468 230.891L500.233 222.975L500.086 216.359C500.053 214.892 500.311 213.432 500.845 212.065L501.452 210.513C502.318 208.296 504.16 206.603 506.442 205.925C508.262 205.385 510.216 205.535 511.933 206.346L512.45 206.59C514.252 207.442 515.729 208.855 516.66 210.617L517.028 211.313C517.867 212.902 518.325 214.664 518.365 216.46L518.41 218.514C518.47 221.19 517.999 223.852 517.025 226.345L516.552 227.556C515.993 228.986 515.312 230.366 514.517 231.679Z" stroke="black" stroke-width="5.89431"/>
<path d="M526.513 261.829L521.761 266.798C521.234 267.348 521.402 268.253 522.091 268.579L529.032 271.858L533.339 274.084C534.826 274.853 536.138 275.919 537.195 277.217L538.69 279.053C539.433 279.966 539.85 281.1 539.877 282.276L539.878 282.342C539.924 284.418 538.729 286.323 536.839 287.183C536.199 287.474 535.506 287.633 534.803 287.648L531.593 287.72C530.126 287.752 528.66 287.63 527.219 287.355L525.014 286.933C522.416 286.437 519.904 285.568 517.555 284.354C515.55 283.318 513.681 282.038 511.989 280.545L506.718 275.893C503.554 272.866 502.926 268.043 505.212 264.308L506.416 262.339L508.096 259.821C509.636 257.515 511.374 255.347 513.291 253.342L514.506 252.071C515.614 250.913 516.821 249.854 518.114 248.905L520.889 246.869C521.606 246.343 522.408 245.945 523.26 245.692L525.086 245.15C527.087 244.556 529.245 245.271 530.496 246.942C531.119 247.774 531.466 248.78 531.489 249.818L531.516 251.034C531.544 252.287 531.303 253.532 530.81 254.684L530.033 256.5C529.189 258.473 527.997 260.278 526.513 261.829Z" stroke="black" stroke-width="5.89431"/>
<path d="M43.1027 213.765L44.3266 215.37C46.6124 218.366 51.2949 217.714 52.6754 214.208L54.4415 207.86C55.0813 205.561 55.5189 203.21 55.7494 200.835L56.0361 197.879C56.1449 196.758 56.1261 195.627 55.9799 194.51L55.5425 191.166C55.3103 189.391 54.3823 187.781 52.9627 186.69C51.5581 185.61 49.7856 185.126 48.0272 185.341L47.7748 185.372C46.2171 185.563 44.7609 186.246 43.6182 187.322L42.9337 187.966C41.5486 189.27 40.5541 190.934 40.0616 192.772L39.5999 194.495C39.1747 196.081 38.9885 197.722 39.0473 199.363L39.0954 200.703C39.216 204.068 40.0032 207.377 41.4112 210.436L42.4255 212.64C42.6092 213.039 42.8363 213.416 43.1027 213.765Z" stroke="black" stroke-width="5.89431"/>
<path d="M34.946 281.595L37.829 277.907C38.1135 277.543 38.4462 277.219 38.8178 276.945C41.6546 274.85 45.7107 276.196 46.7322 279.571L47.5127 282.15C47.6874 282.727 47.7868 283.325 47.8084 283.927L48.0955 291.933L47.4564 298.52C47.3147 299.981 46.8849 301.4 46.192 302.694L45.406 304.163C44.2824 306.261 42.2528 307.724 39.9063 308.126C38.0354 308.446 36.1122 308.065 34.5044 307.056L34.0199 306.752C32.3315 305.693 31.0324 304.115 30.3173 302.254L30.0349 301.519C29.3903 299.842 29.145 298.038 29.3185 296.25L29.5169 294.205C29.7754 291.541 30.5589 288.954 31.8223 286.594L32.4358 285.448C33.1605 284.094 34.0003 282.805 34.946 281.595Z" stroke="black" stroke-width="5.89431"/>
<path d="M26.6133 250.235L31.9221 245.865C32.5104 245.381 32.4514 244.463 31.806 244.058L25.3028 239.977L21.2908 237.256C19.9057 236.316 18.7289 235.101 17.8337 233.687L16.5675 231.687C15.9381 230.693 15.6581 229.517 15.7718 228.346L15.7781 228.28C15.9787 226.213 17.3918 224.464 19.3708 223.834C20.0408 223.621 20.7471 223.546 21.4469 223.614L24.6427 223.924C26.1033 224.066 27.5447 224.361 28.9432 224.806L31.082 225.486C33.6024 226.287 35.9939 227.448 38.1825 228.933C40.0499 230.2 41.7542 231.692 43.2568 233.375L47.9381 238.62C50.7209 242.001 50.7711 246.865 48.0586 250.302L46.6289 252.114L44.6617 254.414C42.8594 256.522 40.8763 258.468 38.735 260.231L37.3769 261.349C36.1394 262.367 34.8152 263.276 33.4194 264.064L30.4213 265.757C29.6475 266.194 28.804 266.494 27.9281 266.644L26.0506 266.965C23.9935 267.317 21.9349 266.351 20.8915 264.544C20.372 263.644 20.1466 262.604 20.247 261.57L20.3644 260.359C20.4854 259.112 20.8721 257.905 21.4985 256.819L22.4856 255.109C23.5581 253.25 24.9563 251.599 26.6133 250.235Z" stroke="black" stroke-width="5.89431"/>
<path d="M254.557 516.427L256.037 515.055C258.802 512.494 257.706 507.895 254.084 506.855L247.597 505.703C245.247 505.286 242.865 505.074 240.479 505.072L237.509 505.068C236.382 505.067 235.259 505.194 234.16 505.446L230.874 506.2C229.129 506.601 227.615 507.678 226.664 509.196C225.723 510.697 225.411 512.507 225.793 514.237L225.848 514.485C226.186 516.018 227.005 517.402 228.185 518.437L228.892 519.057C230.322 520.311 232.074 521.142 233.95 521.457L235.709 521.753C237.328 522.024 238.979 522.053 240.607 521.838L241.937 521.662C245.275 521.221 248.493 520.122 251.404 518.428L253.501 517.208C253.881 516.987 254.235 516.725 254.557 516.427Z" stroke="black" stroke-width="5.89431"/>
<path d="M322.856 518.073L318.909 515.555C318.52 515.307 318.166 515.006 317.857 514.663C315.501 512.039 316.454 507.873 319.716 506.534L322.209 505.511C322.767 505.282 323.352 505.126 323.95 505.047L331.892 503.997L338.509 504.004C339.978 504.006 341.431 504.299 342.785 504.865L344.322 505.507C346.519 506.425 348.168 508.306 348.792 510.603C349.289 512.435 349.094 514.386 348.243 516.083L347.987 516.594C347.093 518.376 345.646 519.82 343.862 520.709L343.158 521.06C341.55 521.862 339.777 522.278 337.98 522.276L335.926 522.274C333.249 522.271 330.6 521.738 328.13 520.705L326.93 520.204C325.514 519.612 324.15 518.899 322.856 518.073Z" stroke="black" stroke-width="5.89431"/>
<path d="M292.434 529.36L287.578 524.493C287.039 523.953 286.131 524.1 285.789 524.781L282.348 531.644L280.022 535.897C279.219 537.366 278.122 538.653 276.799 539.679L274.929 541.13C273.999 541.852 272.856 542.243 271.679 542.241L271.613 542.241C269.536 542.239 267.661 540.999 266.845 539.089C266.569 538.443 266.427 537.747 266.427 537.044L266.431 533.833C266.433 532.366 266.589 530.902 266.899 529.468L267.371 527.274C267.928 524.689 268.856 522.197 270.125 519.877C271.208 517.897 272.53 516.058 274.063 514.402L278.837 509.241C281.937 506.149 286.773 505.635 290.454 508.007L292.394 509.257L294.872 510.996C297.142 512.589 299.269 514.377 301.227 516.34L302.47 517.585C303.602 518.72 304.633 519.951 305.55 521.266L307.522 524.088C308.03 524.817 308.41 525.628 308.642 526.486L309.142 528.324C309.688 530.338 308.923 532.48 307.223 533.691C306.377 534.294 305.363 534.617 304.324 534.616L303.108 534.615C301.855 534.613 300.617 534.343 299.476 533.823L297.679 533.004C295.727 532.114 293.95 530.88 292.434 529.36Z" stroke="black" stroke-width="5.89431"/>
<defs>
<filter id="filter0_f_146_41" x="40.4335" y="40.9345" width="473.196" height="473.196" filterUnits="userSpaceOnUse" color-interpolation-filters="sRGB">
<feFlood flood-opacity="0" result="BackgroundImageFix"/>
<feBlend mode="normal" in="SourceGraphic" in2="BackgroundImageFix" result="shape"/>
<feGaussianBlur stdDeviation="12.2012" result="effect1_foregroundBlur_146_41"/>
</filter>
</defs>
</svg>
