<svg width="136" height="147" viewBox="0 0 136 147" fill="none" xmlns="http://www.w3.org/2000/svg">
<g filter="url(#filter0_f_239_7)">
<path d="M7.04256 112.842L105.263 18.8367L109.844 25.0732C111.95 27.9398 113.835 30.962 115.484 34.1137L116.021 35.141C117.436 37.8452 118.628 40.6603 119.585 43.5581C120.661 46.8155 121.436 50.1646 121.901 53.5634L122.171 55.533C122.64 58.9642 122.852 62.4257 122.804 65.8886C122.734 70.968 122.107 76.0244 120.932 80.9667L120.607 82.3357C119.671 86.2755 118.328 90.1071 116.599 93.7688C114.747 97.6902 112.465 101.393 109.793 104.809L105.157 110.736L100.259 115.608C97.3528 118.499 94.1844 121.114 90.795 123.42L89.0036 124.638C85.7875 126.826 82.3194 128.618 78.6743 129.976C74.852 131.399 70.8155 132.339 66.7587 132.763C62.0775 133.252 57.2931 133.073 52.6643 132.22L47.374 131.245L34.3499 127.655L23.6968 123.598L22.6289 123.032C17.4817 120.302 12.5789 117.135 7.97466 113.564L7.04256 112.842Z" stroke="#7B00FF" stroke-width="4.32313"/>
<path d="M85.4448 53.5309L100.559 41.3997C101.927 40.301 103.891 40.3563 105.195 41.5301C105.481 41.7875 105.724 42.0894 105.914 42.4241L107.464 45.1539C108 46.0972 108.468 47.0773 108.865 48.0869L110.246 51.5999L110.971 53.5779C111.553 55.165 111.972 56.8068 112.224 58.4782C112.499 60.3056 112.571 62.1577 112.439 64.0009L112.243 66.7245L110.467 75.2035L108.858 79.6711C108.341 81.1048 107.625 82.4584 106.73 83.6918L105.904 84.8297C105.548 85.3203 105.124 85.7577 104.645 86.1285L103.928 86.6825C103.472 87.0357 102.927 87.2565 102.353 87.3207C101.126 87.4582 99.9322 86.8655 99.2998 85.805L91.1377 72.1181L86.3286 64.335C85.9175 63.6696 85.5607 62.9721 85.2618 62.2493L83.9943 59.184C83.5809 58.1842 83.5125 57.0752 83.8 56.0322C84.0717 55.0463 84.6473 54.1711 85.4448 53.5309Z" stroke="#7B00FF" stroke-width="4.32313"/>
<path d="M26.6518 108.6L41.1147 97.307C43.2233 95.6606 46.1026 95.4075 48.466 96.6609C48.8096 96.8431 49.1369 97.0546 49.4443 97.2929L56.8337 103.023L63.4092 107.638L69.0864 111.445L70.9672 112.809C72.0837 113.62 72.5805 115.037 72.214 116.367C72.0492 116.965 71.7197 117.505 71.263 117.924L69.7437 119.321C68.73 120.252 67.543 120.976 66.2502 121.449L63.8436 122.331L60.1188 123.656C58.4675 124.244 56.7398 124.589 54.9896 124.682C53.3437 124.769 51.6937 124.631 50.0849 124.273L41.9464 122.462L36.3256 120.913C35.2127 120.606 34.1298 120.2 33.0898 119.699L32.2672 119.303C30.2536 118.333 28.4794 116.93 27.0713 115.195L26.5387 114.538C26.367 114.327 26.2131 114.101 26.0785 113.864L25.7299 113.25C25.131 112.196 25.0988 110.911 25.6441 109.828C25.8851 109.349 26.2293 108.93 26.6518 108.6Z" stroke="#7B00FF" stroke-width="4.32313"/>
<path d="M85.4201 110.836L95.0287 102.774C96.8206 101.27 97.6526 98.9109 97.2 96.616C97.0666 95.9393 96.8249 95.2885 96.4843 94.6887L93.6022 89.6133L89.8284 82.9677L84.0242 73.5204L81.1515 69.0894C80.7086 68.4063 80.1777 67.7846 79.5725 67.2401L78.7863 66.5328C77.5672 65.4361 75.9814 64.8363 74.3417 64.8516C73.4286 64.8601 72.5275 65.0594 71.6959 65.4365L70.6012 65.933C69.6136 66.3809 68.6899 66.958 67.8543 67.6492L64.0306 70.8123L59.3253 75.6814L57.4976 77.7131C56.5638 78.7511 55.7465 79.8881 55.0601 81.1039L54.6272 81.8707C54.1456 82.7239 53.7704 83.6329 53.5101 84.5774L53.2713 85.444C53.024 86.3411 52.9502 87.2772 53.0538 88.202C53.164 89.1864 53.4731 90.1382 53.9623 90.9996L54.0639 91.1786C54.5054 91.9559 55.0692 92.6571 55.7338 93.2549L57.4254 94.7767L60.1204 97.2011L64.2348 100.577L71.565 106.522L75.302 109.233L75.8965 109.632C77.3828 110.628 79.0202 111.379 80.7454 111.855C82.3764 112.304 84.1241 111.923 85.4201 110.836Z" stroke="#7B00FF" stroke-width="4.32313"/>
</g>
<path d="M6.86678 112.528L105.087 18.5232L109.668 24.7598C111.774 27.6264 113.659 30.6485 115.308 33.8003L115.845 34.8275C117.26 37.5318 118.452 40.3468 119.409 43.2447C120.485 46.502 121.261 49.8511 121.726 53.25L121.995 55.2195C122.464 58.6507 122.676 62.1123 122.628 65.5751C122.558 70.6545 121.931 75.7109 120.757 80.6532L120.431 82.0223C119.495 85.962 118.152 89.7936 116.423 93.4554C114.572 97.3767 112.289 101.08 109.617 104.495L104.981 110.423L100.083 115.294C97.177 118.185 94.0087 120.8 90.6192 123.106L88.8279 124.325C85.6118 126.512 82.1436 128.305 78.4986 129.662C74.6762 131.086 70.6397 132.026 66.5829 132.449C61.9017 132.938 57.1173 132.759 52.4886 131.906L47.1982 130.932L34.1741 127.342L23.521 123.285L22.4531 122.718C17.3059 119.988 12.4031 116.821 7.79888 113.251L6.86678 112.528Z" stroke="white" stroke-width="0.720521"/>
<path d="M85.269 53.2175L100.383 41.0862C101.752 39.9876 103.715 40.0428 105.02 41.2166C105.306 41.474 105.548 41.7759 105.739 42.1106L107.289 44.8404C107.824 45.7837 108.292 46.7639 108.689 47.7735L110.07 51.2864L110.795 53.2645C111.377 54.8515 111.797 56.4933 112.048 58.1648C112.323 59.9921 112.395 61.8442 112.263 63.6874L112.068 66.411L110.291 74.89L108.682 79.3576C108.165 80.7913 107.449 82.1449 106.554 83.3783L105.729 84.5162C105.372 85.0068 104.948 85.4442 104.469 85.8151L103.753 86.369C103.296 86.7222 102.751 86.943 102.177 87.0072C100.95 87.1447 99.7564 86.552 99.124 85.4915L90.9619 71.8046L86.1528 64.0215C85.7417 63.3561 85.3849 62.6586 85.0861 61.9358L83.8185 58.8705C83.4051 57.8708 83.3368 56.7617 83.6242 55.7188C83.896 54.7328 84.4715 53.8576 85.269 53.2175Z" stroke="white" stroke-width="0.720521"/>
<path d="M26.476 108.286L40.9389 96.9935C43.0475 95.3471 45.9269 95.0941 48.2903 96.3474C48.6339 96.5297 48.9612 96.7411 49.2685 96.9794L56.6579 102.709L63.2334 107.324L68.9106 111.131L70.7915 112.496C71.9079 113.306 72.4047 114.724 72.0382 116.054C71.8734 116.651 71.5439 117.191 71.0873 117.611L69.5679 119.007C68.5542 119.939 67.3672 120.662 66.0745 121.136L63.6678 122.018L59.943 123.343C58.2917 123.93 56.564 124.276 54.8138 124.368C53.1679 124.455 51.5179 124.318 49.9091 123.96L41.7707 122.149L36.1498 120.599C35.037 120.293 33.954 119.886 32.914 119.385L32.0914 118.989C30.0779 118.02 28.3036 116.617 26.8955 114.881L26.3629 114.225C26.1912 114.013 26.0373 113.788 25.9028 113.551L25.5541 112.937C24.9552 111.882 24.923 110.598 25.4683 109.515C25.7094 109.036 26.0535 108.616 26.476 108.286Z" stroke="white" stroke-width="0.720521"/>
<path d="M85.2443 110.522L94.853 102.46C96.6449 100.957 97.4768 98.5974 97.0242 96.3025C96.8908 95.6258 96.6491 94.975 96.3085 94.3752L93.4264 89.2998L89.6527 82.6543L83.8485 73.2069L80.9757 68.7759C80.5328 68.0929 80.002 67.4711 79.3967 66.9266L78.6105 66.2193C77.3914 65.1226 75.8056 64.5228 74.1659 64.5381C73.2529 64.5467 72.3517 64.7459 71.5201 65.123L70.4255 65.6195C69.4379 66.0674 68.5141 66.6445 67.6786 67.3358L63.8548 70.4988L59.1495 75.3679L57.3218 77.3996C56.388 78.4376 55.5707 79.5746 54.8843 80.7904L54.4515 81.5572C53.9698 82.4104 53.5947 83.3194 53.3343 84.2639L53.0955 85.1305C52.8482 86.0276 52.7744 86.9637 52.878 87.8885C52.9883 88.8729 53.2974 89.8247 53.7865 90.6861L53.8881 90.8651C54.3296 91.6425 54.8935 92.3436 55.5581 92.9415L57.2496 94.4632L59.9447 96.8876L64.059 100.264L71.3893 106.208L75.1262 108.92L75.7207 109.318C77.2071 110.315 78.8444 111.066 80.5696 111.541C82.2006 111.991 83.9483 111.61 85.2443 110.522Z" stroke="white" stroke-width="0.720521"/>
<defs>
<filter id="filter0_f_239_7" x="0.854243" y="12.6902" width="127" height="125.384" filterUnits="userSpaceOnUse" color-interpolation-filters="sRGB">
<feFlood flood-opacity="0" result="BackgroundImageFix"/>
<feBlend mode="normal" in="SourceGraphic" in2="BackgroundImageFix" result="shape"/>
<feGaussianBlur stdDeviation="1.44104" result="effect1_foregroundBlur_239_7"/>
</filter>
</defs>
</svg>
