<svg width="212" height="192" viewBox="0 0 212 192" fill="none" xmlns="http://www.w3.org/2000/svg">
<g filter="url(#filter0_f_227_5174)">
<path d="M47.5443 146.891L41.6376 149.613C41.1301 149.847 40.7121 150.239 40.4464 150.73C39.4676 152.541 40.8968 154.713 42.947 154.531L45.1587 154.334C46.0566 154.254 46.9534 154.498 47.6871 155.022L49.6039 156.39C50.0455 156.705 50.461 157.055 50.8466 157.437L53.7071 160.269C55.1709 161.829 57.469 162.278 59.4123 161.382L61.4569 160.441C62.6606 159.886 64.0511 159.909 65.2362 160.502L65.2892 160.529C66.1406 160.955 66.8216 161.659 67.22 162.524L67.2987 162.694C68.2244 164.704 70.6036 165.582 72.6129 164.656C73.5778 164.212 74.6833 164.17 75.6799 164.538C77.0357 165.039 78.0244 166.229 78.2625 167.655L78.7106 170.339C78.8562 171.21 79.396 171.966 80.1734 172.386C80.9663 172.815 81.9147 172.845 82.7334 172.468L84.3808 171.709C86.1019 170.916 88.0836 170.915 89.8057 171.706L90.7808 172.153C91.4809 172.475 92.231 172.674 92.9984 172.741L93.2127 172.76C95.2092 172.935 97.1697 172.149 98.4925 170.643C99.5092 169.486 100.066 167.996 100.059 166.455L100.049 164.488C100.04 162.85 99.6813 161.232 98.9958 159.744L96.9546 155.313L92.3701 148.07L88.7504 143.563C88.2402 142.928 87.8098 142.233 87.4689 141.493L87.3249 141.18C86.2345 138.813 86.1999 136.095 87.2297 133.701C88.1271 131.615 89.7649 129.935 91.8274 128.985L94.7977 127.617L102.515 124.061L110.747 120.269L120.459 115.795C121.872 115.144 123.232 114.386 124.529 113.528C127.354 111.66 129.848 109.335 131.91 106.649L136.201 101.058L139.63 95.2527C140.379 93.9843 141.013 92.651 141.523 91.269C142.843 87.6927 143.313 83.8581 142.894 80.0689L142.744 78.7087L141.581 72.5538C141.49 72.0679 141.355 71.5913 141.178 71.1294L140.83 70.2185C139.464 66.6454 141.102 62.6252 144.577 61.0246C148.001 59.4471 151.549 58.1552 155.186 57.1621L156.37 56.8389L158.932 56.4772C161.111 56.1696 163.327 56.2489 165.478 56.7115L166.036 56.8313C167.183 57.0781 168.357 57.181 169.531 57.1377L172.888 57.0136C174.324 56.9606 175.686 56.3627 176.697 55.3416C177.859 54.1674 178.449 52.5434 178.312 50.8968L178.235 49.9691C178.071 47.9897 177.131 46.1391 175.639 44.8281C174.441 43.7755 172.937 43.1084 171.352 42.9354L169.854 42.772C168.183 42.5896 166.676 41.6835 165.731 40.2931C165.434 39.8562 165.199 39.3803 165.032 38.879L164.229 36.4642C163.88 35.4125 163 34.624 161.916 34.391C161.254 34.2486 160.563 34.3248 159.948 34.6083L158.486 35.2815C157.456 35.7564 156.24 35.5559 155.416 34.7752C154.872 34.26 154.56 33.547 154.55 32.7981L154.511 29.9557C154.498 28.9489 154.108 27.9836 153.42 27.2493C152.551 26.3229 151.296 25.8598 150.034 25.9992L149.351 26.0746C148.773 26.1384 148.209 26.295 147.681 26.5383L145.152 27.7032C143.987 28.2398 142.657 28.2917 141.454 27.8476C140.251 27.4034 139.274 26.4996 138.737 25.3348L136.968 21.4943C135.636 18.6036 131.344 19.303 130.998 22.467L130.436 27.6223L127.736 40.7163L126.588 44.4955C126.045 46.2829 124.96 47.8572 123.482 49.0003C121.159 50.7977 118.106 51.3493 115.301 50.4782L114.119 50.1114C113.044 49.7775 111.925 49.605 110.8 49.5994L107.99 49.5856C104.765 49.5698 101.558 50.0703 98.4909 51.0683L97.7914 51.296C95.2062 52.1372 92.7285 53.2787 90.4092 54.6969L85.6277 57.6207L84.6331 58.4196C80.4669 61.7659 76.8611 65.7553 73.9516 70.2375C72.2626 72.8395 70.8181 75.5923 69.6367 78.4606L69.5165 78.7524C68.0379 82.3423 66.9857 86.0933 66.3813 89.9284L66.283 90.5527C65.896 93.0086 65.7255 95.4938 65.7735 97.9795C65.8523 102.062 66.5197 106.111 67.755 110.003L68.6558 112.841L72.1421 120.409C72.6606 121.534 73.0497 122.715 73.3018 123.928L73.6053 125.388C74.159 128.052 73.7972 130.825 72.5786 133.259C71.6812 135.05 70.3525 136.59 68.712 137.741L67.39 138.668C66.4825 139.304 65.5196 139.858 64.5128 140.322L58.3084 143.18L47.5443 146.891Z" stroke="#FF002B" stroke-width="4.53182"/>
<path d="M82.141 85.499C82.0608 84.8196 82.8969 84.4344 83.3611 84.9369C84.2349 85.8827 85.6183 86.1582 86.7878 85.6194C87.4092 85.3332 88.0338 86.0093 87.6994 86.6061C87.07 87.7294 87.2354 89.1302 88.1092 90.076C88.5735 90.5785 88.1235 91.3815 87.4525 91.2479C86.1897 90.9963 84.9085 91.5866 84.2791 92.7098C83.9447 93.3067 83.0419 93.1269 82.9616 92.4474C82.8106 91.1687 81.8534 90.1326 80.5906 89.8811C79.9196 89.7475 79.8117 88.8333 80.433 88.5471C81.6025 88.0083 82.2921 86.7777 82.141 85.499Z" stroke="#FF002B" stroke-width="2.26591"/>
<path d="M102.286 60.123C102.205 59.4436 103.041 59.0585 103.506 59.561C104.379 60.5067 105.763 60.7822 106.932 60.2435C107.554 59.9572 108.178 60.6333 107.844 61.2301C107.214 62.3534 107.38 63.7543 108.254 64.7C108.718 65.2025 108.268 66.0055 107.597 65.8719C106.334 65.6204 105.053 66.2106 104.424 67.3339C104.089 67.9307 103.186 67.7509 103.106 67.0715C102.955 65.7927 101.998 64.7567 100.735 64.5052C100.064 64.3715 99.9562 63.4573 100.578 63.1711C101.747 62.6323 102.437 61.4018 102.286 60.123Z" stroke="#FF002B" stroke-width="2.26591"/>
<path d="M125.7 79.7607C125.619 79.0813 126.455 78.6961 126.92 79.1987C127.794 80.1444 129.177 80.4199 130.346 79.8812C130.968 79.5949 131.592 80.271 131.258 80.8678C130.629 81.9911 130.794 83.3919 131.668 84.3377C132.132 84.8402 131.682 85.6432 131.011 85.5096C129.748 85.2581 128.467 85.8483 127.838 86.9716C127.503 87.5684 126.6 87.3886 126.52 86.7091C126.369 85.4304 125.412 84.3944 124.149 84.1428C123.478 84.0092 123.37 83.095 123.992 82.8088C125.161 82.27 125.851 81.0395 125.7 79.7607Z" stroke="#FF002B" stroke-width="2.26591"/>
<path d="M103.041 79.0059C102.961 78.3264 103.797 77.9413 104.262 78.4438C105.135 79.3895 106.519 79.6651 107.688 79.1263C108.31 78.84 108.934 79.5161 108.6 80.113C107.97 81.2362 108.136 82.6371 109.01 83.5828C109.474 84.0853 109.024 84.8883 108.353 84.7547C107.09 84.5032 105.809 85.0934 105.179 86.2167C104.845 86.8135 103.942 86.6337 103.862 85.9543C103.711 84.6755 102.754 83.6395 101.491 83.388C100.82 83.2543 100.712 82.3402 101.333 82.0539C102.503 81.5151 103.192 80.2846 103.041 79.0059Z" stroke="#FF002B" stroke-width="2.26591"/>
<path d="M93.977 105.441C93.8967 104.762 94.7328 104.377 95.1971 104.879C96.0709 105.825 97.4543 106.101 98.6237 105.562C99.2451 105.276 99.8698 105.952 99.5353 106.549C98.9059 107.672 99.0713 109.073 99.9451 110.018C100.409 110.521 99.9594 111.324 99.2884 111.19C98.0256 110.939 96.7445 111.529 96.115 112.652C95.7806 113.249 94.8778 113.069 94.7976 112.39C94.6466 111.111 93.6893 110.075 92.4265 109.824C91.7556 109.69 91.6476 108.776 92.269 108.489C93.4385 107.951 94.128 106.72 93.977 105.441Z" stroke="#FF002B" stroke-width="2.26591"/>
<path d="M115.125 97.1328C115.045 96.4534 115.881 96.0682 116.346 96.5707C117.219 97.5165 118.603 97.792 119.772 97.2532C120.394 96.967 121.018 97.6431 120.684 98.2399C120.054 99.3632 120.22 100.764 121.094 101.71C121.558 102.212 121.108 103.015 120.437 102.882C119.174 102.63 117.893 103.22 117.263 104.344C116.929 104.94 116.026 104.761 115.946 104.081C115.795 102.802 114.838 101.766 113.575 101.515C112.904 101.381 112.796 100.467 113.417 100.181C114.587 99.6421 115.276 98.4115 115.125 97.1328Z" stroke="#FF002B" stroke-width="2.26591"/>
</g>
<path d="M47.9017 146.828L41.995 149.549C41.4875 149.783 41.0695 150.175 40.8038 150.667C39.825 152.477 41.2542 154.649 43.3044 154.467L45.5161 154.27C46.414 154.191 47.3108 154.435 48.0445 154.958L49.9614 156.327C50.4029 156.642 50.8185 156.992 51.204 157.374L54.0645 160.205C55.5283 161.766 57.8264 162.214 59.7697 161.319L61.8143 160.377C63.018 159.822 64.4086 159.845 65.5936 160.439L65.6466 160.465C66.498 160.892 67.179 161.595 67.5774 162.46L67.6562 162.631C68.5818 164.64 70.961 165.519 72.9703 164.593C73.9352 164.148 75.0407 164.107 76.0373 164.475C77.3931 164.975 78.3818 166.166 78.6199 167.592L79.0681 170.275C79.2136 171.147 79.7534 171.903 80.5308 172.323C81.3237 172.751 82.2722 172.782 83.0908 172.405L84.7382 171.646C86.4594 170.853 88.441 170.851 90.1631 171.642L91.1382 172.09C91.8383 172.411 92.5884 172.61 93.3559 172.677L93.5701 172.696C95.5666 172.871 97.5271 172.085 98.8499 170.58C99.8667 169.422 100.424 167.932 100.416 166.392L100.406 164.424C100.398 162.786 100.039 161.169 99.3532 159.681L97.312 155.25L92.7275 148.006L89.1079 143.5C88.5976 142.865 88.1673 142.169 87.8263 141.429L87.6823 141.117C86.592 138.75 86.5574 136.032 87.5872 133.638C88.4846 131.552 90.1223 129.872 92.1848 128.922L95.1551 127.553L102.873 123.998L111.105 120.205L120.817 115.731C122.229 115.08 123.59 114.323 124.887 113.465C127.711 111.597 130.205 109.272 132.267 106.586L136.558 100.995L139.987 95.1892C140.736 93.9208 141.37 92.5875 141.88 91.2055C143.201 87.6292 143.67 83.7946 143.252 80.0054L143.102 78.6452L141.939 72.4903C141.847 72.0044 141.712 71.5278 141.536 71.0659L141.187 70.1551C139.821 66.582 141.46 62.5617 144.934 60.9611C148.358 59.3836 151.907 58.0917 155.544 57.0986L156.727 56.7755L159.289 56.4137C161.468 56.1061 163.684 56.1854 165.836 56.648L166.393 56.7678C167.541 57.0146 168.715 57.1175 169.888 57.0742L173.246 56.9502C174.681 56.8971 176.043 56.2992 177.054 55.2781C178.216 54.1039 178.807 52.4799 178.67 50.8334L178.593 49.9056C178.428 47.9262 177.489 46.0757 175.997 44.7647C174.799 43.7121 173.294 43.0449 171.709 42.8719L170.212 42.7085C168.54 42.5261 167.033 41.62 166.089 40.2297C165.792 39.7927 165.556 39.3168 165.39 38.8155L164.587 36.4007C164.237 35.349 163.357 34.5605 162.274 34.3275C161.611 34.1851 160.921 34.2614 160.305 34.5449L158.844 35.2181C157.813 35.693 156.597 35.4924 155.773 34.7117C155.23 34.1965 154.917 33.4835 154.907 32.7346L154.869 29.8922C154.855 28.8854 154.466 27.9201 153.777 27.1858C152.908 26.2595 151.654 25.7963 150.391 25.9357L149.708 26.0111C149.13 26.0749 148.566 26.2315 148.038 26.4748L145.509 27.6397C144.345 28.1763 143.015 28.2282 141.812 27.7841C140.609 27.3399 139.631 26.4361 139.095 25.2714L137.325 21.4309C135.994 18.5401 131.701 19.2395 131.356 22.4035L130.793 27.5588L128.094 40.6528L126.945 44.432C126.403 46.2194 125.317 47.7937 123.84 48.9369C121.517 50.7342 118.463 51.2858 115.658 50.4147L114.477 50.0479C113.402 49.714 112.283 49.5415 111.157 49.5359L108.347 49.5221C105.122 49.5063 101.915 50.0069 98.8483 51.0049L98.1488 51.2325C95.5636 52.0738 93.086 53.2152 90.7666 54.6335L85.9852 57.5573L84.9905 58.3562C80.8243 61.7025 77.2185 65.6919 74.309 70.174C72.62 72.776 71.1755 75.5288 69.9941 78.3972L69.8739 78.6889C68.3953 82.2788 67.3431 86.0298 66.7388 89.8649L66.6404 90.4892C66.2534 92.9451 66.0829 95.4303 66.1309 97.916C66.2097 101.998 66.8771 106.048 68.1124 109.94L69.0132 112.778L72.4995 120.345C73.018 121.47 73.4071 122.651 73.6592 123.864L73.9627 125.324C74.5164 127.989 74.1547 130.762 72.936 133.195C72.0387 134.987 70.71 136.527 69.0695 137.677L67.7474 138.604C66.8399 139.241 65.877 139.794 64.8703 140.258L58.6658 143.116L47.9017 146.828Z" stroke="white" stroke-width="1.51061"/>
<path d="M81.8347 85.845C81.6826 84.5564 83.2681 83.826 84.1486 84.779C84.7459 85.4254 85.6915 85.6137 86.4908 85.2455C87.6693 84.7026 88.854 85.9848 88.2197 87.1167C87.7895 87.8845 87.9025 88.842 88.4998 89.4884C89.3803 90.4414 88.5269 91.9644 87.2544 91.7109C86.3912 91.539 85.5155 91.9424 85.0853 92.7102C84.451 93.8421 82.7389 93.5011 82.5867 92.2126C82.4835 91.3385 81.8292 90.6304 80.9661 90.4584C79.6936 90.205 79.4888 88.4713 80.6673 87.9284C81.4666 87.5601 81.938 86.719 81.8347 85.845Z" stroke="white" stroke-width="0.69217"/>
<path d="M102.286 60.2346C102.145 59.0464 103.607 58.3727 104.419 59.2516C104.97 59.8477 105.842 60.0214 106.579 59.6818C107.666 59.1811 108.759 60.3636 108.174 61.4075C107.777 62.1155 107.881 62.9985 108.432 63.5947C109.244 64.4735 108.457 65.878 107.284 65.6443C106.488 65.4857 105.68 65.8578 105.283 66.5658C104.698 67.6097 103.119 67.2952 102.979 66.1069C102.884 65.3009 102.28 64.6478 101.484 64.4892C100.311 64.2555 100.122 62.6567 101.209 62.156C101.946 61.8164 102.381 61.0407 102.286 60.2346Z" stroke="white" stroke-width="0.638325"/>
<path d="M125.535 80.4364C125.387 79.2041 126.905 78.5047 127.745 79.4184C128.343 80.0684 129.292 80.2577 130.093 79.8885C131.213 79.3727 132.357 80.6022 131.749 81.6976C131.321 82.4681 131.438 83.4352 132.034 84.0831C132.883 85.0072 132.056 86.4632 130.861 86.2203C129.993 86.0438 129.11 86.4503 128.68 87.225C128.088 88.2909 126.444 87.9739 126.294 86.7275C126.188 85.8537 125.529 85.1364 124.666 84.9609C123.438 84.7113 123.247 83.0428 124.366 82.527C125.168 82.1577 125.641 81.313 125.535 80.4364Z" stroke="white" stroke-width="0.755304"/>
<path d="M102.499 79.6426C102.348 78.3667 103.918 77.6434 104.79 78.587C105.381 79.2271 106.318 79.4136 107.109 79.049C108.276 78.5114 109.449 79.7811 108.821 80.9019C108.395 81.6621 108.507 82.6103 109.099 83.2504C109.97 84.194 109.125 85.702 107.865 85.4511C107.011 85.2808 106.144 85.6803 105.718 86.4406C105.089 87.5614 103.394 87.2237 103.243 85.9478C103.141 85.0823 102.493 84.3811 101.639 84.2109C100.379 83.9599 100.176 82.2432 101.343 81.7056C102.134 81.3409 102.601 80.5081 102.499 79.6426Z" stroke="white" stroke-width="0.685387"/>
<path d="M93.5097 105.836C93.3645 104.606 94.8777 103.909 95.718 104.819C96.2881 105.436 97.1905 105.615 97.9534 105.264C99.0781 104.746 100.209 105.969 99.6034 107.05C99.1928 107.782 99.3007 108.696 99.8708 109.313C100.711 110.223 99.8966 111.676 98.6822 111.434C97.8584 111.27 97.0226 111.655 96.612 112.388C96.0067 113.468 94.3726 113.143 94.2274 111.913C94.1289 111.079 93.5044 110.403 92.6806 110.239C91.4662 109.997 91.2708 108.342 92.3955 107.824C93.1584 107.473 93.6082 106.67 93.5097 105.836Z" stroke="white" stroke-width="0.660599"/>
<path d="M115.067 97.173C114.914 95.8846 116.5 95.1541 117.38 96.1071C117.978 96.7535 118.923 96.9418 119.722 96.5736C120.901 96.0307 122.085 97.3129 121.451 98.4447C121.021 99.2124 121.134 100.17 121.731 100.816C122.612 101.769 121.758 103.292 120.486 103.039C119.623 102.867 118.747 103.27 118.317 104.038C117.683 105.17 115.971 104.829 115.819 103.54C115.715 102.666 115.061 101.958 114.198 101.786C112.926 101.533 112.721 99.7992 113.899 99.2563C114.699 98.8881 115.17 98.047 115.067 97.173Z" stroke="white" stroke-width="0.692129"/>
<defs>
<filter id="filter0_f_227_5174" x="34.8401" y="14.3782" width="148.779" height="163.693" filterUnits="userSpaceOnUse" color-interpolation-filters="sRGB">
<feFlood flood-opacity="0" result="BackgroundImageFix"/>
<feBlend mode="normal" in="SourceGraphic" in2="BackgroundImageFix" result="shape"/>
<feGaussianBlur stdDeviation="1.51061" result="effect1_foregroundBlur_227_5174"/>
</filter>
</defs>
</svg>
