<svg width="1436" height="899" viewBox="0 0 1436 899" fill="none" xmlns="http://www.w3.org/2000/svg">
<path d="M4.5 776.522V112.5C4.5 104.63 10.8799 98.25 18.75 98.25H25.1009C30.3389 98.25 35.5489 97.4853 40.566 95.9802C45.4965 94.5011 50.1893 92.3222 54.501 89.5102L58.0173 87.217C62.8261 84.0808 67.2962 80.4538 71.3558 76.3942L75.75 72C82.7202 65.0298 88.7511 57.1799 93.69 48.6491L94.5 47.25L96.9345 42.1105C99.796 36.0697 101.754 29.641 102.745 23.0306L103.361 18.9266C103.454 18.3097 103.5 17.6868 103.5 17.063C103.5 10.1247 109.125 4.5 116.063 4.5H1322.41C1330.61 4.5 1337.25 11.142 1337.25 19.3354C1337.25 20.4417 1337.37 21.5445 1337.62 22.6232L1339.85 32.4252C1340.61 35.8038 1341.63 39.1212 1342.89 42.3503C1345.12 48.092 1348.1 53.5161 1351.74 58.484L1354.5 62.25L1362.83 71.0437C1366.27 74.6753 1370 78.0233 1373.98 81.055L1376.18 82.7312C1381.2 86.5604 1386.71 89.7118 1392.56 92.1041C1397.67 94.1944 1403 95.6904 1408.45 96.5627L1418.18 98.1189C1418.73 98.2061 1419.28 98.25 1419.83 98.25C1425.59 98.25 1430.26 102.912 1430.27 108.67L1431.71 782.369C1431.73 791.41 1424.41 798.75 1415.37 798.75C1414.29 798.75 1413.22 798.856 1412.16 799.067L1398.75 801.75L1392.45 803.849C1387.66 805.445 1383.06 807.54 1378.71 810.1C1374.58 812.527 1370.7 815.36 1367.14 818.556L1355.79 828.732C1352.44 831.732 1349.49 835.142 1347 838.881C1344.51 842.612 1342.5 846.641 1341.02 850.874L1340.37 852.732C1338.79 857.232 1337.69 861.883 1337.07 866.61L1335.75 876.75C1335.75 886.691 1327.69 894.75 1317.75 894.75H122.098C110.17 894.75 100.5 885.08 100.5 873.152C100.5 872.052 100.416 870.954 100.249 869.867L99.7383 866.549C98.2645 856.969 94.683 847.836 89.2521 839.807L87.2631 836.867C82.6151 829.996 76.9428 823.877 70.4433 818.722L69.3603 817.863C62.1678 812.159 54.097 807.66 45.4627 804.542L35.2827 800.866C32.7799 799.962 30.1392 799.5 27.4782 799.5C14.7877 799.5 4.5 789.212 4.5 776.522Z" stroke="white" stroke-width="7.5"/>
<path d="M33 754.191V134.402C33 126.817 39.1486 120.668 46.7333 120.668H52.907C57.9214 120.668 62.9104 119.957 67.725 118.556C72.4998 117.166 77.0552 115.111 81.2574 112.452L84.5239 110.385C89.1937 107.43 93.5462 104.001 97.5123 100.152L101.667 96.1213C108.384 89.6037 114.215 82.2314 119.01 74.194L119.737 72.9768L122.11 68.1145C124.849 62.5043 126.727 56.5136 127.681 50.3439L128.273 46.5145C128.364 45.9219 128.41 45.3231 128.41 44.7235C128.41 38.2488 133.659 33 140.134 33H1303.59C1311.23 33 1317.43 39.1925 1317.43 46.8314C1317.43 47.8934 1317.55 48.9518 1317.79 49.9858L1319.92 59.0741C1320.67 62.2597 1321.65 65.3843 1322.87 68.4212C1325.01 73.7723 1327.86 78.8139 1331.34 83.413L1334.05 87.0038L1342.02 95.1645C1345.38 98.6022 1349 101.764 1352.87 104.621L1354.86 106.094C1359.76 109.717 1365.11 112.689 1370.77 114.937C1375.67 116.882 1380.77 118.271 1385.98 119.08L1395.44 120.549C1395.96 120.629 1396.47 120.668 1396.99 120.668C1402.55 120.668 1407.06 125.171 1407.08 130.732L1408.47 759.898C1408.48 768.635 1401.41 775.727 1392.67 775.727C1391.66 775.727 1390.65 775.824 1389.66 776.017L1376.7 778.533L1370.56 780.518C1365.99 781.996 1361.58 783.941 1357.41 786.322C1353.41 788.605 1349.65 791.276 1346.17 794.299L1335.22 803.825C1332.05 806.59 1329.23 809.747 1326.84 813.219C1324.43 816.732 1322.48 820.539 1321.03 824.548L1320.44 826.177C1318.92 830.405 1317.85 834.783 1317.25 839.237L1315.98 848.668C1315.98 857.964 1308.44 865.5 1299.15 865.5H145.673C134.542 865.5 125.519 856.477 125.519 845.346C125.519 844.289 125.436 843.234 125.271 842.19L124.781 839.101C123.364 830.166 119.94 821.667 114.766 814.246L112.682 811.257C108.256 804.908 102.882 799.275 96.7488 794.555L95.6598 793.717C88.6265 788.305 80.7736 784.051 72.398 781.116L62.5914 777.68C60.2281 776.852 57.742 776.429 55.2378 776.429C42.9562 776.429 33 766.473 33 754.191Z" stroke="white" stroke-width="4.5"/>
</svg>
