<svg width="144" height="136" viewBox="0 0 144 136" fill="none" xmlns="http://www.w3.org/2000/svg">
<g filter="url(#filter0_f_239_5)">
<path d="M74.876 39.9715L75 45.5L69.5 49L63.5 53.5C60.9301 51.1862 59.0043 48.2453 57.9107 44.9647L57.699 44.3297C56.9333 42.0325 56.543 39.627 56.543 37.2056V33.5254C56.543 31.3371 56.7591 29.1542 57.1883 27.0084C57.7675 24.1121 58.7303 21.306 60.0512 18.6642L64.1333 10.5L67.8363 16.4248C70.4119 20.5457 72.324 25.0457 73.5026 29.7602C74.3382 33.1025 74.7988 36.5273 74.876 39.9715Z" stroke="#B1B88C" stroke-width="6"/>
<path d="M34.4726 72.7408H41.7025C47.1035 72.7408 52.0694 69.7787 54.6357 65.0264L55.5561 63.322C55.8493 62.7791 56.0346 62.1847 56.1019 61.5714C56.3562 59.2545 54.9031 57.0918 52.662 56.4515L45.9157 54.5239L44.513 54.3235C38.4611 53.459 32.289 54.1309 26.565 56.2774C24.2904 57.1304 22.1068 58.2087 20.0469 59.4961L11 65.1504L17.8174 68.5592C21.349 70.3249 25.1248 71.5528 29.0195 72.2019L30.0636 72.3759C31.5207 72.6187 32.9954 72.7408 34.4726 72.7408Z" stroke="#B1B88C" stroke-width="6"/>
<path d="M29.2168 34.7891L33.2852 42.9258C34.6104 45.5762 36.4004 47.9672 38.5703 49.9852C42.423 53.5684 47.3169 55.8314 52.5424 56.4462L53 56.5L59.2752 56.8303C61.0857 56.9256 62.6564 55.5924 62.8566 53.7905C62.949 52.9591 62.7337 52.1226 62.2514 51.4392L58.0602 45.5L53.3535 40.3842C53.1188 40.1291 52.8529 39.9045 52.5621 39.7158C52.1819 39.4692 51.7637 39.2867 51.3242 39.1759L41.3614 36.6625L29.2168 34.7891Z" stroke="#B1B88C" stroke-width="6"/>
<path d="M60.968 57.0562L60.5693 57.5119C57.8923 60.5713 55.546 63.9075 53.5718 67.4612C50.5138 72.9655 48.3775 78.937 47.2511 85.1322L46.3492 90.0928C46.061 91.6779 45.916 93.2858 45.916 94.8969V97.406C45.916 102.067 47.5502 106.581 50.5343 110.162C52.4895 112.508 54.9579 114.373 57.7488 115.614L63.8042 118.305C66.0442 119.301 68.3566 120.124 70.7214 120.769L83.8678 124.355L97.3448 127.465C101.503 128.425 105.757 128.909 110.025 128.909H119.116C121.892 128.909 124.631 128.263 127.114 127.021C130.575 125.29 133.382 122.484 135.112 119.023C136.354 116.539 137 113.801 137 111.024V106.529C137 103.247 136.563 99.9793 135.699 96.8127L132.446 84.8849L131.082 81.4746C127.955 73.658 123.869 66.2603 118.918 59.4518L116.18 55.6883C114.882 53.9024 113.445 52.2211 111.884 50.6597L108.103 46.8796C105.158 43.9346 101.468 41.8453 97.4278 40.8352C93.517 39.8575 89.4177 39.9258 85.5415 41.0332L84.0223 41.4673C81.9022 42.0731 79.8584 42.9196 77.9309 43.9904L75.4009 45.396C69.954 48.4221 65.0711 52.3669 60.968 57.0562Z" stroke="#EA5460" stroke-width="6"/>
</g>
<path d="M74.876 38.4715L75 44L69.5 47.5L63.5 52C60.9301 49.6862 59.0043 46.7453 57.9107 43.4647L57.699 42.8297C56.9333 40.5325 56.543 38.127 56.543 35.7056V32.0254C56.543 29.8371 56.7591 27.6542 57.1883 25.5084C57.7675 22.6121 58.7303 19.806 60.0512 17.1642L64.1333 9L67.8363 14.9248C70.4119 19.0457 72.324 23.5457 73.5026 28.2602C74.3382 31.6025 74.7988 35.0273 74.876 38.4715Z" stroke="white"/>
<path d="M34.6203 71.2408H41.4823C47.0735 71.2408 52.2706 68.3611 55.2349 63.6204L59.9728 56.0435C59.9897 56.0165 60.0194 56 60.0514 56C60.1635 56 60.1793 55.8381 60.0693 55.8164L45.9157 53.0239L44.513 52.8235C38.4611 51.959 32.289 52.6309 26.565 54.7774C24.2904 55.6304 22.1068 56.7087 20.0469 57.9961L11 63.6504L17.8174 67.0592C21.349 68.8249 25.1248 70.0528 29.0195 70.7019L29.9179 70.8516C31.472 71.1106 33.0448 71.2408 34.6203 71.2408Z" stroke="white"/>
<path d="M29.2168 33.2891L33.2852 41.4258C34.6104 44.0762 36.4004 46.4672 38.5703 48.4852C42.423 52.0684 47.3169 54.3314 52.5424 54.9462L53 55L59.8669 55.3815C61.1477 55.4526 62.3363 54.7154 62.8416 53.5363C63.2518 52.5792 63.1457 51.4789 62.5601 50.6178L58.7034 44.9459C58.2752 44.3162 57.8013 43.7186 57.2857 43.1582L53.3535 38.8842C53.1188 38.6291 52.8529 38.4045 52.5621 38.2158C52.1819 37.9692 51.7637 37.7867 51.3242 37.6759L41.3614 35.1625L29.2168 33.2891Z" stroke="white"/>
<path d="M61.0519 55.7134L60.6532 56.1691C57.9763 59.2285 55.63 62.5648 53.6558 66.1184C50.5978 71.6228 48.4615 77.5942 47.3351 83.7895L46.4332 88.75C46.145 90.3351 46 91.943 46 93.5541V96.0632C46 100.724 47.6342 105.238 50.6182 108.819C52.5735 111.165 55.0419 113.031 57.8328 114.271L63.8882 116.962C66.1282 117.958 68.4406 118.782 70.8054 119.427L83.9518 123.012L97.4288 126.122C101.587 127.082 105.841 127.566 110.109 127.566H119.2C121.976 127.566 124.715 126.92 127.198 125.678C130.659 123.948 133.466 121.141 135.196 117.68C136.438 115.196 137.084 112.458 137.084 109.682V105.186C137.084 101.904 136.647 98.6365 135.783 95.47L132.53 83.5422L131.166 80.1318C128.039 72.3152 123.953 64.9176 119.002 58.109L116.264 54.3455C114.966 52.5597 113.529 50.8783 111.968 49.3169L108.187 45.5368C105.242 42.5918 101.552 40.5026 97.5118 39.4924C93.6009 38.5147 89.5017 38.583 85.6255 39.6905L84.1063 40.1245C81.9862 40.7303 79.9424 41.5768 78.0149 42.6477L75.4849 44.0533C70.038 47.0793 65.1551 51.0241 61.0519 55.7134Z" stroke="white"/>
<defs>
<filter id="filter0_f_239_5" x="0.873047" y="0.374023" width="143.127" height="135.535" filterUnits="userSpaceOnUse" color-interpolation-filters="sRGB">
<feFlood flood-opacity="0" result="BackgroundImageFix"/>
<feBlend mode="normal" in="SourceGraphic" in2="BackgroundImageFix" result="shape"/>
<feGaussianBlur stdDeviation="2" result="effect1_foregroundBlur_239_5"/>
</filter>
</defs>
</svg>
