<svg width="986" height="747" viewBox="0 0 986 747" fill="none" xmlns="http://www.w3.org/2000/svg">
<path d="M697.824 722.349L639.607 733L681.685 710.683L747.972 670.105L771.662 654.41C788.461 643.279 803.743 630.015 817.126 614.948C829.77 600.714 840.619 584.982 849.431 568.105L865.56 537.215L875.229 510.599C883.704 487.269 888.04 462.637 888.04 437.815C888.04 423.639 886.626 409.498 883.818 395.603L878.817 370.848C870.017 331.455 856.098 293.383 837.416 257.603L836.163 255.203L817.59 228.526C803.87 208.818 788.381 190.403 771.316 173.509L768.703 170.923C756.819 159.159 744.095 148.276 730.631 138.36C708.836 122.308 685.225 108.88 660.286 98.3558L641.336 90.3586L572.743 71.5916L536.01 66.5331C516.102 63.7916 496.016 62.5542 475.923 62.8316C444.891 63.2599 414.014 67.2983 383.916 74.8655L360.624 80.7215L329.437 91.0938C301.488 100.389 274.479 112.303 248.771 126.678L232.084 136.008L219.146 145.299C194.399 163.071 171.447 183.217 150.618 205.452L146.776 209.554L136.397 223.624C115.021 252.601 98.4761 284.848 87.4052 319.113L85.2048 328.794C77.4734 362.81 73.5713 397.584 73.5713 432.468V433.236L74.3694 439.718C78.8057 475.753 88.8439 510.873 104.121 543.809L106.668 548.689C122.217 578.487 140.932 606.522 162.49 632.309L166.95 637.644C192.175 666.231 221.461 690.96 253.87 711.039L261.481 715.755L299.524 733H289.145C261.905 733 235.09 726.247 211.1 713.346C200.909 707.866 191.323 701.328 182.502 693.839L146.776 663.512L121.493 639.461C109.927 628.458 99.1836 616.622 89.3483 604.048L86.4168 600.301C77.8663 589.37 70.1845 577.786 63.4419 565.656C52.9417 546.766 44.7832 526.666 39.1471 505.802L30.9169 475.335C26.3258 442.341 26.114 408.886 30.287 375.837L30.9169 370.848C37.0356 331.477 48.5971 293.147 65.2695 256.958L66.078 255.203L82.5142 226.535C93.0468 208.165 105.484 190.953 119.619 175.186C132.697 160.599 147.164 147.32 162.815 135.537L191.159 114.198L204.025 105.782C238.701 83.0994 276.373 65.3685 315.952 53.1023C337.249 46.5018 359.012 41.5104 381.057 38.1703L400.142 35.2786C423.335 31.7645 446.76 30 470.217 30H506.106L572.743 36.5938L635.572 49.7814L658.69 57.8807C684.691 66.9903 709.542 79.0994 732.739 93.9629C749.016 104.392 764.412 116.135 778.774 129.074L805.613 153.253L824.42 173.112C840.666 190.267 855.245 208.927 867.961 228.84C877.875 244.365 886.625 260.604 894.14 277.423L896.222 282.084C904.974 301.671 912.287 321.871 918.104 342.521L926.083 370.848L927.262 378.629C931.07 403.762 931.496 429.291 928.528 454.537C926.9 468.384 924.258 482.092 920.622 495.551L919.638 499.193C912.814 524.455 903.063 548.833 890.584 571.832L878.817 593.516L870.659 605.526C856.188 626.832 838.772 646.014 818.964 662.476C804.349 674.622 788.496 685.229 771.691 694.102C757.825 701.423 743.357 707.541 728.446 712.39L697.824 722.349Z" stroke="white" stroke-width="4.05879"/>
<g filter="url(#filter0_f_112_1471)">
<path d="M73.1074 419.012L75.0907 420.564C76.5264 421.688 77.8527 422.945 79.0522 424.319L80.0754 425.49C81.2527 426.838 82.2268 428.351 82.9668 429.98V429.98C84.051 432.367 84.6119 434.977 84.6119 437.598V437.598C84.6119 439.243 84.3928 440.891 83.9605 442.477L83.0707 445.743C82.2612 448.713 81.05 451.559 79.4706 454.202V454.202C77.9956 456.671 76.2118 458.941 74.1626 460.958L69.426 465.621L61.1428 473.321L51.479 481.427L40.895 490.344L32.6118 498.449L28.1627 503.239C25.6169 505.979 23.4283 509.031 21.6493 512.321V512.321C20.3703 514.687 19.3093 517.164 18.4795 519.722L16.9657 524.388L16.328 527.618C15.5333 531.642 15.5169 535.781 16.2796 539.811L16.4021 540.459C16.7766 542.438 17.3765 544.367 18.19 546.21V546.21C19.5098 549.199 21.3734 551.917 23.686 554.225L25.1015 555.638C26.425 556.959 27.8466 558.178 29.3542 559.284L33.1697 562.085C34.6361 563.161 36.1856 564.119 37.8036 564.951V564.951C39.8593 566.007 42.0161 566.853 44.2415 567.477L51.0189 569.376L66.2047 571.402" stroke="#FF6F00" stroke-width="4.05879"/>
</g>
<g filter="url(#filter1_f_112_1471)">
<path d="M73.1074 419.012L75.0907 420.564C76.5264 421.688 77.8527 422.945 79.0522 424.319L80.0754 425.49C81.2527 426.838 82.2268 428.351 82.9668 429.98V429.98C84.051 432.367 84.6119 434.977 84.6119 437.598V437.598C84.6119 439.243 84.3928 440.891 83.9605 442.477L83.0707 445.743C82.2612 448.713 81.05 451.559 79.4706 454.202V454.202C77.9956 456.671 76.2118 458.941 74.1626 460.958L69.426 465.621L61.1428 473.321L51.479 481.427L40.895 490.344L32.6118 498.449L28.1627 503.239C25.6169 505.979 23.4283 509.031 21.6493 512.321V512.321C20.3703 514.687 19.3093 517.164 18.4795 519.722L16.9657 524.388L16.328 527.618C15.5333 531.642 15.5169 535.781 16.2796 539.811L16.4021 540.459C16.7766 542.438 17.3765 544.367 18.19 546.21V546.21C19.5098 549.199 21.3734 551.917 23.686 554.225L25.1015 555.638C26.425 556.959 27.8466 558.178 29.3542 559.284L33.1697 562.085C34.6361 563.161 36.1856 564.119 37.8036 564.951V564.951C39.8593 566.007 42.0161 566.853 44.2415 567.477L51.0189 569.376L66.2047 571.402" stroke="white" stroke-width="1.21588"/>
</g>
<g filter="url(#filter2_f_112_1471)">
<path d="M556.11 33.8487L565.201 28.4899C567.646 27.0486 570.217 25.7791 572.891 24.6929L575.227 23.744C577.417 22.8545 579.713 22.1798 582.074 21.7319V21.7319C583.869 21.3915 585.695 21.1834 587.532 21.1098L592.42 20.914C594.499 20.8307 596.583 20.8879 598.655 21.0851L600.353 21.2467C604.032 21.5967 607.618 22.5188 610.946 23.9699V23.9699C612.897 24.8203 614.744 25.8462 616.458 27.031L617.201 27.5446C620.832 30.0547 623.956 33.0888 626.439 36.5158L628.467 39.3135L630.997 43.7902C632.294 46.0845 633.371 48.4684 634.218 50.9169V50.9169C635.445 54.4627 636.181 58.1218 636.409 61.8139L636.777 67.7588L636.869 78.6638L635.882 91.5341L634.954 103.259L634.735 113.865L634.805 119.899C634.839 122.754 635.271 125.598 636.093 128.367V128.367C636.931 131.189 638.166 133.911 639.77 136.468L641.721 139.578C642.62 141.013 643.71 142.35 644.965 143.56L645.113 143.703C647.047 145.567 649.366 147.089 651.943 148.186V148.186C653.795 148.974 655.76 149.534 657.78 149.848L659.161 150.063C661.161 150.374 663.187 150.519 665.213 150.495L667.708 150.465V150.465C673.165 150.509 678.613 150.189 684.005 149.508L685.063 149.374L691.433 147.986L692.187 147.824C696.148 146.969 699.834 145.348 702.98 143.077V143.077L706.583 140.81C707.893 139.985 709.106 139.046 710.202 138.007V138.007C712.527 135.801 714.29 133.18 715.374 130.317L715.721 129.4" stroke="#FF6F00" stroke-width="4.05879"/>
</g>
<g filter="url(#filter3_f_112_1471)">
<path d="M556.109 33.849L565.2 28.4902C567.645 27.0489 570.216 25.7794 572.89 24.6932L575.226 23.7442C577.416 22.8548 579.712 22.1801 582.073 21.7322V21.7322C583.868 21.3918 585.693 21.1837 587.531 21.1101L592.419 20.9143C594.498 20.831 596.582 20.8882 598.654 21.0854L600.352 21.247C604.031 21.597 607.617 22.5191 610.945 23.9701V23.9701C612.896 24.8206 614.743 25.8465 616.457 27.0313L617.2 27.5449C620.831 30.055 623.955 33.0891 626.438 36.5161L628.465 39.3138L630.996 43.7905C632.293 46.0847 633.37 48.4687 634.217 50.9171V50.9171C635.444 54.4629 636.18 58.122 636.408 61.8142L636.776 67.7591L636.868 78.6641L635.881 91.5344L634.953 103.259L634.734 113.865L634.804 119.899C634.838 122.754 635.27 125.598 636.092 128.367V128.367C636.93 131.189 638.165 133.911 639.769 136.469L641.72 139.578C642.619 141.013 643.709 142.35 644.964 143.561L645.112 143.703C647.046 145.568 649.364 147.09 651.942 148.186V148.186C653.794 148.975 655.758 149.534 657.779 149.848L659.16 150.063C661.159 150.375 663.186 150.519 665.212 150.495L667.707 150.465L675.968 150.512C678.311 150.525 680.649 150.384 682.964 150.092L683.355 150.043C686.868 149.599 690.302 148.781 693.583 147.608V147.608C695.596 146.887 697.545 146.036 699.412 145.06L702.256 143.573C704.587 142.354 706.729 140.879 708.633 139.182V139.182C710.693 137.345 712.455 135.266 713.87 133.001L716.118 129.401" stroke="white" stroke-width="1.21588"/>
</g>
<g filter="url(#filter4_f_112_1471)">
<path d="M349.678 42.9783L354.391 34.3939C355.704 32.0025 357.224 29.7127 358.933 27.5499L360.283 25.8418C361.712 24.034 363.348 22.3816 365.158 20.9187V20.9187C366.479 19.8502 367.887 18.8875 369.367 18.0413L373.415 15.726C375.26 14.6706 377.178 13.7475 379.152 12.9648L380.337 12.4953C383.887 11.0879 387.623 10.2491 391.39 10.0137V10.0137C393.502 9.88172 395.611 9.94028 397.688 10.1886L398.788 10.3201C403.343 10.8646 407.743 12.0788 411.838 13.9209L415.227 15.4457L420.101 18.2478C422.459 19.6036 424.694 21.1374 426.787 22.8359V22.8359C429.929 25.3848 432.732 28.2904 435.142 31.4951L438.738 36.2769L445.082 45.6421L451.625 57.1828L457.561 67.7096L463.466 76.9551L466.87 81.9482C468.621 84.516 470.694 86.8583 473.047 88.9264V88.9264C475.34 90.943 477.884 92.6854 480.627 94.1194L484.257 96.0166C485.863 96.856 487.568 97.5232 489.343 98.0068L489.699 98.1039C492.351 98.8265 495.14 99.0942 497.944 98.8952V98.8952C500.05 98.7456 502.144 98.334 504.171 97.6707L505.52 97.2294C507.298 96.6479 509.025 95.9118 510.679 95.0305V95.0305C512.179 94.2309 513.614 93.3149 514.968 92.2922L517.089 90.69C519.441 88.9133 521.646 86.9602 523.682 84.8511V84.8511C526.15 82.2948 528.357 79.521 530.27 76.5719L532.17 73.6427L534.957 67.7096" stroke="#FF6F00" stroke-width="4.05879"/>
</g>
<g filter="url(#filter5_f_112_1471)">
<path d="M349.678 42.9778L354.392 34.3935C355.705 32.0021 357.224 29.7122 358.934 27.5494L360.284 25.8414C361.713 24.0335 363.349 22.3811 365.158 20.9182V20.9182C366.48 19.8497 367.888 18.887 369.367 18.0408L373.415 15.7255C375.26 14.6701 377.178 13.747 379.153 12.9643L380.337 12.4949C383.888 11.0875 387.624 10.2486 391.391 10.0132V10.0132C393.503 9.88125 395.611 9.9398 397.688 10.1881L398.788 10.3196C403.343 10.8641 407.744 12.0783 411.838 13.9204L415.228 15.4452L420.101 18.2473C422.459 19.6031 424.695 21.137 426.788 22.8354V22.8354C429.929 25.3844 432.732 28.2899 435.142 31.4946L438.739 36.2764L445.083 45.6416L451.626 57.1824L457.562 67.7092L463.466 76.9546L466.871 81.9478C468.622 84.5155 470.695 86.8578 473.047 88.926V88.926C475.341 90.9425 477.884 92.685 480.628 94.1189L484.258 96.0161C485.864 96.8555 487.568 97.5227 489.343 98.0064L489.7 98.1034C492.351 98.826 495.141 99.0937 497.944 98.8947V98.8947C500.051 98.7451 502.144 98.3335 504.172 97.6702L505.247 97.3186C507.207 96.6775 509.111 95.8658 510.934 94.8941L512.934 93.8285L518.235 90.124L518.354 90.0243C521.714 87.2261 524.746 84.0823 527.392 80.6558V80.6558V80.6558C530.3 76.6984 532.679 72.4232 534.467 67.9388L534.559 67.7091" stroke="white" stroke-width="1.21588"/>
</g>
<g filter="url(#filter6_f_112_1471)">
<path d="M122.3 576L129.2 579.246V579.246C132.568 580.866 135.807 582.772 138.86 584.927V584.927L140.854 586.49C142.279 587.607 143.553 588.904 144.644 590.348L145.405 591.355C146.25 592.472 146.91 593.717 147.361 595.043V595.043C147.824 596.405 148.06 597.833 148.06 599.27V603.185V603.185C148.06 607.478 147.277 611.748 145.76 615.764V615.764V615.764C143.617 621.163 141.003 626.363 137.948 631.304L137.02 632.805L133.34 638.891L128.74 646.601L124.14 655.121L121.965 659.918C120.97 662.113 120.373 664.467 120.202 666.871V666.871C120.068 668.767 120.2 670.672 120.596 672.53L120.752 673.267C121.169 675.229 121.823 677.132 122.699 678.936V678.936C123.656 680.904 124.869 682.736 126.307 684.385L128.74 687.176L131.068 689.435C132.579 690.901 134.233 692.212 136.004 693.348V693.348C137.598 694.371 139.281 695.248 141.032 695.968L145.3 697.725L153.12 700.16L159.1 701.783L161.017 702.121C164.333 702.706 167.693 703 171.06 703V703H176.58V703C180.559 702.46 184.486 701.582 188.316 700.375L189 700.16" stroke="#FF6200" stroke-width="4.05879"/>
</g>
<g filter="url(#filter7_f_112_1471)">
<path d="M122.3 576L129.2 579.246V579.246C132.568 580.866 135.807 582.772 138.86 584.927V584.927L140.854 586.49C142.279 587.607 143.553 588.904 144.644 590.348L145.405 591.355C146.25 592.472 146.91 593.717 147.361 595.043V595.043C147.824 596.405 148.06 597.833 148.06 599.27V603.185V603.185C148.06 607.478 147.277 611.748 145.76 615.764V615.764V615.764C143.617 621.163 141.003 626.363 137.948 631.304L137.02 632.805L133.34 638.891L128.74 646.601L124.14 655.121L121.965 659.918C120.97 662.113 120.373 664.467 120.202 666.871V666.871C120.068 668.767 120.2 670.672 120.596 672.53L120.752 673.267C121.169 675.229 121.823 677.132 122.699 678.936V678.936C123.656 680.904 124.869 682.736 126.307 684.385L128.74 687.176L131.068 689.435C132.579 690.901 134.233 692.212 136.004 693.348V693.348C137.598 694.371 139.281 695.248 141.032 695.968L145.3 697.725L153.12 700.16L159.1 701.783L161.017 702.121C164.333 702.706 167.693 703 171.06 703V703H176.58V703C180.559 702.46 184.486 701.582 188.316 700.375L189 700.16" stroke="white" stroke-width="1.21588"/>
</g>
<g filter="url(#filter8_f_112_1471)">
<path d="M208 677.842L212.353 676.769C217.02 675.618 221.93 675.952 226.399 677.722V677.722C227.963 678.342 229.454 679.13 230.846 680.073L232.594 681.257C234.027 682.228 235.382 683.308 236.647 684.488L238.128 685.868C241.057 688.599 243.291 691.991 244.643 695.761V695.761C245.115 697.078 245.476 698.431 245.723 699.808L246.736 705.455L249.041 713.17L250.488 719.03C251.06 721.345 251.843 723.601 252.829 725.771L254.43 729.296C255.44 731.518 256.869 733.524 258.64 735.203V735.203C260.818 737.268 263.455 738.786 266.335 739.632L269.755 740.635C272.839 741.54 276.036 742 279.249 742H282.244L282.427 741.977C288.438 741.221 293.79 737.799 297 732.661V732.661" stroke="#FF6F00" stroke-width="4.05879"/>
</g>
<g filter="url(#filter9_f_112_1471)">
<path d="M208 677.842L212.353 676.769C217.02 675.618 221.93 675.952 226.399 677.722V677.722C227.963 678.342 229.454 679.13 230.846 680.073L232.594 681.257C234.027 682.228 235.382 683.308 236.647 684.488L238.128 685.868C241.057 688.599 243.291 691.991 244.643 695.761V695.761C245.115 697.078 245.476 698.431 245.723 699.808L246.736 705.455L249.041 713.17L250.488 719.03C251.06 721.345 251.843 723.601 252.829 725.771L254.43 729.296C255.44 731.518 256.869 733.524 258.64 735.203V735.203C260.818 737.268 263.455 738.786 266.335 739.632L269.755 740.635C272.839 741.54 276.036 742 279.249 742H282.244L282.427 741.977C288.438 741.221 293.79 737.799 297 732.661V732.661" stroke="white" stroke-width="1.21588"/>
</g>
<g filter="url(#filter10_f_112_1471)">
<path d="M642 733.519L650.686 737.154L658.457 739.981L661.545 740.699C665.265 741.563 669.071 742 672.89 742V742C676.061 742 679.225 741.699 682.339 741.101L684.238 740.736C686.852 740.234 689.401 739.438 691.836 738.362L691.969 738.303C693.701 737.538 695.365 736.628 696.943 735.582L698.531 734.531C699.545 733.858 700.482 733.076 701.324 732.197V732.197C703.767 729.646 705.324 726.377 705.764 722.873L706 721" stroke="#FF6F00" stroke-width="4.05879"/>
</g>
<g filter="url(#filter11_f_112_1471)">
<path d="M642 733.519L650.686 737.154L658.457 739.981L661.545 740.699C665.265 741.563 669.071 742 672.89 742V742C676.061 742 679.225 741.699 682.339 741.101L684.238 740.736C686.852 740.234 689.401 739.438 691.836 738.362L691.969 738.303C693.701 737.538 695.365 736.628 696.943 735.582L698.531 734.531C699.545 733.858 700.482 733.076 701.324 732.197V732.197C703.767 729.646 705.324 726.377 705.764 722.873L706 721" stroke="white" stroke-width="1.21588"/>
</g>
<g filter="url(#filter12_f_112_1471)">
<path d="M706 695V688.919V683.243L706.449 679.492C706.764 676.868 707.397 674.291 708.334 671.819L708.553 671.241C709.003 670.055 709.544 668.906 710.171 667.803V667.803C711.381 665.676 712.903 663.742 714.685 662.064L714.849 661.909C717.232 659.665 720.015 657.89 723.054 656.676L723.529 656.486L725.39 655.857C728.143 654.927 730.963 654.207 733.826 653.704V653.704C737.103 653.128 740.425 652.838 743.753 652.838H746.594V652.838C751.77 652.838 756.896 653.862 761.675 655.852L763.2 656.486L771.042 660.541L777.961 664.595L785.803 669.459L794.106 674.324L802.871 681.216L807.569 684.52C809.046 685.558 810.623 686.447 812.276 687.173L814.227 688.031C817.363 689.409 820.81 689.93 824.213 689.539V689.539C827.753 689.134 831.112 687.758 833.919 685.565L834.372 685.211C836.718 683.379 838.655 681.077 840.06 678.453L841.619 675.541V675.541C843.765 671.5 845.446 667.228 846.629 662.808L846.694 662.568L848.077 656.486L849 649.189V643.108L848.077 635" stroke="#FF6F00" stroke-width="4.05879"/>
</g>
<g filter="url(#filter13_f_112_1471)">
<path d="M706 695V688.919V683.243L706.449 679.492C706.764 676.868 707.397 674.291 708.334 671.819L708.553 671.241C709.003 670.055 709.544 668.906 710.171 667.803V667.803C711.381 665.676 712.903 663.742 714.685 662.064L714.849 661.909C717.232 659.665 720.015 657.89 723.054 656.676L723.529 656.486L725.39 655.857C728.143 654.927 730.963 654.207 733.826 653.704V653.704C737.103 653.128 740.425 652.838 743.753 652.838H746.594V652.838C751.77 652.838 756.896 653.862 761.675 655.852L763.2 656.486L771.042 660.541L777.961 664.595L785.803 669.459L794.106 674.324L802.871 681.216L807.569 684.52C809.046 685.558 810.623 686.447 812.276 687.173L814.227 688.031C817.363 689.409 820.81 689.93 824.213 689.539V689.539C827.753 689.134 831.112 687.758 833.919 685.565L834.372 685.211C836.718 683.379 838.655 681.077 840.06 678.453L841.619 675.541V675.541C843.765 671.5 845.446 667.228 846.629 662.808L846.694 662.568L848.077 656.486L849 649.189V643.108L848.077 635" stroke="white" stroke-width="1.21588"/>
</g>
<g filter="url(#filter14_f_112_1471)">
<path d="M838.549 585L836.237 574.471L834.186 565.746C833.398 562.395 833 558.964 833 555.522V553.184C833 550.116 833.476 547.066 834.41 544.143L834.938 542.493C835.795 539.811 837.181 537.328 839.012 535.189V535.189C840.843 533.052 843.083 531.302 845.6 530.042L851.498 527.091L861.672 523.041L871.846 520.207L872.532 520.05C879.157 518.536 885.882 517.506 892.656 516.967V516.967L906.067 515.752L916.704 514.537L923.317 513.71C925.374 513.452 927.392 512.942 929.325 512.19V512.19C932.888 510.803 936.088 508.624 938.683 505.816L939.749 504.663C941.642 502.615 943.259 500.329 944.559 497.863L944.993 497.041C947.082 493.076 948.474 488.782 949.107 484.345L949.165 483.943C949.719 480.061 949.719 476.121 949.165 472.239L948.715 469.091C948.339 466.455 947.771 463.851 947.015 461.298L946.164 458.425C945.334 455.62 944.129 452.94 942.582 450.457V450.457C940.455 447.041 937.713 444.05 934.495 441.635L929.652 438" stroke="#FF6F00" stroke-width="4.05879"/>
</g>
<g filter="url(#filter15_f_112_1471)">
<path d="M838.549 585L836.237 574.471L834.186 565.746C833.398 562.395 833 558.964 833 555.522V553.184C833 550.116 833.476 547.066 834.41 544.143L834.938 542.493C835.795 539.811 837.181 537.328 839.012 535.189V535.189C840.843 533.052 843.083 531.302 845.6 530.042L851.498 527.091L861.672 523.041L871.846 520.207L872.532 520.05C879.157 518.536 885.882 517.506 892.656 516.967V516.967L906.067 515.752L916.704 514.537L923.317 513.71C925.374 513.452 927.392 512.942 929.325 512.19V512.19C932.888 510.803 936.088 508.624 938.683 505.816L939.749 504.663C941.642 502.615 943.259 500.329 944.559 497.863L944.993 497.041C947.082 493.076 948.474 488.782 949.107 484.345L949.165 483.943C949.719 480.061 949.719 476.121 949.165 472.239L948.715 469.091C948.339 466.455 947.771 463.851 947.015 461.298L946.164 458.425C945.334 455.62 944.129 452.94 942.582 450.457V450.457C940.455 447.041 937.713 444.05 934.495 441.635L929.652 438" stroke="white" stroke-width="1.21588"/>
</g>
<g filter="url(#filter16_f_112_1471)">
<g filter="url(#filter17_f_112_1471)">
<path d="M806.901 213.222L797.215 212.339C795.977 212.226 794.746 212.007 793.536 211.684L792.051 211.288C785.934 209.655 780.949 205.115 778.867 199.28V199.28C778.184 197.366 777.835 195.372 777.835 193.381L777.835 183.063L779.878 168.335L780.622 160.971L782.216 146.593L784.171 135.089C785.607 126.641 786.328 118.057 786.328 109.421V109.421L786.328 104.322C786.328 100.137 783.807 96.2059 779.878 94.2645V94.2645L777.872 93.4641C775.791 92.6336 773.615 92.0863 771.408 91.8386V91.8386C768.724 91.5372 766.032 91.683 763.448 92.2695L761.266 92.7646L755.072 94.886L754.236 95.3056C750.472 97.1944 747.018 99.586 743.969 102.415V102.415" stroke="#FF6F00" stroke-width="4.06083"/>
</g>
</g>
<g filter="url(#filter18_f_112_1471)">
<path d="M807.698 213.212L798.012 212.329C796.774 212.216 795.543 211.997 794.333 211.674L792.848 211.278C786.731 209.645 781.746 205.106 779.664 199.27V199.27C778.981 197.357 778.632 195.362 778.632 193.371L778.632 183.054L780.675 168.325L781.419 160.961L783.012 146.583L784.968 135.08C786.403 126.632 787.125 118.047 787.125 109.412V109.412L787.125 104.312C787.125 100.127 784.604 96.1961 780.675 94.2547V94.2547L778.669 93.4543C776.588 92.6238 774.412 92.0766 772.205 91.8288V91.8288C769.521 91.5275 766.829 91.6732 764.245 92.2597L762.063 92.7548L755.869 94.8762L755.032 95.2958C751.268 97.1847 747.815 99.5763 744.766 102.405V102.405" stroke="white" stroke-width="1.21588"/>
</g>
<g filter="url(#filter19_f_112_1471)">
<path d="M132.009 230.954L132.768 234.796C133.487 238.44 133.85 242.147 133.85 245.862V247.649C133.85 249.755 133.668 251.856 133.305 253.931V253.931C132.45 258.826 130.605 263.495 127.881 267.652L127.232 268.645C125.818 270.803 124.209 272.827 122.426 274.692L117.744 279.589V279.589C111.34 285.767 104.047 290.96 96.1152 294.991V294.991L79.0886 301.475L62.9824 307.149L48.7169 311.608L39.2284 314.573C36.0478 315.567 32.9419 316.786 29.9342 318.221L28.1071 319.093C24.982 320.583 22.0183 322.391 19.2624 324.487L16.6855 326.447C14.4297 328.163 12.4396 330.203 10.7797 332.5V332.5C8.1886 336.086 6.45894 340.221 5.72505 344.584L5.48472 346.013C5.16214 347.931 5 349.872 5 351.817V352.232C5 357.257 5.94776 362.238 7.79359 366.911L8.68142 369.159L13.2832 379.697L13.9709 380.955C17.4737 387.362 22.0687 393.109 27.5487 397.935V397.935" stroke="#FF6200" stroke-width="4.05879"/>
</g>
<g filter="url(#filter20_f_112_1471)">
<path d="M132.009 230.954L132.768 234.796C133.487 238.44 133.85 242.147 133.85 245.862V247.649C133.85 249.755 133.668 251.856 133.305 253.931V253.931C132.45 258.826 130.605 263.495 127.881 267.652L127.232 268.645C125.818 270.803 124.209 272.827 122.426 274.692L117.744 279.589V279.589C111.34 285.767 104.047 290.96 96.1152 294.991V294.991L79.0886 301.475L62.9824 307.149L48.7169 311.608L39.2284 314.573C36.0478 315.567 32.9419 316.786 29.9342 318.221L28.1071 319.093C24.982 320.583 22.0183 322.391 19.2624 324.487L16.6855 326.447C14.4297 328.163 12.4396 330.203 10.7797 332.5V332.5C8.1886 336.086 6.45894 340.221 5.72505 344.584L5.48472 346.013C5.16214 347.931 5 349.872 5 351.817V352.232C5 357.257 5.94776 362.238 7.79359 366.911L8.68142 369.159L13.2832 379.697L13.9709 380.955C17.4737 387.362 22.0687 393.109 27.5487 397.935V397.935" stroke="white" stroke-width="1.21588"/>
</g>
<g filter="url(#filter21_f_112_1471)">
<path d="M883.746 407.488L875.692 401.912C871.521 399.024 867.876 395.564 864.901 391.669L864.69 391.393C863.376 389.672 862.213 387.866 861.212 385.992V385.992C858.803 381.479 857.366 376.631 856.981 371.712L856.914 370.86C856.714 368.307 856.769 365.754 857.079 363.23L857.842 357.014L857.89 356.731C859.257 348.643 862 340.845 866.027 333.603V333.603L876.044 319.852L885.812 307.226L894.822 296.514L900.75 289.467C902.803 287.027 904.64 284.444 906.248 281.739L907.084 280.331C908.795 277.452 910.152 274.405 911.132 271.24L911.928 268.668C912.757 265.993 913.136 263.207 913.055 260.397V260.397C912.934 256.228 911.802 252.093 909.736 248.28L908.866 246.673C907.933 244.95 906.856 243.288 905.644 241.702L905.355 241.323C902.162 237.143 898.201 233.466 893.651 230.458L891.566 229.08L881.07 222.599L879.432 221.754C872.641 218.251 865.282 215.791 857.674 214.48V214.48" stroke="#FF6200" stroke-width="4.05879"/>
</g>
<g filter="url(#filter22_f_112_1471)">
<path d="M883.747 407.488L875.692 401.911C871.521 399.024 867.876 395.564 864.901 391.669L864.69 391.393C863.375 389.672 862.212 387.866 861.212 385.992V385.992C858.802 381.479 857.366 376.631 856.98 371.711L856.914 370.859C856.714 368.307 856.769 365.753 857.079 363.23L857.842 357.014L857.889 356.73C859.256 348.643 862 340.844 866.026 333.602V333.602L876.044 319.852L885.811 307.226L894.822 296.514L900.75 289.467C902.803 287.027 904.64 284.443 906.248 281.739L907.084 280.331C908.795 277.452 910.152 274.405 911.132 271.24L911.928 268.668C912.756 265.993 913.136 263.206 913.055 260.397V260.397C912.934 256.228 911.802 252.093 909.736 248.28L908.866 246.673C907.932 244.95 906.855 243.288 905.644 241.702L905.355 241.323C902.162 237.143 898.201 233.466 893.65 230.458L891.566 229.08L881.069 222.599L879.432 221.754C872.641 218.251 865.282 215.79 857.674 214.479V214.479" stroke="white" stroke-width="1.21588"/>
</g>
<g filter="url(#filter23_f_112_1471)">
<path d="M345.828 87.1871L345.405 91.6655C344.892 97.0824 343.763 102.432 342.035 107.634V107.634C340.585 111.996 338.719 116.238 336.457 120.313L334.518 123.807C332.247 127.898 329.379 131.704 325.986 135.129L324.278 136.853C318.065 143.126 309.958 147.71 300.875 150.086V150.086C296.638 151.194 292.246 151.806 287.812 151.907L283.065 152.014L282.485 152.007C273.373 151.891 264.315 150.535 255.631 147.984V147.984L238.824 141.069L223.317 134.222L210.063 127.782L201.429 123.586C198.354 122.091 195.155 120.811 191.861 119.756L190.383 119.283C186.809 118.138 183.11 117.338 179.352 116.895L176.649 116.577C173.398 116.195 170.109 116.232 166.884 116.687V116.687C162.277 117.337 157.889 118.828 153.998 121.066L152.078 122.171C150.283 123.203 148.577 124.35 146.973 125.603L146.56 125.925C142.274 129.274 138.656 133.234 135.852 137.644L134.612 139.595L128.715 149.619L127.651 151.858C124.823 157.807 122.923 164.078 122.002 170.5V170.5" stroke="#FF6200" stroke-width="4.06083"/>
</g>
<g filter="url(#filter24_f_112_1471)">
<path d="M345.031 86.6168L344.608 91.0952C344.096 96.5121 342.967 101.862 341.238 107.063V107.063C339.788 111.426 337.922 115.667 335.66 119.743L333.721 123.237C331.45 127.328 328.582 131.134 325.19 134.559L323.482 136.283C317.269 142.556 309.161 147.14 300.078 149.515V149.515C295.841 150.624 291.45 151.236 287.015 151.336L282.268 151.444L281.688 151.436C272.576 151.321 263.518 149.964 254.834 147.414V147.414L238.027 140.499L222.52 133.652L209.267 127.211L200.632 123.015C197.558 121.521 194.358 120.241 191.064 119.186L189.586 118.712C186.012 117.568 182.313 116.767 178.555 116.325L175.853 116.007C172.601 115.624 169.312 115.661 166.087 116.116V116.116C161.48 116.766 157.092 118.258 153.201 120.496L151.281 121.6C149.486 122.633 147.78 123.78 146.177 125.032L145.764 125.355C141.477 128.704 137.859 132.663 135.055 137.074L133.815 139.024L127.918 149.049L126.87 151.254C124.034 157.22 122.225 163.537 121.5 170V170" stroke="white" stroke-width="1.21588"/>
</g>
<defs>
<filter id="filter0_f_112_1471" x="11.2596" y="414.982" width="77.8127" height="160.864" filterUnits="userSpaceOnUse" color-interpolation-filters="sRGB">
<feFlood flood-opacity="0" result="BackgroundImageFix"/>
<feBlend mode="normal" in="SourceGraphic" in2="BackgroundImageFix" result="shape"/>
<feGaussianBlur stdDeviation="1.21588" result="effect1_foregroundBlur_112_1471"/>
</filter>
<filter id="filter1_f_112_1471" x="14.3027" y="417.723" width="71.7266" height="155.093" filterUnits="userSpaceOnUse" color-interpolation-filters="sRGB">
<feFlood flood-opacity="0" result="BackgroundImageFix"/>
<feBlend mode="normal" in="SourceGraphic" in2="BackgroundImageFix" result="shape"/>
<feGaussianBlur stdDeviation="0.405294" result="effect1_foregroundBlur_112_1471"/>
</filter>
<filter id="filter2_f_112_1471" x="552.467" y="16.5472" width="167.731" height="138.28" filterUnits="userSpaceOnUse" color-interpolation-filters="sRGB">
<feFlood flood-opacity="0" result="BackgroundImageFix"/>
<feBlend mode="normal" in="SourceGraphic" in2="BackgroundImageFix" result="shape"/>
<feGaussianBlur stdDeviation="1.21588" result="effect1_foregroundBlur_112_1471"/>
</filter>
<filter id="filter3_f_112_1471" x="554.936" y="19.498" width="162.559" height="132.394" filterUnits="userSpaceOnUse" color-interpolation-filters="sRGB">
<feFlood flood-opacity="0" result="BackgroundImageFix"/>
<feBlend mode="normal" in="SourceGraphic" in2="BackgroundImageFix" result="shape"/>
<feGaussianBlur stdDeviation="0.405294" result="effect1_foregroundBlur_112_1471"/>
</filter>
<filter id="filter4_f_112_1471" x="345.428" y="5.52575" width="193.84" height="97.8528" filterUnits="userSpaceOnUse" color-interpolation-filters="sRGB">
<feFlood flood-opacity="0" result="BackgroundImageFix"/>
<feBlend mode="normal" in="SourceGraphic" in2="BackgroundImageFix" result="shape"/>
<feGaussianBlur stdDeviation="1.21588" result="effect1_foregroundBlur_112_1471"/>
</filter>
<filter id="filter5_f_112_1471" x="348.322" y="8.53853" width="187.625" height="91.8258" filterUnits="userSpaceOnUse" color-interpolation-filters="sRGB">
<feFlood flood-opacity="0" result="BackgroundImageFix"/>
<feBlend mode="normal" in="SourceGraphic" in2="BackgroundImageFix" result="shape"/>
<feGaussianBlur stdDeviation="0.405294" result="effect1_foregroundBlur_112_1471"/>
</filter>
<filter id="filter6_f_112_1471" x="115.689" y="571.732" width="76.3518" height="135.729" filterUnits="userSpaceOnUse" color-interpolation-filters="sRGB">
<feFlood flood-opacity="0" result="BackgroundImageFix"/>
<feBlend mode="normal" in="SourceGraphic" in2="BackgroundImageFix" result="shape"/>
<feGaussianBlur stdDeviation="1.21588" result="effect1_foregroundBlur_112_1471"/>
</filter>
<filter id="filter7_f_112_1471" x="118.732" y="574.639" width="71.2618" height="129.779" filterUnits="userSpaceOnUse" color-interpolation-filters="sRGB">
<feFlood flood-opacity="0" result="BackgroundImageFix"/>
<feBlend mode="normal" in="SourceGraphic" in2="BackgroundImageFix" result="shape"/>
<feGaussianBlur stdDeviation="0.405294" result="effect1_foregroundBlur_112_1471"/>
</filter>
<filter id="filter8_f_112_1471" x="205.084" y="671.636" width="96.0706" height="74.825" filterUnits="userSpaceOnUse" color-interpolation-filters="sRGB">
<feFlood flood-opacity="0" result="BackgroundImageFix"/>
<feBlend mode="normal" in="SourceGraphic" in2="BackgroundImageFix" result="shape"/>
<feGaussianBlur stdDeviation="1.21588" result="effect1_foregroundBlur_112_1471"/>
</filter>
<filter id="filter9_f_112_1471" x="207.045" y="674.679" width="91.2813" height="68.7398" filterUnits="userSpaceOnUse" color-interpolation-filters="sRGB">
<feFlood flood-opacity="0" result="BackgroundImageFix"/>
<feBlend mode="normal" in="SourceGraphic" in2="BackgroundImageFix" result="shape"/>
<feGaussianBlur stdDeviation="0.405294" result="effect1_foregroundBlur_112_1471"/>
</filter>
<filter id="filter10_f_112_1471" x="638.783" y="718.315" width="71.6604" height="28.1462" filterUnits="userSpaceOnUse" color-interpolation-filters="sRGB">
<feFlood flood-opacity="0" result="BackgroundImageFix"/>
<feBlend mode="normal" in="SourceGraphic" in2="BackgroundImageFix" result="shape"/>
<feGaussianBlur stdDeviation="1.21588" result="effect1_foregroundBlur_112_1471"/>
</filter>
<filter id="filter11_f_112_1471" x="640.955" y="720.114" width="66.4571" height="23.3048" filterUnits="userSpaceOnUse" color-interpolation-filters="sRGB">
<feFlood flood-opacity="0" result="BackgroundImageFix"/>
<feBlend mode="normal" in="SourceGraphic" in2="BackgroundImageFix" result="shape"/>
<feGaussianBlur stdDeviation="0.405294" result="effect1_foregroundBlur_112_1471"/>
</filter>
<filter id="filter12_f_112_1471" x="701.537" y="632.339" width="151.926" height="65.093" filterUnits="userSpaceOnUse" color-interpolation-filters="sRGB">
<feFlood flood-opacity="0" result="BackgroundImageFix"/>
<feBlend mode="normal" in="SourceGraphic" in2="BackgroundImageFix" result="shape"/>
<feGaussianBlur stdDeviation="1.21588" result="effect1_foregroundBlur_112_1471"/>
</filter>
<filter id="filter13_f_112_1471" x="704.58" y="634.121" width="145.84" height="61.69" filterUnits="userSpaceOnUse" color-interpolation-filters="sRGB">
<feFlood flood-opacity="0" result="BackgroundImageFix"/>
<feBlend mode="normal" in="SourceGraphic" in2="BackgroundImageFix" result="shape"/>
<feGaussianBlur stdDeviation="0.405294" result="effect1_foregroundBlur_112_1471"/>
</filter>
<filter id="filter14_f_112_1471" x="828.537" y="433.945" width="125.504" height="153.922" filterUnits="userSpaceOnUse" color-interpolation-filters="sRGB">
<feFlood flood-opacity="0" result="BackgroundImageFix"/>
<feBlend mode="normal" in="SourceGraphic" in2="BackgroundImageFix" result="shape"/>
<feGaussianBlur stdDeviation="1.21588" result="effect1_foregroundBlur_112_1471"/>
</filter>
<filter id="filter15_f_112_1471" x="831.58" y="436.703" width="119.418" height="149.238" filterUnits="userSpaceOnUse" color-interpolation-filters="sRGB">
<feFlood flood-opacity="0" result="BackgroundImageFix"/>
<feBlend mode="normal" in="SourceGraphic" in2="BackgroundImageFix" result="shape"/>
<feGaussianBlur stdDeviation="0.405294" result="effect1_foregroundBlur_112_1471"/>
</filter>
<filter id="filter16_f_112_1471" x="740.07" y="87.2523" width="69.3479" height="130.394" filterUnits="userSpaceOnUse" color-interpolation-filters="sRGB">
<feFlood flood-opacity="0" result="BackgroundImageFix"/>
<feBlend mode="normal" in="SourceGraphic" in2="BackgroundImageFix" result="shape"/>
<feGaussianBlur stdDeviation="1.21685" result="effect1_foregroundBlur_112_1471"/>
</filter>
<filter id="filter17_f_112_1471" x="741.693" y="88.8754" width="66.1016" height="127.148" filterUnits="userSpaceOnUse" color-interpolation-filters="sRGB">
<feFlood flood-opacity="0" result="BackgroundImageFix"/>
<feBlend mode="normal" in="SourceGraphic" in2="BackgroundImageFix" result="shape"/>
<feGaussianBlur stdDeviation="0.405294" result="effect1_foregroundBlur_112_1471"/>
</filter>
<filter id="filter18_f_112_1471" x="743.518" y="90.267" width="65.0157" height="124.352" filterUnits="userSpaceOnUse" color-interpolation-filters="sRGB">
<feFlood flood-opacity="0" result="BackgroundImageFix"/>
<feBlend mode="normal" in="SourceGraphic" in2="BackgroundImageFix" result="shape"/>
<feGaussianBlur stdDeviation="0.405294" result="effect1_foregroundBlur_112_1471"/>
</filter>
<filter id="filter19_f_112_1471" x="0.536984" y="228.129" width="137.774" height="173.761" filterUnits="userSpaceOnUse" color-interpolation-filters="sRGB">
<feFlood flood-opacity="0" result="BackgroundImageFix"/>
<feBlend mode="normal" in="SourceGraphic" in2="BackgroundImageFix" result="shape"/>
<feGaussianBlur stdDeviation="1.21588" result="effect1_foregroundBlur_112_1471"/>
</filter>
<filter id="filter20_f_112_1471" x="3.58004" y="230.026" width="131.688" height="169.176" filterUnits="userSpaceOnUse" color-interpolation-filters="sRGB">
<feFlood flood-opacity="0" result="BackgroundImageFix"/>
<feBlend mode="normal" in="SourceGraphic" in2="BackgroundImageFix" result="shape"/>
<feGaussianBlur stdDeviation="0.405294" result="effect1_foregroundBlur_112_1471"/>
</filter>
<filter id="filter21_f_112_1471" x="852.228" y="210.167" width="65.4065" height="201.25" filterUnits="userSpaceOnUse" color-interpolation-filters="sRGB">
<feFlood flood-opacity="0" result="BackgroundImageFix"/>
<feBlend mode="normal" in="SourceGraphic" in2="BackgroundImageFix" result="shape"/>
<feGaussianBlur stdDeviation="1.21588" result="effect1_foregroundBlur_112_1471"/>
</filter>
<filter id="filter22_f_112_1471" x="855.346" y="213.105" width="59.172" height="195.642" filterUnits="userSpaceOnUse" color-interpolation-filters="sRGB">
<feFlood flood-opacity="0" result="BackgroundImageFix"/>
<feBlend mode="normal" in="SourceGraphic" in2="BackgroundImageFix" result="shape"/>
<feGaussianBlur stdDeviation="0.405294" result="effect1_foregroundBlur_112_1471"/>
</filter>
<filter id="filter23_f_112_1471" x="117.433" y="84.5673" width="232.973" height="88.6325" filterUnits="userSpaceOnUse" color-interpolation-filters="sRGB">
<feFlood flood-opacity="0" result="BackgroundImageFix"/>
<feBlend mode="normal" in="SourceGraphic" in2="BackgroundImageFix" result="shape"/>
<feGaussianBlur stdDeviation="1.21685" result="effect1_foregroundBlur_112_1471"/>
</filter>
<filter id="filter24_f_112_1471" x="120.049" y="85.7504" width="226.438" height="85.1246" filterUnits="userSpaceOnUse" color-interpolation-filters="sRGB">
<feFlood flood-opacity="0" result="BackgroundImageFix"/>
<feBlend mode="normal" in="SourceGraphic" in2="BackgroundImageFix" result="shape"/>
<feGaussianBlur stdDeviation="0.405294" result="effect1_foregroundBlur_112_1471"/>
</filter>
</defs>
</svg>
